%TF.GenerationSoftware,KiCad,Pcbnew,(5.1.6-0-10_14)*%
%TF.CreationDate,2021-03-14T15:43:45-04:00*%
%TF.ProjectId,F051_ESC,46303531-5f45-4534-932e-6b696361645f,rev?*%
%TF.SameCoordinates,Original*%
%TF.FileFunction,Paste,Bot*%
%TF.FilePolarity,Positive*%
%FSLAX46Y46*%
G04 Gerber Fmt 4.6, Leading zero omitted, Abs format (unit mm)*
G04 Created by KiCad (PCBNEW (5.1.6-0-10_14)) date 2021-03-14 15:43:45*
%MOMM*%
%LPD*%
G01*
G04 APERTURE LIST*
%ADD10C,0.010000*%
%ADD11R,1.060000X0.650000*%
%ADD12R,0.700000X0.600000*%
%ADD13R,1.050000X0.850000*%
%ADD14R,1.450000X0.850000*%
G04 APERTURE END LIST*
D10*
%TO.C,Q5*%
G36*
X227560000Y-74686000D02*
G01*
X230540000Y-74686000D01*
X230540000Y-72314000D01*
X227560000Y-72314000D01*
X227560000Y-74686000D01*
G37*
X227560000Y-74686000D02*
X230540000Y-74686000D01*
X230540000Y-72314000D01*
X227560000Y-72314000D01*
X227560000Y-74686000D01*
%TO.C,Q3*%
G36*
X227560000Y-81186000D02*
G01*
X230540000Y-81186000D01*
X230540000Y-78814000D01*
X227560000Y-78814000D01*
X227560000Y-81186000D01*
G37*
X227560000Y-81186000D02*
X230540000Y-81186000D01*
X230540000Y-78814000D01*
X227560000Y-78814000D01*
X227560000Y-81186000D01*
%TO.C,Q1*%
G36*
X227560000Y-87686000D02*
G01*
X230540000Y-87686000D01*
X230540000Y-85314000D01*
X227560000Y-85314000D01*
X227560000Y-87686000D01*
G37*
X227560000Y-87686000D02*
X230540000Y-87686000D01*
X230540000Y-85314000D01*
X227560000Y-85314000D01*
X227560000Y-87686000D01*
%TD*%
%TO.C,R3*%
G36*
G01*
X237647500Y-89050000D02*
X237992500Y-89050000D01*
G75*
G02*
X238140000Y-89197500I0J-147500D01*
G01*
X238140000Y-89492500D01*
G75*
G02*
X237992500Y-89640000I-147500J0D01*
G01*
X237647500Y-89640000D01*
G75*
G02*
X237500000Y-89492500I0J147500D01*
G01*
X237500000Y-89197500D01*
G75*
G02*
X237647500Y-89050000I147500J0D01*
G01*
G37*
G36*
G01*
X237647500Y-88080000D02*
X237992500Y-88080000D01*
G75*
G02*
X238140000Y-88227500I0J-147500D01*
G01*
X238140000Y-88522500D01*
G75*
G02*
X237992500Y-88670000I-147500J0D01*
G01*
X237647500Y-88670000D01*
G75*
G02*
X237500000Y-88522500I0J147500D01*
G01*
X237500000Y-88227500D01*
G75*
G02*
X237647500Y-88080000I147500J0D01*
G01*
G37*
%TD*%
D11*
%TO.C,U7*%
X241340000Y-88940000D03*
X241340000Y-87040000D03*
X239140000Y-87040000D03*
X239140000Y-87990000D03*
X239140000Y-88940000D03*
%TD*%
%TO.C,C8*%
G36*
G01*
X237170000Y-87237500D02*
X237170000Y-87582500D01*
G75*
G02*
X237022500Y-87730000I-147500J0D01*
G01*
X236727500Y-87730000D01*
G75*
G02*
X236580000Y-87582500I0J147500D01*
G01*
X236580000Y-87237500D01*
G75*
G02*
X236727500Y-87090000I147500J0D01*
G01*
X237022500Y-87090000D01*
G75*
G02*
X237170000Y-87237500I0J-147500D01*
G01*
G37*
G36*
G01*
X238140000Y-87237500D02*
X238140000Y-87582500D01*
G75*
G02*
X237992500Y-87730000I-147500J0D01*
G01*
X237697500Y-87730000D01*
G75*
G02*
X237550000Y-87582500I0J147500D01*
G01*
X237550000Y-87237500D01*
G75*
G02*
X237697500Y-87090000I147500J0D01*
G01*
X237992500Y-87090000D01*
G75*
G02*
X238140000Y-87237500I0J-147500D01*
G01*
G37*
%TD*%
%TO.C,R2*%
G36*
G01*
X242487500Y-89050000D02*
X242832500Y-89050000D01*
G75*
G02*
X242980000Y-89197500I0J-147500D01*
G01*
X242980000Y-89492500D01*
G75*
G02*
X242832500Y-89640000I-147500J0D01*
G01*
X242487500Y-89640000D01*
G75*
G02*
X242340000Y-89492500I0J147500D01*
G01*
X242340000Y-89197500D01*
G75*
G02*
X242487500Y-89050000I147500J0D01*
G01*
G37*
G36*
G01*
X242487500Y-88080000D02*
X242832500Y-88080000D01*
G75*
G02*
X242980000Y-88227500I0J-147500D01*
G01*
X242980000Y-88522500D01*
G75*
G02*
X242832500Y-88670000I-147500J0D01*
G01*
X242487500Y-88670000D01*
G75*
G02*
X242340000Y-88522500I0J147500D01*
G01*
X242340000Y-88227500D01*
G75*
G02*
X242487500Y-88080000I147500J0D01*
G01*
G37*
%TD*%
%TO.C,C7*%
G36*
G01*
X247327500Y-88490000D02*
X247672500Y-88490000D01*
G75*
G02*
X247820000Y-88637500I0J-147500D01*
G01*
X247820000Y-88932500D01*
G75*
G02*
X247672500Y-89080000I-147500J0D01*
G01*
X247327500Y-89080000D01*
G75*
G02*
X247180000Y-88932500I0J147500D01*
G01*
X247180000Y-88637500D01*
G75*
G02*
X247327500Y-88490000I147500J0D01*
G01*
G37*
G36*
G01*
X247327500Y-87520000D02*
X247672500Y-87520000D01*
G75*
G02*
X247820000Y-87667500I0J-147500D01*
G01*
X247820000Y-87962500D01*
G75*
G02*
X247672500Y-88110000I-147500J0D01*
G01*
X247327500Y-88110000D01*
G75*
G02*
X247180000Y-87962500I0J147500D01*
G01*
X247180000Y-87667500D01*
G75*
G02*
X247327500Y-87520000I147500J0D01*
G01*
G37*
%TD*%
%TO.C,FB1*%
G36*
G01*
X248860000Y-86526250D02*
X248860000Y-86013750D01*
G75*
G02*
X249078750Y-85795000I218750J0D01*
G01*
X249516250Y-85795000D01*
G75*
G02*
X249735000Y-86013750I0J-218750D01*
G01*
X249735000Y-86526250D01*
G75*
G02*
X249516250Y-86745000I-218750J0D01*
G01*
X249078750Y-86745000D01*
G75*
G02*
X248860000Y-86526250I0J218750D01*
G01*
G37*
G36*
G01*
X247285000Y-86526250D02*
X247285000Y-86013750D01*
G75*
G02*
X247503750Y-85795000I218750J0D01*
G01*
X247941250Y-85795000D01*
G75*
G02*
X248160000Y-86013750I0J-218750D01*
G01*
X248160000Y-86526250D01*
G75*
G02*
X247941250Y-86745000I-218750J0D01*
G01*
X247503750Y-86745000D01*
G75*
G02*
X247285000Y-86526250I0J218750D01*
G01*
G37*
%TD*%
%TO.C,C6*%
G36*
G01*
X248927500Y-84750000D02*
X249272500Y-84750000D01*
G75*
G02*
X249420000Y-84897500I0J-147500D01*
G01*
X249420000Y-85192500D01*
G75*
G02*
X249272500Y-85340000I-147500J0D01*
G01*
X248927500Y-85340000D01*
G75*
G02*
X248780000Y-85192500I0J147500D01*
G01*
X248780000Y-84897500D01*
G75*
G02*
X248927500Y-84750000I147500J0D01*
G01*
G37*
G36*
G01*
X248927500Y-83780000D02*
X249272500Y-83780000D01*
G75*
G02*
X249420000Y-83927500I0J-147500D01*
G01*
X249420000Y-84222500D01*
G75*
G02*
X249272500Y-84370000I-147500J0D01*
G01*
X248927500Y-84370000D01*
G75*
G02*
X248780000Y-84222500I0J147500D01*
G01*
X248780000Y-83927500D01*
G75*
G02*
X248927500Y-83780000I147500J0D01*
G01*
G37*
%TD*%
%TO.C,U5*%
X246180000Y-88380000D03*
X246180000Y-86480000D03*
X243980000Y-86480000D03*
X243980000Y-87430000D03*
X243980000Y-88380000D03*
%TD*%
D12*
%TO.C,D4*%
X234500000Y-79040000D03*
X234500000Y-80440000D03*
%TD*%
%TO.C,D3*%
X234500000Y-71960000D03*
X234500000Y-73360000D03*
%TD*%
%TO.C,D2*%
X234500000Y-75500000D03*
X234500000Y-76900000D03*
%TD*%
%TO.C,C12*%
G36*
G01*
X235723750Y-77040000D02*
X236236250Y-77040000D01*
G75*
G02*
X236455000Y-77258750I0J-218750D01*
G01*
X236455000Y-77696250D01*
G75*
G02*
X236236250Y-77915000I-218750J0D01*
G01*
X235723750Y-77915000D01*
G75*
G02*
X235505000Y-77696250I0J218750D01*
G01*
X235505000Y-77258750D01*
G75*
G02*
X235723750Y-77040000I218750J0D01*
G01*
G37*
G36*
G01*
X235723750Y-75465000D02*
X236236250Y-75465000D01*
G75*
G02*
X236455000Y-75683750I0J-218750D01*
G01*
X236455000Y-76121250D01*
G75*
G02*
X236236250Y-76340000I-218750J0D01*
G01*
X235723750Y-76340000D01*
G75*
G02*
X235505000Y-76121250I0J218750D01*
G01*
X235505000Y-75683750D01*
G75*
G02*
X235723750Y-75465000I218750J0D01*
G01*
G37*
%TD*%
%TO.C,C11*%
G36*
G01*
X242890000Y-79897500D02*
X242890000Y-80242500D01*
G75*
G02*
X242742500Y-80390000I-147500J0D01*
G01*
X242447500Y-80390000D01*
G75*
G02*
X242300000Y-80242500I0J147500D01*
G01*
X242300000Y-79897500D01*
G75*
G02*
X242447500Y-79750000I147500J0D01*
G01*
X242742500Y-79750000D01*
G75*
G02*
X242890000Y-79897500I0J-147500D01*
G01*
G37*
G36*
G01*
X243860000Y-79897500D02*
X243860000Y-80242500D01*
G75*
G02*
X243712500Y-80390000I-147500J0D01*
G01*
X243417500Y-80390000D01*
G75*
G02*
X243270000Y-80242500I0J147500D01*
G01*
X243270000Y-79897500D01*
G75*
G02*
X243417500Y-79750000I147500J0D01*
G01*
X243712500Y-79750000D01*
G75*
G02*
X243860000Y-79897500I0J-147500D01*
G01*
G37*
%TD*%
%TO.C,R15*%
G36*
G01*
X242377500Y-83620000D02*
X242722500Y-83620000D01*
G75*
G02*
X242870000Y-83767500I0J-147500D01*
G01*
X242870000Y-84062500D01*
G75*
G02*
X242722500Y-84210000I-147500J0D01*
G01*
X242377500Y-84210000D01*
G75*
G02*
X242230000Y-84062500I0J147500D01*
G01*
X242230000Y-83767500D01*
G75*
G02*
X242377500Y-83620000I147500J0D01*
G01*
G37*
G36*
G01*
X242377500Y-82650000D02*
X242722500Y-82650000D01*
G75*
G02*
X242870000Y-82797500I0J-147500D01*
G01*
X242870000Y-83092500D01*
G75*
G02*
X242722500Y-83240000I-147500J0D01*
G01*
X242377500Y-83240000D01*
G75*
G02*
X242230000Y-83092500I0J147500D01*
G01*
X242230000Y-82797500D01*
G75*
G02*
X242377500Y-82650000I147500J0D01*
G01*
G37*
%TD*%
D13*
%TO.C,Q5*%
X231450000Y-75405000D03*
X231450000Y-74135000D03*
X231450000Y-72865000D03*
X231450000Y-71595000D03*
D14*
X225750000Y-71595000D03*
X225750000Y-72865000D03*
X225750000Y-74135000D03*
X225750000Y-75405000D03*
%TD*%
D13*
%TO.C,Q3*%
X231450000Y-81905000D03*
X231450000Y-80635000D03*
X231450000Y-79365000D03*
X231450000Y-78095000D03*
D14*
X225750000Y-78095000D03*
X225750000Y-79365000D03*
X225750000Y-80635000D03*
X225750000Y-81905000D03*
%TD*%
D13*
%TO.C,Q1*%
X231450000Y-88405000D03*
X231450000Y-87135000D03*
X231450000Y-85865000D03*
X231450000Y-84595000D03*
D14*
X225750000Y-84595000D03*
X225750000Y-85865000D03*
X225750000Y-87135000D03*
X225750000Y-88405000D03*
%TD*%
%TO.C,C1*%
G36*
G01*
X251147500Y-84140000D02*
X251492500Y-84140000D01*
G75*
G02*
X251640000Y-84287500I0J-147500D01*
G01*
X251640000Y-84582500D01*
G75*
G02*
X251492500Y-84730000I-147500J0D01*
G01*
X251147500Y-84730000D01*
G75*
G02*
X251000000Y-84582500I0J147500D01*
G01*
X251000000Y-84287500D01*
G75*
G02*
X251147500Y-84140000I147500J0D01*
G01*
G37*
G36*
G01*
X251147500Y-83170000D02*
X251492500Y-83170000D01*
G75*
G02*
X251640000Y-83317500I0J-147500D01*
G01*
X251640000Y-83612500D01*
G75*
G02*
X251492500Y-83760000I-147500J0D01*
G01*
X251147500Y-83760000D01*
G75*
G02*
X251000000Y-83612500I0J147500D01*
G01*
X251000000Y-83317500D01*
G75*
G02*
X251147500Y-83170000I147500J0D01*
G01*
G37*
%TD*%
%TO.C,R24*%
G36*
G01*
X242890000Y-84707500D02*
X242890000Y-85052500D01*
G75*
G02*
X242742500Y-85200000I-147500J0D01*
G01*
X242447500Y-85200000D01*
G75*
G02*
X242300000Y-85052500I0J147500D01*
G01*
X242300000Y-84707500D01*
G75*
G02*
X242447500Y-84560000I147500J0D01*
G01*
X242742500Y-84560000D01*
G75*
G02*
X242890000Y-84707500I0J-147500D01*
G01*
G37*
G36*
G01*
X243860000Y-84707500D02*
X243860000Y-85052500D01*
G75*
G02*
X243712500Y-85200000I-147500J0D01*
G01*
X243417500Y-85200000D01*
G75*
G02*
X243270000Y-85052500I0J147500D01*
G01*
X243270000Y-84707500D01*
G75*
G02*
X243417500Y-84560000I147500J0D01*
G01*
X243712500Y-84560000D01*
G75*
G02*
X243860000Y-84707500I0J-147500D01*
G01*
G37*
%TD*%
%TO.C,R23*%
G36*
G01*
X251147500Y-82230000D02*
X251492500Y-82230000D01*
G75*
G02*
X251640000Y-82377500I0J-147500D01*
G01*
X251640000Y-82672500D01*
G75*
G02*
X251492500Y-82820000I-147500J0D01*
G01*
X251147500Y-82820000D01*
G75*
G02*
X251000000Y-82672500I0J147500D01*
G01*
X251000000Y-82377500D01*
G75*
G02*
X251147500Y-82230000I147500J0D01*
G01*
G37*
G36*
G01*
X251147500Y-81260000D02*
X251492500Y-81260000D01*
G75*
G02*
X251640000Y-81407500I0J-147500D01*
G01*
X251640000Y-81702500D01*
G75*
G02*
X251492500Y-81850000I-147500J0D01*
G01*
X251147500Y-81850000D01*
G75*
G02*
X251000000Y-81702500I0J147500D01*
G01*
X251000000Y-81407500D01*
G75*
G02*
X251147500Y-81260000I147500J0D01*
G01*
G37*
%TD*%
%TO.C,R21*%
G36*
G01*
X244357500Y-84840000D02*
X244702500Y-84840000D01*
G75*
G02*
X244850000Y-84987500I0J-147500D01*
G01*
X244850000Y-85282500D01*
G75*
G02*
X244702500Y-85430000I-147500J0D01*
G01*
X244357500Y-85430000D01*
G75*
G02*
X244210000Y-85282500I0J147500D01*
G01*
X244210000Y-84987500D01*
G75*
G02*
X244357500Y-84840000I147500J0D01*
G01*
G37*
G36*
G01*
X244357500Y-83870000D02*
X244702500Y-83870000D01*
G75*
G02*
X244850000Y-84017500I0J-147500D01*
G01*
X244850000Y-84312500D01*
G75*
G02*
X244702500Y-84460000I-147500J0D01*
G01*
X244357500Y-84460000D01*
G75*
G02*
X244210000Y-84312500I0J147500D01*
G01*
X244210000Y-84017500D01*
G75*
G02*
X244357500Y-83870000I147500J0D01*
G01*
G37*
%TD*%
%TO.C,R20*%
G36*
G01*
X243712500Y-83240000D02*
X243367500Y-83240000D01*
G75*
G02*
X243220000Y-83092500I0J147500D01*
G01*
X243220000Y-82797500D01*
G75*
G02*
X243367500Y-82650000I147500J0D01*
G01*
X243712500Y-82650000D01*
G75*
G02*
X243860000Y-82797500I0J-147500D01*
G01*
X243860000Y-83092500D01*
G75*
G02*
X243712500Y-83240000I-147500J0D01*
G01*
G37*
G36*
G01*
X243712500Y-84210000D02*
X243367500Y-84210000D01*
G75*
G02*
X243220000Y-84062500I0J147500D01*
G01*
X243220000Y-83767500D01*
G75*
G02*
X243367500Y-83620000I147500J0D01*
G01*
X243712500Y-83620000D01*
G75*
G02*
X243860000Y-83767500I0J-147500D01*
G01*
X243860000Y-84062500D01*
G75*
G02*
X243712500Y-84210000I-147500J0D01*
G01*
G37*
%TD*%
%TO.C,R19*%
G36*
G01*
X246682500Y-84460000D02*
X246337500Y-84460000D01*
G75*
G02*
X246190000Y-84312500I0J147500D01*
G01*
X246190000Y-84017500D01*
G75*
G02*
X246337500Y-83870000I147500J0D01*
G01*
X246682500Y-83870000D01*
G75*
G02*
X246830000Y-84017500I0J-147500D01*
G01*
X246830000Y-84312500D01*
G75*
G02*
X246682500Y-84460000I-147500J0D01*
G01*
G37*
G36*
G01*
X246682500Y-85430000D02*
X246337500Y-85430000D01*
G75*
G02*
X246190000Y-85282500I0J147500D01*
G01*
X246190000Y-84987500D01*
G75*
G02*
X246337500Y-84840000I147500J0D01*
G01*
X246682500Y-84840000D01*
G75*
G02*
X246830000Y-84987500I0J-147500D01*
G01*
X246830000Y-85282500D01*
G75*
G02*
X246682500Y-85430000I-147500J0D01*
G01*
G37*
%TD*%
%TO.C,R18*%
G36*
G01*
X245692500Y-84460000D02*
X245347500Y-84460000D01*
G75*
G02*
X245200000Y-84312500I0J147500D01*
G01*
X245200000Y-84017500D01*
G75*
G02*
X245347500Y-83870000I147500J0D01*
G01*
X245692500Y-83870000D01*
G75*
G02*
X245840000Y-84017500I0J-147500D01*
G01*
X245840000Y-84312500D01*
G75*
G02*
X245692500Y-84460000I-147500J0D01*
G01*
G37*
G36*
G01*
X245692500Y-85430000D02*
X245347500Y-85430000D01*
G75*
G02*
X245200000Y-85282500I0J147500D01*
G01*
X245200000Y-84987500D01*
G75*
G02*
X245347500Y-84840000I147500J0D01*
G01*
X245692500Y-84840000D01*
G75*
G02*
X245840000Y-84987500I0J-147500D01*
G01*
X245840000Y-85282500D01*
G75*
G02*
X245692500Y-85430000I-147500J0D01*
G01*
G37*
%TD*%
%TO.C,R17*%
G36*
G01*
X241387500Y-83620000D02*
X241732500Y-83620000D01*
G75*
G02*
X241880000Y-83767500I0J-147500D01*
G01*
X241880000Y-84062500D01*
G75*
G02*
X241732500Y-84210000I-147500J0D01*
G01*
X241387500Y-84210000D01*
G75*
G02*
X241240000Y-84062500I0J147500D01*
G01*
X241240000Y-83767500D01*
G75*
G02*
X241387500Y-83620000I147500J0D01*
G01*
G37*
G36*
G01*
X241387500Y-82650000D02*
X241732500Y-82650000D01*
G75*
G02*
X241880000Y-82797500I0J-147500D01*
G01*
X241880000Y-83092500D01*
G75*
G02*
X241732500Y-83240000I-147500J0D01*
G01*
X241387500Y-83240000D01*
G75*
G02*
X241240000Y-83092500I0J147500D01*
G01*
X241240000Y-82797500D01*
G75*
G02*
X241387500Y-82650000I147500J0D01*
G01*
G37*
%TD*%
%TO.C,R16*%
G36*
G01*
X243367500Y-81710000D02*
X243712500Y-81710000D01*
G75*
G02*
X243860000Y-81857500I0J-147500D01*
G01*
X243860000Y-82152500D01*
G75*
G02*
X243712500Y-82300000I-147500J0D01*
G01*
X243367500Y-82300000D01*
G75*
G02*
X243220000Y-82152500I0J147500D01*
G01*
X243220000Y-81857500D01*
G75*
G02*
X243367500Y-81710000I147500J0D01*
G01*
G37*
G36*
G01*
X243367500Y-80740000D02*
X243712500Y-80740000D01*
G75*
G02*
X243860000Y-80887500I0J-147500D01*
G01*
X243860000Y-81182500D01*
G75*
G02*
X243712500Y-81330000I-147500J0D01*
G01*
X243367500Y-81330000D01*
G75*
G02*
X243220000Y-81182500I0J147500D01*
G01*
X243220000Y-80887500D01*
G75*
G02*
X243367500Y-80740000I147500J0D01*
G01*
G37*
%TD*%
%TO.C,R14*%
G36*
G01*
X241732500Y-81330000D02*
X241387500Y-81330000D01*
G75*
G02*
X241240000Y-81182500I0J147500D01*
G01*
X241240000Y-80887500D01*
G75*
G02*
X241387500Y-80740000I147500J0D01*
G01*
X241732500Y-80740000D01*
G75*
G02*
X241880000Y-80887500I0J-147500D01*
G01*
X241880000Y-81182500D01*
G75*
G02*
X241732500Y-81330000I-147500J0D01*
G01*
G37*
G36*
G01*
X241732500Y-82300000D02*
X241387500Y-82300000D01*
G75*
G02*
X241240000Y-82152500I0J147500D01*
G01*
X241240000Y-81857500D01*
G75*
G02*
X241387500Y-81710000I147500J0D01*
G01*
X241732500Y-81710000D01*
G75*
G02*
X241880000Y-81857500I0J-147500D01*
G01*
X241880000Y-82152500D01*
G75*
G02*
X241732500Y-82300000I-147500J0D01*
G01*
G37*
%TD*%
%TO.C,R13*%
G36*
G01*
X242722500Y-81330000D02*
X242377500Y-81330000D01*
G75*
G02*
X242230000Y-81182500I0J147500D01*
G01*
X242230000Y-80887500D01*
G75*
G02*
X242377500Y-80740000I147500J0D01*
G01*
X242722500Y-80740000D01*
G75*
G02*
X242870000Y-80887500I0J-147500D01*
G01*
X242870000Y-81182500D01*
G75*
G02*
X242722500Y-81330000I-147500J0D01*
G01*
G37*
G36*
G01*
X242722500Y-82300000D02*
X242377500Y-82300000D01*
G75*
G02*
X242230000Y-82152500I0J147500D01*
G01*
X242230000Y-81857500D01*
G75*
G02*
X242377500Y-81710000I147500J0D01*
G01*
X242722500Y-81710000D01*
G75*
G02*
X242870000Y-81857500I0J-147500D01*
G01*
X242870000Y-82152500D01*
G75*
G02*
X242722500Y-82300000I-147500J0D01*
G01*
G37*
%TD*%
%TO.C,R12*%
G36*
G01*
X239382500Y-81350000D02*
X239037500Y-81350000D01*
G75*
G02*
X238890000Y-81202500I0J147500D01*
G01*
X238890000Y-80907500D01*
G75*
G02*
X239037500Y-80760000I147500J0D01*
G01*
X239382500Y-80760000D01*
G75*
G02*
X239530000Y-80907500I0J-147500D01*
G01*
X239530000Y-81202500D01*
G75*
G02*
X239382500Y-81350000I-147500J0D01*
G01*
G37*
G36*
G01*
X239382500Y-82320000D02*
X239037500Y-82320000D01*
G75*
G02*
X238890000Y-82172500I0J147500D01*
G01*
X238890000Y-81877500D01*
G75*
G02*
X239037500Y-81730000I147500J0D01*
G01*
X239382500Y-81730000D01*
G75*
G02*
X239530000Y-81877500I0J-147500D01*
G01*
X239530000Y-82172500D01*
G75*
G02*
X239382500Y-82320000I-147500J0D01*
G01*
G37*
%TD*%
%TO.C,R11*%
G36*
G01*
X234460000Y-81682500D02*
X234460000Y-81337500D01*
G75*
G02*
X234607500Y-81190000I147500J0D01*
G01*
X234902500Y-81190000D01*
G75*
G02*
X235050000Y-81337500I0J-147500D01*
G01*
X235050000Y-81682500D01*
G75*
G02*
X234902500Y-81830000I-147500J0D01*
G01*
X234607500Y-81830000D01*
G75*
G02*
X234460000Y-81682500I0J147500D01*
G01*
G37*
G36*
G01*
X233490000Y-81682500D02*
X233490000Y-81337500D01*
G75*
G02*
X233637500Y-81190000I147500J0D01*
G01*
X233932500Y-81190000D01*
G75*
G02*
X234080000Y-81337500I0J-147500D01*
G01*
X234080000Y-81682500D01*
G75*
G02*
X233932500Y-81830000I-147500J0D01*
G01*
X233637500Y-81830000D01*
G75*
G02*
X233490000Y-81682500I0J147500D01*
G01*
G37*
%TD*%
%TO.C,R10*%
G36*
G01*
X238392500Y-81350000D02*
X238047500Y-81350000D01*
G75*
G02*
X237900000Y-81202500I0J147500D01*
G01*
X237900000Y-80907500D01*
G75*
G02*
X238047500Y-80760000I147500J0D01*
G01*
X238392500Y-80760000D01*
G75*
G02*
X238540000Y-80907500I0J-147500D01*
G01*
X238540000Y-81202500D01*
G75*
G02*
X238392500Y-81350000I-147500J0D01*
G01*
G37*
G36*
G01*
X238392500Y-82320000D02*
X238047500Y-82320000D01*
G75*
G02*
X237900000Y-82172500I0J147500D01*
G01*
X237900000Y-81877500D01*
G75*
G02*
X238047500Y-81730000I147500J0D01*
G01*
X238392500Y-81730000D01*
G75*
G02*
X238540000Y-81877500I0J-147500D01*
G01*
X238540000Y-82172500D01*
G75*
G02*
X238392500Y-82320000I-147500J0D01*
G01*
G37*
%TD*%
%TO.C,R9*%
G36*
G01*
X234460000Y-78142500D02*
X234460000Y-77797500D01*
G75*
G02*
X234607500Y-77650000I147500J0D01*
G01*
X234902500Y-77650000D01*
G75*
G02*
X235050000Y-77797500I0J-147500D01*
G01*
X235050000Y-78142500D01*
G75*
G02*
X234902500Y-78290000I-147500J0D01*
G01*
X234607500Y-78290000D01*
G75*
G02*
X234460000Y-78142500I0J147500D01*
G01*
G37*
G36*
G01*
X233490000Y-78142500D02*
X233490000Y-77797500D01*
G75*
G02*
X233637500Y-77650000I147500J0D01*
G01*
X233932500Y-77650000D01*
G75*
G02*
X234080000Y-77797500I0J-147500D01*
G01*
X234080000Y-78142500D01*
G75*
G02*
X233932500Y-78290000I-147500J0D01*
G01*
X233637500Y-78290000D01*
G75*
G02*
X233490000Y-78142500I0J147500D01*
G01*
G37*
%TD*%
%TO.C,R8*%
G36*
G01*
X237402500Y-81350000D02*
X237057500Y-81350000D01*
G75*
G02*
X236910000Y-81202500I0J147500D01*
G01*
X236910000Y-80907500D01*
G75*
G02*
X237057500Y-80760000I147500J0D01*
G01*
X237402500Y-80760000D01*
G75*
G02*
X237550000Y-80907500I0J-147500D01*
G01*
X237550000Y-81202500D01*
G75*
G02*
X237402500Y-81350000I-147500J0D01*
G01*
G37*
G36*
G01*
X237402500Y-82320000D02*
X237057500Y-82320000D01*
G75*
G02*
X236910000Y-82172500I0J147500D01*
G01*
X236910000Y-81877500D01*
G75*
G02*
X237057500Y-81730000I147500J0D01*
G01*
X237402500Y-81730000D01*
G75*
G02*
X237550000Y-81877500I0J-147500D01*
G01*
X237550000Y-82172500D01*
G75*
G02*
X237402500Y-82320000I-147500J0D01*
G01*
G37*
%TD*%
%TO.C,R7*%
G36*
G01*
X234460000Y-74602500D02*
X234460000Y-74257500D01*
G75*
G02*
X234607500Y-74110000I147500J0D01*
G01*
X234902500Y-74110000D01*
G75*
G02*
X235050000Y-74257500I0J-147500D01*
G01*
X235050000Y-74602500D01*
G75*
G02*
X234902500Y-74750000I-147500J0D01*
G01*
X234607500Y-74750000D01*
G75*
G02*
X234460000Y-74602500I0J147500D01*
G01*
G37*
G36*
G01*
X233490000Y-74602500D02*
X233490000Y-74257500D01*
G75*
G02*
X233637500Y-74110000I147500J0D01*
G01*
X233932500Y-74110000D01*
G75*
G02*
X234080000Y-74257500I0J-147500D01*
G01*
X234080000Y-74602500D01*
G75*
G02*
X233932500Y-74750000I-147500J0D01*
G01*
X233637500Y-74750000D01*
G75*
G02*
X233490000Y-74602500I0J147500D01*
G01*
G37*
%TD*%
%TO.C,C15*%
G36*
G01*
X249917500Y-84750000D02*
X250262500Y-84750000D01*
G75*
G02*
X250410000Y-84897500I0J-147500D01*
G01*
X250410000Y-85192500D01*
G75*
G02*
X250262500Y-85340000I-147500J0D01*
G01*
X249917500Y-85340000D01*
G75*
G02*
X249770000Y-85192500I0J147500D01*
G01*
X249770000Y-84897500D01*
G75*
G02*
X249917500Y-84750000I147500J0D01*
G01*
G37*
G36*
G01*
X249917500Y-83780000D02*
X250262500Y-83780000D01*
G75*
G02*
X250410000Y-83927500I0J-147500D01*
G01*
X250410000Y-84222500D01*
G75*
G02*
X250262500Y-84370000I-147500J0D01*
G01*
X249917500Y-84370000D01*
G75*
G02*
X249770000Y-84222500I0J147500D01*
G01*
X249770000Y-83927500D01*
G75*
G02*
X249917500Y-83780000I147500J0D01*
G01*
G37*
%TD*%
%TO.C,C14*%
G36*
G01*
X235723750Y-80050000D02*
X236236250Y-80050000D01*
G75*
G02*
X236455000Y-80268750I0J-218750D01*
G01*
X236455000Y-80706250D01*
G75*
G02*
X236236250Y-80925000I-218750J0D01*
G01*
X235723750Y-80925000D01*
G75*
G02*
X235505000Y-80706250I0J218750D01*
G01*
X235505000Y-80268750D01*
G75*
G02*
X235723750Y-80050000I218750J0D01*
G01*
G37*
G36*
G01*
X235723750Y-78475000D02*
X236236250Y-78475000D01*
G75*
G02*
X236455000Y-78693750I0J-218750D01*
G01*
X236455000Y-79131250D01*
G75*
G02*
X236236250Y-79350000I-218750J0D01*
G01*
X235723750Y-79350000D01*
G75*
G02*
X235505000Y-79131250I0J218750D01*
G01*
X235505000Y-78693750D01*
G75*
G02*
X235723750Y-78475000I218750J0D01*
G01*
G37*
%TD*%
%TO.C,C13*%
G36*
G01*
X235723750Y-74030000D02*
X236236250Y-74030000D01*
G75*
G02*
X236455000Y-74248750I0J-218750D01*
G01*
X236455000Y-74686250D01*
G75*
G02*
X236236250Y-74905000I-218750J0D01*
G01*
X235723750Y-74905000D01*
G75*
G02*
X235505000Y-74686250I0J218750D01*
G01*
X235505000Y-74248750D01*
G75*
G02*
X235723750Y-74030000I218750J0D01*
G01*
G37*
G36*
G01*
X235723750Y-72455000D02*
X236236250Y-72455000D01*
G75*
G02*
X236455000Y-72673750I0J-218750D01*
G01*
X236455000Y-73111250D01*
G75*
G02*
X236236250Y-73330000I-218750J0D01*
G01*
X235723750Y-73330000D01*
G75*
G02*
X235505000Y-73111250I0J218750D01*
G01*
X235505000Y-72673750D01*
G75*
G02*
X235723750Y-72455000I218750J0D01*
G01*
G37*
%TD*%
%TO.C,C3*%
G36*
G01*
X247937500Y-84750000D02*
X248282500Y-84750000D01*
G75*
G02*
X248430000Y-84897500I0J-147500D01*
G01*
X248430000Y-85192500D01*
G75*
G02*
X248282500Y-85340000I-147500J0D01*
G01*
X247937500Y-85340000D01*
G75*
G02*
X247790000Y-85192500I0J147500D01*
G01*
X247790000Y-84897500D01*
G75*
G02*
X247937500Y-84750000I147500J0D01*
G01*
G37*
G36*
G01*
X247937500Y-83780000D02*
X248282500Y-83780000D01*
G75*
G02*
X248430000Y-83927500I0J-147500D01*
G01*
X248430000Y-84222500D01*
G75*
G02*
X248282500Y-84370000I-147500J0D01*
G01*
X247937500Y-84370000D01*
G75*
G02*
X247790000Y-84222500I0J147500D01*
G01*
X247790000Y-83927500D01*
G75*
G02*
X247937500Y-83780000I147500J0D01*
G01*
G37*
%TD*%
%TO.C,C2*%
G36*
G01*
X245180000Y-76487500D02*
X245180000Y-76832500D01*
G75*
G02*
X245032500Y-76980000I-147500J0D01*
G01*
X244737500Y-76980000D01*
G75*
G02*
X244590000Y-76832500I0J147500D01*
G01*
X244590000Y-76487500D01*
G75*
G02*
X244737500Y-76340000I147500J0D01*
G01*
X245032500Y-76340000D01*
G75*
G02*
X245180000Y-76487500I0J-147500D01*
G01*
G37*
G36*
G01*
X246150000Y-76487500D02*
X246150000Y-76832500D01*
G75*
G02*
X246002500Y-76980000I-147500J0D01*
G01*
X245707500Y-76980000D01*
G75*
G02*
X245560000Y-76832500I0J147500D01*
G01*
X245560000Y-76487500D01*
G75*
G02*
X245707500Y-76340000I147500J0D01*
G01*
X246002500Y-76340000D01*
G75*
G02*
X246150000Y-76487500I0J-147500D01*
G01*
G37*
%TD*%
%TO.C,U2*%
G36*
G01*
X249492500Y-83175000D02*
X249367500Y-83175000D01*
G75*
G02*
X249305000Y-83112500I0J62500D01*
G01*
X249305000Y-82362500D01*
G75*
G02*
X249367500Y-82300000I62500J0D01*
G01*
X249492500Y-82300000D01*
G75*
G02*
X249555000Y-82362500I0J-62500D01*
G01*
X249555000Y-83112500D01*
G75*
G02*
X249492500Y-83175000I-62500J0D01*
G01*
G37*
G36*
G01*
X248992500Y-83175000D02*
X248867500Y-83175000D01*
G75*
G02*
X248805000Y-83112500I0J62500D01*
G01*
X248805000Y-82362500D01*
G75*
G02*
X248867500Y-82300000I62500J0D01*
G01*
X248992500Y-82300000D01*
G75*
G02*
X249055000Y-82362500I0J-62500D01*
G01*
X249055000Y-83112500D01*
G75*
G02*
X248992500Y-83175000I-62500J0D01*
G01*
G37*
G36*
G01*
X248492500Y-83175000D02*
X248367500Y-83175000D01*
G75*
G02*
X248305000Y-83112500I0J62500D01*
G01*
X248305000Y-82362500D01*
G75*
G02*
X248367500Y-82300000I62500J0D01*
G01*
X248492500Y-82300000D01*
G75*
G02*
X248555000Y-82362500I0J-62500D01*
G01*
X248555000Y-83112500D01*
G75*
G02*
X248492500Y-83175000I-62500J0D01*
G01*
G37*
G36*
G01*
X247992500Y-83175000D02*
X247867500Y-83175000D01*
G75*
G02*
X247805000Y-83112500I0J62500D01*
G01*
X247805000Y-82362500D01*
G75*
G02*
X247867500Y-82300000I62500J0D01*
G01*
X247992500Y-82300000D01*
G75*
G02*
X248055000Y-82362500I0J-62500D01*
G01*
X248055000Y-83112500D01*
G75*
G02*
X247992500Y-83175000I-62500J0D01*
G01*
G37*
G36*
G01*
X247492500Y-83175000D02*
X247367500Y-83175000D01*
G75*
G02*
X247305000Y-83112500I0J62500D01*
G01*
X247305000Y-82362500D01*
G75*
G02*
X247367500Y-82300000I62500J0D01*
G01*
X247492500Y-82300000D01*
G75*
G02*
X247555000Y-82362500I0J-62500D01*
G01*
X247555000Y-83112500D01*
G75*
G02*
X247492500Y-83175000I-62500J0D01*
G01*
G37*
G36*
G01*
X246992500Y-83175000D02*
X246867500Y-83175000D01*
G75*
G02*
X246805000Y-83112500I0J62500D01*
G01*
X246805000Y-82362500D01*
G75*
G02*
X246867500Y-82300000I62500J0D01*
G01*
X246992500Y-82300000D01*
G75*
G02*
X247055000Y-82362500I0J-62500D01*
G01*
X247055000Y-83112500D01*
G75*
G02*
X246992500Y-83175000I-62500J0D01*
G01*
G37*
G36*
G01*
X246492500Y-83175000D02*
X246367500Y-83175000D01*
G75*
G02*
X246305000Y-83112500I0J62500D01*
G01*
X246305000Y-82362500D01*
G75*
G02*
X246367500Y-82300000I62500J0D01*
G01*
X246492500Y-82300000D01*
G75*
G02*
X246555000Y-82362500I0J-62500D01*
G01*
X246555000Y-83112500D01*
G75*
G02*
X246492500Y-83175000I-62500J0D01*
G01*
G37*
G36*
G01*
X245992500Y-83175000D02*
X245867500Y-83175000D01*
G75*
G02*
X245805000Y-83112500I0J62500D01*
G01*
X245805000Y-82362500D01*
G75*
G02*
X245867500Y-82300000I62500J0D01*
G01*
X245992500Y-82300000D01*
G75*
G02*
X246055000Y-82362500I0J-62500D01*
G01*
X246055000Y-83112500D01*
G75*
G02*
X245992500Y-83175000I-62500J0D01*
G01*
G37*
G36*
G01*
X245617500Y-82175000D02*
X244867500Y-82175000D01*
G75*
G02*
X244805000Y-82112500I0J62500D01*
G01*
X244805000Y-81987500D01*
G75*
G02*
X244867500Y-81925000I62500J0D01*
G01*
X245617500Y-81925000D01*
G75*
G02*
X245680000Y-81987500I0J-62500D01*
G01*
X245680000Y-82112500D01*
G75*
G02*
X245617500Y-82175000I-62500J0D01*
G01*
G37*
G36*
G01*
X245617500Y-81675000D02*
X244867500Y-81675000D01*
G75*
G02*
X244805000Y-81612500I0J62500D01*
G01*
X244805000Y-81487500D01*
G75*
G02*
X244867500Y-81425000I62500J0D01*
G01*
X245617500Y-81425000D01*
G75*
G02*
X245680000Y-81487500I0J-62500D01*
G01*
X245680000Y-81612500D01*
G75*
G02*
X245617500Y-81675000I-62500J0D01*
G01*
G37*
G36*
G01*
X245617500Y-81175000D02*
X244867500Y-81175000D01*
G75*
G02*
X244805000Y-81112500I0J62500D01*
G01*
X244805000Y-80987500D01*
G75*
G02*
X244867500Y-80925000I62500J0D01*
G01*
X245617500Y-80925000D01*
G75*
G02*
X245680000Y-80987500I0J-62500D01*
G01*
X245680000Y-81112500D01*
G75*
G02*
X245617500Y-81175000I-62500J0D01*
G01*
G37*
G36*
G01*
X245617500Y-80675000D02*
X244867500Y-80675000D01*
G75*
G02*
X244805000Y-80612500I0J62500D01*
G01*
X244805000Y-80487500D01*
G75*
G02*
X244867500Y-80425000I62500J0D01*
G01*
X245617500Y-80425000D01*
G75*
G02*
X245680000Y-80487500I0J-62500D01*
G01*
X245680000Y-80612500D01*
G75*
G02*
X245617500Y-80675000I-62500J0D01*
G01*
G37*
G36*
G01*
X245617500Y-80175000D02*
X244867500Y-80175000D01*
G75*
G02*
X244805000Y-80112500I0J62500D01*
G01*
X244805000Y-79987500D01*
G75*
G02*
X244867500Y-79925000I62500J0D01*
G01*
X245617500Y-79925000D01*
G75*
G02*
X245680000Y-79987500I0J-62500D01*
G01*
X245680000Y-80112500D01*
G75*
G02*
X245617500Y-80175000I-62500J0D01*
G01*
G37*
G36*
G01*
X245617500Y-79675000D02*
X244867500Y-79675000D01*
G75*
G02*
X244805000Y-79612500I0J62500D01*
G01*
X244805000Y-79487500D01*
G75*
G02*
X244867500Y-79425000I62500J0D01*
G01*
X245617500Y-79425000D01*
G75*
G02*
X245680000Y-79487500I0J-62500D01*
G01*
X245680000Y-79612500D01*
G75*
G02*
X245617500Y-79675000I-62500J0D01*
G01*
G37*
G36*
G01*
X245617500Y-79175000D02*
X244867500Y-79175000D01*
G75*
G02*
X244805000Y-79112500I0J62500D01*
G01*
X244805000Y-78987500D01*
G75*
G02*
X244867500Y-78925000I62500J0D01*
G01*
X245617500Y-78925000D01*
G75*
G02*
X245680000Y-78987500I0J-62500D01*
G01*
X245680000Y-79112500D01*
G75*
G02*
X245617500Y-79175000I-62500J0D01*
G01*
G37*
G36*
G01*
X245617500Y-78675000D02*
X244867500Y-78675000D01*
G75*
G02*
X244805000Y-78612500I0J62500D01*
G01*
X244805000Y-78487500D01*
G75*
G02*
X244867500Y-78425000I62500J0D01*
G01*
X245617500Y-78425000D01*
G75*
G02*
X245680000Y-78487500I0J-62500D01*
G01*
X245680000Y-78612500D01*
G75*
G02*
X245617500Y-78675000I-62500J0D01*
G01*
G37*
G36*
G01*
X245992500Y-78300000D02*
X245867500Y-78300000D01*
G75*
G02*
X245805000Y-78237500I0J62500D01*
G01*
X245805000Y-77487500D01*
G75*
G02*
X245867500Y-77425000I62500J0D01*
G01*
X245992500Y-77425000D01*
G75*
G02*
X246055000Y-77487500I0J-62500D01*
G01*
X246055000Y-78237500D01*
G75*
G02*
X245992500Y-78300000I-62500J0D01*
G01*
G37*
G36*
G01*
X246492500Y-78300000D02*
X246367500Y-78300000D01*
G75*
G02*
X246305000Y-78237500I0J62500D01*
G01*
X246305000Y-77487500D01*
G75*
G02*
X246367500Y-77425000I62500J0D01*
G01*
X246492500Y-77425000D01*
G75*
G02*
X246555000Y-77487500I0J-62500D01*
G01*
X246555000Y-78237500D01*
G75*
G02*
X246492500Y-78300000I-62500J0D01*
G01*
G37*
G36*
G01*
X246992500Y-78300000D02*
X246867500Y-78300000D01*
G75*
G02*
X246805000Y-78237500I0J62500D01*
G01*
X246805000Y-77487500D01*
G75*
G02*
X246867500Y-77425000I62500J0D01*
G01*
X246992500Y-77425000D01*
G75*
G02*
X247055000Y-77487500I0J-62500D01*
G01*
X247055000Y-78237500D01*
G75*
G02*
X246992500Y-78300000I-62500J0D01*
G01*
G37*
G36*
G01*
X247492500Y-78300000D02*
X247367500Y-78300000D01*
G75*
G02*
X247305000Y-78237500I0J62500D01*
G01*
X247305000Y-77487500D01*
G75*
G02*
X247367500Y-77425000I62500J0D01*
G01*
X247492500Y-77425000D01*
G75*
G02*
X247555000Y-77487500I0J-62500D01*
G01*
X247555000Y-78237500D01*
G75*
G02*
X247492500Y-78300000I-62500J0D01*
G01*
G37*
G36*
G01*
X247992500Y-78300000D02*
X247867500Y-78300000D01*
G75*
G02*
X247805000Y-78237500I0J62500D01*
G01*
X247805000Y-77487500D01*
G75*
G02*
X247867500Y-77425000I62500J0D01*
G01*
X247992500Y-77425000D01*
G75*
G02*
X248055000Y-77487500I0J-62500D01*
G01*
X248055000Y-78237500D01*
G75*
G02*
X247992500Y-78300000I-62500J0D01*
G01*
G37*
G36*
G01*
X248492500Y-78300000D02*
X248367500Y-78300000D01*
G75*
G02*
X248305000Y-78237500I0J62500D01*
G01*
X248305000Y-77487500D01*
G75*
G02*
X248367500Y-77425000I62500J0D01*
G01*
X248492500Y-77425000D01*
G75*
G02*
X248555000Y-77487500I0J-62500D01*
G01*
X248555000Y-78237500D01*
G75*
G02*
X248492500Y-78300000I-62500J0D01*
G01*
G37*
G36*
G01*
X248992500Y-78300000D02*
X248867500Y-78300000D01*
G75*
G02*
X248805000Y-78237500I0J62500D01*
G01*
X248805000Y-77487500D01*
G75*
G02*
X248867500Y-77425000I62500J0D01*
G01*
X248992500Y-77425000D01*
G75*
G02*
X249055000Y-77487500I0J-62500D01*
G01*
X249055000Y-78237500D01*
G75*
G02*
X248992500Y-78300000I-62500J0D01*
G01*
G37*
G36*
G01*
X249492500Y-78300000D02*
X249367500Y-78300000D01*
G75*
G02*
X249305000Y-78237500I0J62500D01*
G01*
X249305000Y-77487500D01*
G75*
G02*
X249367500Y-77425000I62500J0D01*
G01*
X249492500Y-77425000D01*
G75*
G02*
X249555000Y-77487500I0J-62500D01*
G01*
X249555000Y-78237500D01*
G75*
G02*
X249492500Y-78300000I-62500J0D01*
G01*
G37*
G36*
G01*
X250492500Y-78675000D02*
X249742500Y-78675000D01*
G75*
G02*
X249680000Y-78612500I0J62500D01*
G01*
X249680000Y-78487500D01*
G75*
G02*
X249742500Y-78425000I62500J0D01*
G01*
X250492500Y-78425000D01*
G75*
G02*
X250555000Y-78487500I0J-62500D01*
G01*
X250555000Y-78612500D01*
G75*
G02*
X250492500Y-78675000I-62500J0D01*
G01*
G37*
G36*
G01*
X250492500Y-79175000D02*
X249742500Y-79175000D01*
G75*
G02*
X249680000Y-79112500I0J62500D01*
G01*
X249680000Y-78987500D01*
G75*
G02*
X249742500Y-78925000I62500J0D01*
G01*
X250492500Y-78925000D01*
G75*
G02*
X250555000Y-78987500I0J-62500D01*
G01*
X250555000Y-79112500D01*
G75*
G02*
X250492500Y-79175000I-62500J0D01*
G01*
G37*
G36*
G01*
X250492500Y-79675000D02*
X249742500Y-79675000D01*
G75*
G02*
X249680000Y-79612500I0J62500D01*
G01*
X249680000Y-79487500D01*
G75*
G02*
X249742500Y-79425000I62500J0D01*
G01*
X250492500Y-79425000D01*
G75*
G02*
X250555000Y-79487500I0J-62500D01*
G01*
X250555000Y-79612500D01*
G75*
G02*
X250492500Y-79675000I-62500J0D01*
G01*
G37*
G36*
G01*
X250492500Y-80175000D02*
X249742500Y-80175000D01*
G75*
G02*
X249680000Y-80112500I0J62500D01*
G01*
X249680000Y-79987500D01*
G75*
G02*
X249742500Y-79925000I62500J0D01*
G01*
X250492500Y-79925000D01*
G75*
G02*
X250555000Y-79987500I0J-62500D01*
G01*
X250555000Y-80112500D01*
G75*
G02*
X250492500Y-80175000I-62500J0D01*
G01*
G37*
G36*
G01*
X250492500Y-80675000D02*
X249742500Y-80675000D01*
G75*
G02*
X249680000Y-80612500I0J62500D01*
G01*
X249680000Y-80487500D01*
G75*
G02*
X249742500Y-80425000I62500J0D01*
G01*
X250492500Y-80425000D01*
G75*
G02*
X250555000Y-80487500I0J-62500D01*
G01*
X250555000Y-80612500D01*
G75*
G02*
X250492500Y-80675000I-62500J0D01*
G01*
G37*
G36*
G01*
X250492500Y-81175000D02*
X249742500Y-81175000D01*
G75*
G02*
X249680000Y-81112500I0J62500D01*
G01*
X249680000Y-80987500D01*
G75*
G02*
X249742500Y-80925000I62500J0D01*
G01*
X250492500Y-80925000D01*
G75*
G02*
X250555000Y-80987500I0J-62500D01*
G01*
X250555000Y-81112500D01*
G75*
G02*
X250492500Y-81175000I-62500J0D01*
G01*
G37*
G36*
G01*
X250492500Y-81675000D02*
X249742500Y-81675000D01*
G75*
G02*
X249680000Y-81612500I0J62500D01*
G01*
X249680000Y-81487500D01*
G75*
G02*
X249742500Y-81425000I62500J0D01*
G01*
X250492500Y-81425000D01*
G75*
G02*
X250555000Y-81487500I0J-62500D01*
G01*
X250555000Y-81612500D01*
G75*
G02*
X250492500Y-81675000I-62500J0D01*
G01*
G37*
G36*
G01*
X250492500Y-82175000D02*
X249742500Y-82175000D01*
G75*
G02*
X249680000Y-82112500I0J62500D01*
G01*
X249680000Y-81987500D01*
G75*
G02*
X249742500Y-81925000I62500J0D01*
G01*
X250492500Y-81925000D01*
G75*
G02*
X250555000Y-81987500I0J-62500D01*
G01*
X250555000Y-82112500D01*
G75*
G02*
X250492500Y-82175000I-62500J0D01*
G01*
G37*
G36*
G01*
X249062500Y-81915000D02*
X248597500Y-81915000D01*
G75*
G02*
X248365000Y-81682500I0J232500D01*
G01*
X248365000Y-81217500D01*
G75*
G02*
X248597500Y-80985000I232500J0D01*
G01*
X249062500Y-80985000D01*
G75*
G02*
X249295000Y-81217500I0J-232500D01*
G01*
X249295000Y-81682500D01*
G75*
G02*
X249062500Y-81915000I-232500J0D01*
G01*
G37*
G36*
G01*
X247912500Y-81915000D02*
X247447500Y-81915000D01*
G75*
G02*
X247215000Y-81682500I0J232500D01*
G01*
X247215000Y-81217500D01*
G75*
G02*
X247447500Y-80985000I232500J0D01*
G01*
X247912500Y-80985000D01*
G75*
G02*
X248145000Y-81217500I0J-232500D01*
G01*
X248145000Y-81682500D01*
G75*
G02*
X247912500Y-81915000I-232500J0D01*
G01*
G37*
G36*
G01*
X246762500Y-81915000D02*
X246297500Y-81915000D01*
G75*
G02*
X246065000Y-81682500I0J232500D01*
G01*
X246065000Y-81217500D01*
G75*
G02*
X246297500Y-80985000I232500J0D01*
G01*
X246762500Y-80985000D01*
G75*
G02*
X246995000Y-81217500I0J-232500D01*
G01*
X246995000Y-81682500D01*
G75*
G02*
X246762500Y-81915000I-232500J0D01*
G01*
G37*
G36*
G01*
X249062500Y-80765000D02*
X248597500Y-80765000D01*
G75*
G02*
X248365000Y-80532500I0J232500D01*
G01*
X248365000Y-80067500D01*
G75*
G02*
X248597500Y-79835000I232500J0D01*
G01*
X249062500Y-79835000D01*
G75*
G02*
X249295000Y-80067500I0J-232500D01*
G01*
X249295000Y-80532500D01*
G75*
G02*
X249062500Y-80765000I-232500J0D01*
G01*
G37*
G36*
G01*
X247912500Y-80765000D02*
X247447500Y-80765000D01*
G75*
G02*
X247215000Y-80532500I0J232500D01*
G01*
X247215000Y-80067500D01*
G75*
G02*
X247447500Y-79835000I232500J0D01*
G01*
X247912500Y-79835000D01*
G75*
G02*
X248145000Y-80067500I0J-232500D01*
G01*
X248145000Y-80532500D01*
G75*
G02*
X247912500Y-80765000I-232500J0D01*
G01*
G37*
G36*
G01*
X246762500Y-80765000D02*
X246297500Y-80765000D01*
G75*
G02*
X246065000Y-80532500I0J232500D01*
G01*
X246065000Y-80067500D01*
G75*
G02*
X246297500Y-79835000I232500J0D01*
G01*
X246762500Y-79835000D01*
G75*
G02*
X246995000Y-80067500I0J-232500D01*
G01*
X246995000Y-80532500D01*
G75*
G02*
X246762500Y-80765000I-232500J0D01*
G01*
G37*
G36*
G01*
X249062500Y-79615000D02*
X248597500Y-79615000D01*
G75*
G02*
X248365000Y-79382500I0J232500D01*
G01*
X248365000Y-78917500D01*
G75*
G02*
X248597500Y-78685000I232500J0D01*
G01*
X249062500Y-78685000D01*
G75*
G02*
X249295000Y-78917500I0J-232500D01*
G01*
X249295000Y-79382500D01*
G75*
G02*
X249062500Y-79615000I-232500J0D01*
G01*
G37*
G36*
G01*
X247912500Y-79615000D02*
X247447500Y-79615000D01*
G75*
G02*
X247215000Y-79382500I0J232500D01*
G01*
X247215000Y-78917500D01*
G75*
G02*
X247447500Y-78685000I232500J0D01*
G01*
X247912500Y-78685000D01*
G75*
G02*
X248145000Y-78917500I0J-232500D01*
G01*
X248145000Y-79382500D01*
G75*
G02*
X247912500Y-79615000I-232500J0D01*
G01*
G37*
G36*
G01*
X246762500Y-79615000D02*
X246297500Y-79615000D01*
G75*
G02*
X246065000Y-79382500I0J232500D01*
G01*
X246065000Y-78917500D01*
G75*
G02*
X246297500Y-78685000I232500J0D01*
G01*
X246762500Y-78685000D01*
G75*
G02*
X246995000Y-78917500I0J-232500D01*
G01*
X246995000Y-79382500D01*
G75*
G02*
X246762500Y-79615000I-232500J0D01*
G01*
G37*
%TD*%
%TO.C,U1*%
G36*
G01*
X242755000Y-75627500D02*
X242755000Y-75752500D01*
G75*
G02*
X242692500Y-75815000I-62500J0D01*
G01*
X241992500Y-75815000D01*
G75*
G02*
X241930000Y-75752500I0J62500D01*
G01*
X241930000Y-75627500D01*
G75*
G02*
X241992500Y-75565000I62500J0D01*
G01*
X242692500Y-75565000D01*
G75*
G02*
X242755000Y-75627500I0J-62500D01*
G01*
G37*
G36*
G01*
X242755000Y-76127500D02*
X242755000Y-76252500D01*
G75*
G02*
X242692500Y-76315000I-62500J0D01*
G01*
X241992500Y-76315000D01*
G75*
G02*
X241930000Y-76252500I0J62500D01*
G01*
X241930000Y-76127500D01*
G75*
G02*
X241992500Y-76065000I62500J0D01*
G01*
X242692500Y-76065000D01*
G75*
G02*
X242755000Y-76127500I0J-62500D01*
G01*
G37*
G36*
G01*
X242755000Y-76627500D02*
X242755000Y-76752500D01*
G75*
G02*
X242692500Y-76815000I-62500J0D01*
G01*
X241992500Y-76815000D01*
G75*
G02*
X241930000Y-76752500I0J62500D01*
G01*
X241930000Y-76627500D01*
G75*
G02*
X241992500Y-76565000I62500J0D01*
G01*
X242692500Y-76565000D01*
G75*
G02*
X242755000Y-76627500I0J-62500D01*
G01*
G37*
G36*
G01*
X242755000Y-77127500D02*
X242755000Y-77252500D01*
G75*
G02*
X242692500Y-77315000I-62500J0D01*
G01*
X241992500Y-77315000D01*
G75*
G02*
X241930000Y-77252500I0J62500D01*
G01*
X241930000Y-77127500D01*
G75*
G02*
X241992500Y-77065000I62500J0D01*
G01*
X242692500Y-77065000D01*
G75*
G02*
X242755000Y-77127500I0J-62500D01*
G01*
G37*
G36*
G01*
X242755000Y-77627500D02*
X242755000Y-77752500D01*
G75*
G02*
X242692500Y-77815000I-62500J0D01*
G01*
X241992500Y-77815000D01*
G75*
G02*
X241930000Y-77752500I0J62500D01*
G01*
X241930000Y-77627500D01*
G75*
G02*
X241992500Y-77565000I62500J0D01*
G01*
X242692500Y-77565000D01*
G75*
G02*
X242755000Y-77627500I0J-62500D01*
G01*
G37*
G36*
G01*
X242755000Y-78127500D02*
X242755000Y-78252500D01*
G75*
G02*
X242692500Y-78315000I-62500J0D01*
G01*
X241992500Y-78315000D01*
G75*
G02*
X241930000Y-78252500I0J62500D01*
G01*
X241930000Y-78127500D01*
G75*
G02*
X241992500Y-78065000I62500J0D01*
G01*
X242692500Y-78065000D01*
G75*
G02*
X242755000Y-78127500I0J-62500D01*
G01*
G37*
G36*
G01*
X241755000Y-78552500D02*
X241755000Y-79252500D01*
G75*
G02*
X241692500Y-79315000I-62500J0D01*
G01*
X241567500Y-79315000D01*
G75*
G02*
X241505000Y-79252500I0J62500D01*
G01*
X241505000Y-78552500D01*
G75*
G02*
X241567500Y-78490000I62500J0D01*
G01*
X241692500Y-78490000D01*
G75*
G02*
X241755000Y-78552500I0J-62500D01*
G01*
G37*
G36*
G01*
X241255000Y-78552500D02*
X241255000Y-79252500D01*
G75*
G02*
X241192500Y-79315000I-62500J0D01*
G01*
X241067500Y-79315000D01*
G75*
G02*
X241005000Y-79252500I0J62500D01*
G01*
X241005000Y-78552500D01*
G75*
G02*
X241067500Y-78490000I62500J0D01*
G01*
X241192500Y-78490000D01*
G75*
G02*
X241255000Y-78552500I0J-62500D01*
G01*
G37*
G36*
G01*
X240755000Y-78552500D02*
X240755000Y-79252500D01*
G75*
G02*
X240692500Y-79315000I-62500J0D01*
G01*
X240567500Y-79315000D01*
G75*
G02*
X240505000Y-79252500I0J62500D01*
G01*
X240505000Y-78552500D01*
G75*
G02*
X240567500Y-78490000I62500J0D01*
G01*
X240692500Y-78490000D01*
G75*
G02*
X240755000Y-78552500I0J-62500D01*
G01*
G37*
G36*
G01*
X240255000Y-78552500D02*
X240255000Y-79252500D01*
G75*
G02*
X240192500Y-79315000I-62500J0D01*
G01*
X240067500Y-79315000D01*
G75*
G02*
X240005000Y-79252500I0J62500D01*
G01*
X240005000Y-78552500D01*
G75*
G02*
X240067500Y-78490000I62500J0D01*
G01*
X240192500Y-78490000D01*
G75*
G02*
X240255000Y-78552500I0J-62500D01*
G01*
G37*
G36*
G01*
X239755000Y-78552500D02*
X239755000Y-79252500D01*
G75*
G02*
X239692500Y-79315000I-62500J0D01*
G01*
X239567500Y-79315000D01*
G75*
G02*
X239505000Y-79252500I0J62500D01*
G01*
X239505000Y-78552500D01*
G75*
G02*
X239567500Y-78490000I62500J0D01*
G01*
X239692500Y-78490000D01*
G75*
G02*
X239755000Y-78552500I0J-62500D01*
G01*
G37*
G36*
G01*
X239255000Y-78552500D02*
X239255000Y-79252500D01*
G75*
G02*
X239192500Y-79315000I-62500J0D01*
G01*
X239067500Y-79315000D01*
G75*
G02*
X239005000Y-79252500I0J62500D01*
G01*
X239005000Y-78552500D01*
G75*
G02*
X239067500Y-78490000I62500J0D01*
G01*
X239192500Y-78490000D01*
G75*
G02*
X239255000Y-78552500I0J-62500D01*
G01*
G37*
G36*
G01*
X238830000Y-78127500D02*
X238830000Y-78252500D01*
G75*
G02*
X238767500Y-78315000I-62500J0D01*
G01*
X238067500Y-78315000D01*
G75*
G02*
X238005000Y-78252500I0J62500D01*
G01*
X238005000Y-78127500D01*
G75*
G02*
X238067500Y-78065000I62500J0D01*
G01*
X238767500Y-78065000D01*
G75*
G02*
X238830000Y-78127500I0J-62500D01*
G01*
G37*
G36*
G01*
X238830000Y-77627500D02*
X238830000Y-77752500D01*
G75*
G02*
X238767500Y-77815000I-62500J0D01*
G01*
X238067500Y-77815000D01*
G75*
G02*
X238005000Y-77752500I0J62500D01*
G01*
X238005000Y-77627500D01*
G75*
G02*
X238067500Y-77565000I62500J0D01*
G01*
X238767500Y-77565000D01*
G75*
G02*
X238830000Y-77627500I0J-62500D01*
G01*
G37*
G36*
G01*
X238830000Y-77127500D02*
X238830000Y-77252500D01*
G75*
G02*
X238767500Y-77315000I-62500J0D01*
G01*
X238067500Y-77315000D01*
G75*
G02*
X238005000Y-77252500I0J62500D01*
G01*
X238005000Y-77127500D01*
G75*
G02*
X238067500Y-77065000I62500J0D01*
G01*
X238767500Y-77065000D01*
G75*
G02*
X238830000Y-77127500I0J-62500D01*
G01*
G37*
G36*
G01*
X238830000Y-76627500D02*
X238830000Y-76752500D01*
G75*
G02*
X238767500Y-76815000I-62500J0D01*
G01*
X238067500Y-76815000D01*
G75*
G02*
X238005000Y-76752500I0J62500D01*
G01*
X238005000Y-76627500D01*
G75*
G02*
X238067500Y-76565000I62500J0D01*
G01*
X238767500Y-76565000D01*
G75*
G02*
X238830000Y-76627500I0J-62500D01*
G01*
G37*
G36*
G01*
X238830000Y-76127500D02*
X238830000Y-76252500D01*
G75*
G02*
X238767500Y-76315000I-62500J0D01*
G01*
X238067500Y-76315000D01*
G75*
G02*
X238005000Y-76252500I0J62500D01*
G01*
X238005000Y-76127500D01*
G75*
G02*
X238067500Y-76065000I62500J0D01*
G01*
X238767500Y-76065000D01*
G75*
G02*
X238830000Y-76127500I0J-62500D01*
G01*
G37*
G36*
G01*
X238830000Y-75627500D02*
X238830000Y-75752500D01*
G75*
G02*
X238767500Y-75815000I-62500J0D01*
G01*
X238067500Y-75815000D01*
G75*
G02*
X238005000Y-75752500I0J62500D01*
G01*
X238005000Y-75627500D01*
G75*
G02*
X238067500Y-75565000I62500J0D01*
G01*
X238767500Y-75565000D01*
G75*
G02*
X238830000Y-75627500I0J-62500D01*
G01*
G37*
G36*
G01*
X239255000Y-74627500D02*
X239255000Y-75327500D01*
G75*
G02*
X239192500Y-75390000I-62500J0D01*
G01*
X239067500Y-75390000D01*
G75*
G02*
X239005000Y-75327500I0J62500D01*
G01*
X239005000Y-74627500D01*
G75*
G02*
X239067500Y-74565000I62500J0D01*
G01*
X239192500Y-74565000D01*
G75*
G02*
X239255000Y-74627500I0J-62500D01*
G01*
G37*
G36*
G01*
X239755000Y-74627500D02*
X239755000Y-75327500D01*
G75*
G02*
X239692500Y-75390000I-62500J0D01*
G01*
X239567500Y-75390000D01*
G75*
G02*
X239505000Y-75327500I0J62500D01*
G01*
X239505000Y-74627500D01*
G75*
G02*
X239567500Y-74565000I62500J0D01*
G01*
X239692500Y-74565000D01*
G75*
G02*
X239755000Y-74627500I0J-62500D01*
G01*
G37*
G36*
G01*
X240255000Y-74627500D02*
X240255000Y-75327500D01*
G75*
G02*
X240192500Y-75390000I-62500J0D01*
G01*
X240067500Y-75390000D01*
G75*
G02*
X240005000Y-75327500I0J62500D01*
G01*
X240005000Y-74627500D01*
G75*
G02*
X240067500Y-74565000I62500J0D01*
G01*
X240192500Y-74565000D01*
G75*
G02*
X240255000Y-74627500I0J-62500D01*
G01*
G37*
G36*
G01*
X240755000Y-74627500D02*
X240755000Y-75327500D01*
G75*
G02*
X240692500Y-75390000I-62500J0D01*
G01*
X240567500Y-75390000D01*
G75*
G02*
X240505000Y-75327500I0J62500D01*
G01*
X240505000Y-74627500D01*
G75*
G02*
X240567500Y-74565000I62500J0D01*
G01*
X240692500Y-74565000D01*
G75*
G02*
X240755000Y-74627500I0J-62500D01*
G01*
G37*
G36*
G01*
X241255000Y-74627500D02*
X241255000Y-75327500D01*
G75*
G02*
X241192500Y-75390000I-62500J0D01*
G01*
X241067500Y-75390000D01*
G75*
G02*
X241005000Y-75327500I0J62500D01*
G01*
X241005000Y-74627500D01*
G75*
G02*
X241067500Y-74565000I62500J0D01*
G01*
X241192500Y-74565000D01*
G75*
G02*
X241255000Y-74627500I0J-62500D01*
G01*
G37*
G36*
G01*
X241755000Y-74627500D02*
X241755000Y-75327500D01*
G75*
G02*
X241692500Y-75390000I-62500J0D01*
G01*
X241567500Y-75390000D01*
G75*
G02*
X241505000Y-75327500I0J62500D01*
G01*
X241505000Y-74627500D01*
G75*
G02*
X241567500Y-74565000I62500J0D01*
G01*
X241692500Y-74565000D01*
G75*
G02*
X241755000Y-74627500I0J-62500D01*
G01*
G37*
G36*
G01*
X241600000Y-75970000D02*
X241600000Y-76560000D01*
G75*
G02*
X241350000Y-76810000I-250000J0D01*
G01*
X240760000Y-76810000D01*
G75*
G02*
X240510000Y-76560000I0J250000D01*
G01*
X240510000Y-75970000D01*
G75*
G02*
X240760000Y-75720000I250000J0D01*
G01*
X241350000Y-75720000D01*
G75*
G02*
X241600000Y-75970000I0J-250000D01*
G01*
G37*
G36*
G01*
X241600000Y-77320000D02*
X241600000Y-77910000D01*
G75*
G02*
X241350000Y-78160000I-250000J0D01*
G01*
X240760000Y-78160000D01*
G75*
G02*
X240510000Y-77910000I0J250000D01*
G01*
X240510000Y-77320000D01*
G75*
G02*
X240760000Y-77070000I250000J0D01*
G01*
X241350000Y-77070000D01*
G75*
G02*
X241600000Y-77320000I0J-250000D01*
G01*
G37*
G36*
G01*
X240250000Y-75970000D02*
X240250000Y-76560000D01*
G75*
G02*
X240000000Y-76810000I-250000J0D01*
G01*
X239410000Y-76810000D01*
G75*
G02*
X239160000Y-76560000I0J250000D01*
G01*
X239160000Y-75970000D01*
G75*
G02*
X239410000Y-75720000I250000J0D01*
G01*
X240000000Y-75720000D01*
G75*
G02*
X240250000Y-75970000I0J-250000D01*
G01*
G37*
G36*
G01*
X240250000Y-77320000D02*
X240250000Y-77910000D01*
G75*
G02*
X240000000Y-78160000I-250000J0D01*
G01*
X239410000Y-78160000D01*
G75*
G02*
X239160000Y-77910000I0J250000D01*
G01*
X239160000Y-77320000D01*
G75*
G02*
X239410000Y-77070000I250000J0D01*
G01*
X240000000Y-77070000D01*
G75*
G02*
X240250000Y-77320000I0J-250000D01*
G01*
G37*
%TD*%
M02*
