M48
; DRILL file {KiCad (5.1.6-0-10_14)} date Sunday, March 14, 2021 at 03:44:54 PM
; FORMAT={-:-/ absolute / inch / decimal}
; #@! TF.CreationDate,2021-03-14T15:44:54-04:00
; #@! TF.GenerationSoftware,Kicad,Pcbnew,(5.1.6-0-10_14)
FMAT,2
INCH
T1C0.0100
T2C0.0394
%
G90
G05
T1
X8.6575Y-3.0197
X8.6811Y-2.815
X8.6811Y-2.8445
X8.6811Y-2.874
X8.6811Y-2.9035
X8.6811Y-2.9331
X8.6811Y-3.0118
X8.6811Y-3.0906
X8.6811Y-3.1201
X8.6811Y-3.1496
X8.6811Y-3.1791
X8.6811Y-3.2087
X8.6811Y-3.3661
X8.6811Y-3.3957
X8.6811Y-3.4252
X8.6811Y-3.4547
X8.6811Y-3.4843
X8.7047Y-3.0039
X8.7106Y-2.815
X8.7106Y-2.8445
X8.7106Y-2.874
X8.7106Y-2.9035
X8.7106Y-2.9331
X8.7106Y-3.0906
X8.7106Y-3.1201
X8.7106Y-3.1496
X8.7106Y-3.1791
X8.7106Y-3.2087
X8.7106Y-3.3661
X8.7106Y-3.3957
X8.7106Y-3.4252
X8.7106Y-3.4547
X8.7106Y-3.4843
X8.7283Y-3.0118
X8.7402Y-2.815
X8.7402Y-2.8445
X8.7402Y-2.9035
X8.7402Y-2.9331
X8.7402Y-3.0906
X8.7402Y-3.1201
X8.7402Y-3.1791
X8.7402Y-3.2087
X8.7402Y-3.3661
X8.7402Y-3.3957
X8.7402Y-3.4547
X8.7402Y-3.4843
X8.752Y-3.0197
X8.7697Y-2.815
X8.7697Y-2.8445
X8.7697Y-2.874
X8.7697Y-2.9035
X8.7697Y-2.9331
X8.7697Y-3.0906
X8.7697Y-3.1201
X8.7697Y-3.1496
X8.7697Y-3.1791
X8.7697Y-3.2087
X8.7697Y-3.3661
X8.7697Y-3.3957
X8.7697Y-3.4252
X8.7697Y-3.4547
X8.7697Y-3.4843
X8.7756Y-3.0118
X8.7992Y-2.815
X8.7992Y-2.8445
X8.7992Y-2.874
X8.7992Y-2.9035
X8.7992Y-2.9331
X8.7992Y-3.0039
X8.7992Y-3.0906
X8.7992Y-3.1201
X8.7992Y-3.1496
X8.7992Y-3.1791
X8.7992Y-3.2087
X8.7992Y-3.3661
X8.7992Y-3.3957
X8.7992Y-3.4252
X8.7992Y-3.4547
X8.7992Y-3.4843
X8.8228Y-3.0118
X8.8465Y-3.0197
X8.8701Y-3.0118
X8.8799Y-3.2998
X8.8878Y-2.788
X8.8937Y-3.0197
X8.9173Y-3.0118
X8.9307Y-3.0431
X8.9334Y-3.2972
X8.9409Y-3.0197
X8.9591Y-3.2965
X8.965Y-3.0043
X8.9728Y-3.2748
X8.978Y-3.0276
X8.9882Y-3.2969
X8.9925Y-3.0055
X8.9988Y-3.2657
X9.0059Y-3.0291
X9.011Y-3.2866
X9.0236Y-3.0035
X9.0343Y-3.2972
X9.0362Y-2.7872
X9.0382Y-3.0307
X9.0512Y-3.0059
X9.0654Y-3.0406
X9.0748Y-3.0224
X9.0874Y-3.0409
X9.0984Y-3.0
X9.0984Y-3.0217
X9.1075Y-3.2669
X9.1102Y-3.0433
X9.122Y-3.0
X9.122Y-3.0236
X9.135Y-3.2999
X9.1444Y-3.1493
X9.1457Y-3.0
X9.1458Y-2.9434
X9.1469Y-2.8687
X9.148Y-3.2059
X9.1496Y-3.2311
X9.1504Y-3.126
X9.178Y-3.3266
X9.2032Y-3.0915
X9.2046Y-2.9558
X9.2225Y-3.2379
X9.2689Y-3.0768
X9.2807Y-2.8276
X9.2905Y-3.2032
X9.3072Y-3.272
X9.3244Y-3.1551
X9.3287Y-2.8476
X9.3386Y-2.922
X9.3484Y-2.8472
X9.3551Y-3.3291
X9.3551Y-3.3512
X9.3562Y-3.3737
X9.3681Y-2.8472
X9.3852Y-3.1277
X9.3862Y-3.2682
X9.4175Y-3.2756
X9.4319Y-2.989
X9.4319Y-3.0126
X9.4319Y-3.0362
X9.4346Y-3.3986
X9.439Y-3.2654
X9.4555Y-2.989
X9.4555Y-3.0126
X9.4555Y-3.0362
X9.459Y-3.2366
X9.4677Y-2.8134
X9.4787Y-3.1657
X9.4791Y-2.989
X9.4791Y-3.0126
X9.4791Y-3.0362
X9.485Y-3.3986
X9.4917Y-3.4701
X9.498Y-3.1398
X9.5028Y-2.989
X9.5028Y-3.0126
X9.5028Y-3.0362
X9.5335Y-3.1421
X9.5669Y-3.4351
X9.578Y-3.1386
X9.6165Y-3.2691
X9.6484Y-3.2677
X9.652Y-3.0457
X9.6539Y-3.4685
X9.6606Y-2.9941
X9.6654Y-3.5236
X9.6675Y-3.2846
X9.685Y-3.5236
X9.6917Y-3.2886
X9.7039Y-3.1378
X9.7039Y-3.1614
X9.7039Y-3.185
X9.7047Y-3.5236
X9.7244Y-3.5236
X9.7276Y-3.1378
X9.7276Y-3.1614
X9.7276Y-3.185
X9.7441Y-3.5236
X9.7512Y-3.1378
X9.7512Y-3.1614
X9.7512Y-3.185
X9.7638Y-3.5236
X9.7697Y-3.4575
X9.7748Y-3.1378
X9.7748Y-3.1614
X9.7748Y-3.185
X9.787Y-3.3965
X9.7933Y-3.4488
X9.7933Y-3.5236
X9.7984Y-3.1378
X9.7984Y-3.1614
X9.7984Y-3.185
X9.813Y-3.4488
X9.813Y-3.5236
X9.8327Y-3.4488
X9.8327Y-3.5236
X9.8402Y-3.4224
X9.8524Y-3.4488
X9.8524Y-3.5236
X9.8622Y-3.0669
X9.8673Y-3.3283
X9.872Y-3.5236
X9.8731Y-3.1665
X9.8791Y-3.4264
X9.8819Y-3.0669
X9.8819Y-3.0866
X9.8819Y-3.1063
X9.8876Y-3.1843
X9.8917Y-3.5236
X9.9016Y-3.0866
X9.9016Y-3.1063
X9.9016Y-3.126
X9.9031Y-3.2748
X9.9114Y-3.5236
X9.9213Y-3.0866
X9.9213Y-3.1063
X9.9213Y-3.126
X9.9213Y-3.1457
X9.9392Y-3.2413
X9.9409Y-2.8346
X9.9409Y-2.8642
X9.9409Y-2.8937
X9.9409Y-2.9232
X9.9409Y-2.9528
X9.9409Y-2.9823
X9.9409Y-3.0118
X9.9409Y-3.0906
X9.9409Y-3.1102
X9.9409Y-3.1299
X9.9409Y-3.1496
X9.9409Y-3.1693
X9.9409Y-3.189
X9.9409Y-3.2087
X9.9409Y-3.2874
X9.9409Y-3.3169
X9.9409Y-3.3465
X9.9409Y-3.376
X9.9409Y-3.4055
X9.9409Y-3.435
X9.9409Y-3.4646
X9.9606Y-3.0906
X9.9606Y-3.1102
X9.9606Y-3.1299
X9.9606Y-3.1496
X9.9606Y-3.1693
X9.9606Y-3.189
X9.9606Y-3.2087
X9.9705Y-2.8346
X9.9705Y-2.8642
X9.9705Y-2.8937
X9.9705Y-2.9232
X9.9705Y-2.9528
X9.9705Y-2.9823
X9.9705Y-3.0118
X9.9705Y-3.2874
X9.9705Y-3.3169
X9.9705Y-3.3465
X9.9705Y-3.376
X9.9705Y-3.4055
X9.9705Y-3.435
X9.9705Y-3.4646
X9.9803Y-3.0906
X9.9803Y-3.1102
X9.9803Y-3.1299
X9.9803Y-3.1496
X9.9803Y-3.1693
X9.9803Y-3.189
X9.9803Y-3.2087
X10.0Y-2.8051
X10.0Y-2.8346
X10.0Y-2.8642
X10.0Y-2.8937
X10.0Y-2.9232
X10.0Y-2.9528
X10.0Y-2.9823
X10.0Y-3.0118
X10.0Y-3.0413
X10.0Y-3.0906
X10.0Y-3.1102
X10.0Y-3.1299
X10.0Y-3.1496
X10.0Y-3.1693
X10.0Y-3.189
X10.0Y-3.2087
X10.0Y-3.2579
X10.0Y-3.2874
X10.0Y-3.3169
X10.0Y-3.3465
X10.0Y-3.376
X10.0Y-3.4055
X10.0Y-3.435
X10.0Y-3.4646
X10.0Y-3.4941
X10.0197Y-3.0906
X10.0197Y-3.1102
X10.0197Y-3.1299
X10.0197Y-3.1496
X10.0197Y-3.1693
X10.0197Y-3.189
X10.0197Y-3.2087
X10.0295Y-2.8051
X10.0295Y-2.8346
X10.0295Y-2.8642
X10.0295Y-2.8937
X10.0295Y-2.9232
X10.0295Y-2.9528
X10.0295Y-2.9823
X10.0295Y-3.0118
X10.0295Y-3.0413
X10.0295Y-3.2579
X10.0295Y-3.2874
X10.0295Y-3.3169
X10.0295Y-3.3465
X10.0295Y-3.376
X10.0295Y-3.4055
X10.0295Y-3.435
X10.0295Y-3.4646
X10.0295Y-3.4941
X10.0394Y-3.0906
X10.0394Y-3.1102
X10.0394Y-3.1299
X10.0394Y-3.1496
X10.0394Y-3.1693
X10.0394Y-3.189
X10.0394Y-3.2087
X10.0591Y-2.8051
X10.0591Y-2.8346
X10.0591Y-2.8642
X10.0591Y-2.8937
X10.0591Y-2.9528
X10.0591Y-2.9823
X10.0591Y-3.0118
X10.0591Y-3.0413
X10.0591Y-3.2579
X10.0591Y-3.2874
X10.0591Y-3.3169
X10.0591Y-3.3465
X10.0591Y-3.4055
X10.0591Y-3.435
X10.0591Y-3.4646
X10.0591Y-3.4941
X10.0886Y-2.8051
X10.0886Y-2.8346
X10.0886Y-2.8642
X10.0886Y-2.8937
X10.0886Y-2.9232
X10.0886Y-2.9528
X10.0886Y-2.9823
X10.0886Y-3.0118
X10.0886Y-3.0413
X10.0886Y-3.2579
X10.0886Y-3.2874
X10.0886Y-3.3169
X10.0886Y-3.3465
X10.0886Y-3.376
X10.0886Y-3.4055
X10.0886Y-3.435
X10.0886Y-3.4646
X10.0886Y-3.4941
X10.1181Y-2.8051
X10.1181Y-2.8346
X10.1181Y-2.8642
X10.1181Y-2.8937
X10.1181Y-2.9232
X10.1181Y-2.9528
X10.1181Y-2.9823
X10.1181Y-3.0118
X10.1181Y-3.0413
X10.1181Y-3.2579
X10.1181Y-3.2874
X10.1181Y-3.3169
X10.1181Y-3.3465
X10.1181Y-3.376
X10.1181Y-3.4055
X10.1181Y-3.435
X10.1181Y-3.4646
X10.1181Y-3.4941
X10.1476Y-2.8346
X10.1476Y-2.8642
X10.1476Y-2.8937
X10.1476Y-2.9232
X10.1476Y-2.9528
X10.1476Y-2.9823
X10.1476Y-3.0118
X10.1476Y-3.2874
X10.1476Y-3.3169
X10.1476Y-3.3465
X10.1476Y-3.376
X10.1476Y-3.4055
X10.1476Y-3.435
X10.1476Y-3.4646
X10.1772Y-2.8346
X10.1772Y-2.8642
X10.1772Y-2.8937
X10.1772Y-2.9232
X10.1772Y-2.9528
X10.1772Y-2.9823
X10.1772Y-3.0118
X10.1772Y-3.2874
X10.1772Y-3.3169
X10.1772Y-3.3465
X10.1772Y-3.376
X10.1772Y-3.4055
X10.1772Y-3.435
X10.1772Y-3.4646
X10.0591Y-2.9232
X10.0591Y-3.376
X8.7402Y-2.874
X8.7402Y-3.1496
X8.7402Y-3.4252
T2
X9.5272Y-2.8268
X9.6272Y-2.8268
X9.7272Y-2.8268
X9.8272Y-2.8268
X9.2154Y-3.3724
X9.2154Y-3.4724
X9.8272Y-2.9701
T0
M30
