%TF.GenerationSoftware,KiCad,Pcbnew,(5.1.6-0-10_14)*%
%TF.CreationDate,2021-03-14T15:43:45-04:00*%
%TF.ProjectId,F051_ESC,46303531-5f45-4534-932e-6b696361645f,rev?*%
%TF.SameCoordinates,Original*%
%TF.FileFunction,Legend,Bot*%
%TF.FilePolarity,Positive*%
%FSLAX46Y46*%
G04 Gerber Fmt 4.6, Leading zero omitted, Abs format (unit mm)*
G04 Created by KiCad (PCBNEW (5.1.6-0-10_14)) date 2021-03-14 15:43:45*
%MOMM*%
%LPD*%
G01*
G04 APERTURE LIST*
%ADD10C,0.125000*%
%ADD11C,0.375000*%
%ADD12C,0.120000*%
%ADD13C,0.200000*%
%ADD14C,0.127000*%
G04 APERTURE END LIST*
D10*
X248738571Y-76983809D02*
X248738571Y-77483809D01*
X249024285Y-76983809D01*
X249024285Y-77483809D01*
X249548095Y-76983809D02*
X249381428Y-77221904D01*
X249262380Y-76983809D02*
X249262380Y-77483809D01*
X249452857Y-77483809D01*
X249500476Y-77460000D01*
X249524285Y-77436190D01*
X249548095Y-77388571D01*
X249548095Y-77317142D01*
X249524285Y-77269523D01*
X249500476Y-77245714D01*
X249452857Y-77221904D01*
X249262380Y-77221904D01*
X249738571Y-77007619D02*
X249810000Y-76983809D01*
X249929047Y-76983809D01*
X249976666Y-77007619D01*
X250000476Y-77031428D01*
X250024285Y-77079047D01*
X250024285Y-77126666D01*
X250000476Y-77174285D01*
X249976666Y-77198095D01*
X249929047Y-77221904D01*
X249833809Y-77245714D01*
X249786190Y-77269523D01*
X249762380Y-77293333D01*
X249738571Y-77340952D01*
X249738571Y-77388571D01*
X249762380Y-77436190D01*
X249786190Y-77460000D01*
X249833809Y-77483809D01*
X249952857Y-77483809D01*
X250024285Y-77460000D01*
X250167142Y-77483809D02*
X250452857Y-77483809D01*
X250310000Y-76983809D02*
X250310000Y-77483809D01*
X248940952Y-73843809D02*
X249250476Y-73843809D01*
X249083809Y-73653333D01*
X249155238Y-73653333D01*
X249202857Y-73629523D01*
X249226666Y-73605714D01*
X249250476Y-73558095D01*
X249250476Y-73439047D01*
X249226666Y-73391428D01*
X249202857Y-73367619D01*
X249155238Y-73343809D01*
X249012380Y-73343809D01*
X248964761Y-73367619D01*
X248940952Y-73391428D01*
X249393333Y-73843809D02*
X249560000Y-73343809D01*
X249726666Y-73843809D01*
X249845714Y-73843809D02*
X250155238Y-73843809D01*
X249988571Y-73653333D01*
X250060000Y-73653333D01*
X250107619Y-73629523D01*
X250131428Y-73605714D01*
X250155238Y-73558095D01*
X250155238Y-73439047D01*
X250131428Y-73391428D01*
X250107619Y-73367619D01*
X250060000Y-73343809D01*
X249917142Y-73343809D01*
X249869523Y-73367619D01*
X249845714Y-73391428D01*
X246689047Y-73820000D02*
X246641428Y-73843809D01*
X246570000Y-73843809D01*
X246498571Y-73820000D01*
X246450952Y-73772380D01*
X246427142Y-73724761D01*
X246403333Y-73629523D01*
X246403333Y-73558095D01*
X246427142Y-73462857D01*
X246450952Y-73415238D01*
X246498571Y-73367619D01*
X246570000Y-73343809D01*
X246617619Y-73343809D01*
X246689047Y-73367619D01*
X246712857Y-73391428D01*
X246712857Y-73558095D01*
X246617619Y-73558095D01*
X246927142Y-73343809D02*
X246927142Y-73843809D01*
X247212857Y-73343809D01*
X247212857Y-73843809D01*
X247450952Y-73343809D02*
X247450952Y-73843809D01*
X247570000Y-73843809D01*
X247641428Y-73820000D01*
X247689047Y-73772380D01*
X247712857Y-73724761D01*
X247736666Y-73629523D01*
X247736666Y-73558095D01*
X247712857Y-73462857D01*
X247689047Y-73415238D01*
X247641428Y-73367619D01*
X247570000Y-73343809D01*
X247450952Y-73343809D01*
X243459047Y-73367619D02*
X243530476Y-73343809D01*
X243649523Y-73343809D01*
X243697142Y-73367619D01*
X243720952Y-73391428D01*
X243744761Y-73439047D01*
X243744761Y-73486666D01*
X243720952Y-73534285D01*
X243697142Y-73558095D01*
X243649523Y-73581904D01*
X243554285Y-73605714D01*
X243506666Y-73629523D01*
X243482857Y-73653333D01*
X243459047Y-73700952D01*
X243459047Y-73748571D01*
X243482857Y-73796190D01*
X243506666Y-73820000D01*
X243554285Y-73843809D01*
X243673333Y-73843809D01*
X243744761Y-73820000D01*
X243911428Y-73843809D02*
X244030476Y-73343809D01*
X244125714Y-73700952D01*
X244220952Y-73343809D01*
X244340000Y-73843809D01*
X244816190Y-73391428D02*
X244792380Y-73367619D01*
X244720952Y-73343809D01*
X244673333Y-73343809D01*
X244601904Y-73367619D01*
X244554285Y-73415238D01*
X244530476Y-73462857D01*
X244506666Y-73558095D01*
X244506666Y-73629523D01*
X244530476Y-73724761D01*
X244554285Y-73772380D01*
X244601904Y-73820000D01*
X244673333Y-73843809D01*
X244720952Y-73843809D01*
X244792380Y-73820000D01*
X244816190Y-73796190D01*
X245268571Y-73343809D02*
X245030476Y-73343809D01*
X245030476Y-73843809D01*
X245435238Y-73343809D02*
X245435238Y-73843809D01*
X245720952Y-73343809D02*
X245506666Y-73629523D01*
X245720952Y-73843809D02*
X245435238Y-73558095D01*
X240930476Y-73367619D02*
X241001904Y-73343809D01*
X241120952Y-73343809D01*
X241168571Y-73367619D01*
X241192380Y-73391428D01*
X241216190Y-73439047D01*
X241216190Y-73486666D01*
X241192380Y-73534285D01*
X241168571Y-73558095D01*
X241120952Y-73581904D01*
X241025714Y-73605714D01*
X240978095Y-73629523D01*
X240954285Y-73653333D01*
X240930476Y-73700952D01*
X240930476Y-73748571D01*
X240954285Y-73796190D01*
X240978095Y-73820000D01*
X241025714Y-73843809D01*
X241144761Y-73843809D01*
X241216190Y-73820000D01*
X241382857Y-73843809D02*
X241501904Y-73343809D01*
X241597142Y-73700952D01*
X241692380Y-73343809D01*
X241811428Y-73843809D01*
X242001904Y-73343809D02*
X242001904Y-73843809D01*
X242120952Y-73843809D01*
X242192380Y-73820000D01*
X242240000Y-73772380D01*
X242263809Y-73724761D01*
X242287619Y-73629523D01*
X242287619Y-73558095D01*
X242263809Y-73462857D01*
X242240000Y-73415238D01*
X242192380Y-73367619D01*
X242120952Y-73343809D01*
X242001904Y-73343809D01*
X242501904Y-73343809D02*
X242501904Y-73843809D01*
X242835238Y-73843809D02*
X242930476Y-73843809D01*
X242978095Y-73820000D01*
X243025714Y-73772380D01*
X243049523Y-73677142D01*
X243049523Y-73510476D01*
X243025714Y-73415238D01*
X242978095Y-73367619D01*
X242930476Y-73343809D01*
X242835238Y-73343809D01*
X242787619Y-73367619D01*
X242740000Y-73415238D01*
X242716190Y-73510476D01*
X242716190Y-73677142D01*
X242740000Y-73772380D01*
X242787619Y-73820000D01*
X242835238Y-73843809D01*
X234370952Y-83606190D02*
X234085238Y-83606190D01*
X234228095Y-84106190D02*
X234228095Y-83606190D01*
X233966190Y-83606190D02*
X233632857Y-84106190D01*
X233632857Y-83606190D02*
X233966190Y-84106190D01*
X235623809Y-88283333D02*
X235861904Y-88450000D01*
X235623809Y-88569047D02*
X236123809Y-88569047D01*
X236123809Y-88378571D01*
X236100000Y-88330952D01*
X236076190Y-88307142D01*
X236028571Y-88283333D01*
X235957142Y-88283333D01*
X235909523Y-88307142D01*
X235885714Y-88330952D01*
X235861904Y-88378571D01*
X235861904Y-88569047D01*
X236123809Y-88116666D02*
X235623809Y-87783333D01*
X236123809Y-87783333D02*
X235623809Y-88116666D01*
D11*
X251421700Y-89479822D02*
X252229822Y-88671700D01*
X252229822Y-89479822D02*
X251421700Y-88671700D01*
X251421700Y-71229822D02*
X252229822Y-70421700D01*
D12*
%TO.C,J6*%
X232740000Y-84330000D02*
X235340000Y-84330000D01*
X232740000Y-84330000D02*
X232740000Y-86930000D01*
X235400000Y-86930000D02*
X235400000Y-84330000D01*
X235400000Y-86930000D02*
X232740000Y-86930000D01*
X235400000Y-89530000D02*
X234070000Y-89530000D01*
X235400000Y-89530000D02*
X235400000Y-88200000D01*
%TO.C,U7*%
X241140000Y-89600000D02*
X238690000Y-89600000D01*
X239340000Y-86380000D02*
X241140000Y-86380000D01*
%TO.C,FB1*%
X248347221Y-85760000D02*
X248672779Y-85760000D01*
X248347221Y-86780000D02*
X248672779Y-86780000D01*
%TO.C,U5*%
X244180000Y-85820000D02*
X245980000Y-85820000D01*
%TO.C,J5*%
X248280000Y-74110000D02*
X249610000Y-74110000D01*
X248280000Y-74110000D02*
X248280000Y-75440000D01*
X248280000Y-76770000D02*
X250940000Y-76770000D01*
X248280000Y-76710000D02*
X250940000Y-76710000D01*
X248280000Y-76770000D02*
X248280000Y-76710000D01*
X250940000Y-76770000D02*
X250940000Y-76710000D01*
%TO.C,J3*%
X240660000Y-73130000D02*
X248340000Y-73130000D01*
X248340000Y-70470000D02*
X248340000Y-73130000D01*
X240660000Y-70470000D02*
X240660000Y-73130000D01*
X240660000Y-70470000D02*
X248340000Y-70470000D01*
X250940000Y-70470000D02*
X250940000Y-71800000D01*
X250940000Y-70470000D02*
X249610000Y-70470000D01*
%TO.C,D4*%
X233900000Y-78590000D02*
X235100000Y-78590000D01*
X233900000Y-80440000D02*
X233900000Y-78590000D01*
X235100000Y-80440000D02*
X235100000Y-78590000D01*
%TO.C,D3*%
X233900000Y-71510000D02*
X235100000Y-71510000D01*
X233900000Y-73360000D02*
X233900000Y-71510000D01*
X235100000Y-73360000D02*
X235100000Y-71510000D01*
%TO.C,D2*%
X233900000Y-75050000D02*
X235100000Y-75050000D01*
X233900000Y-76900000D02*
X233900000Y-75050000D01*
X235100000Y-76900000D02*
X235100000Y-75050000D01*
%TO.C,C12*%
X235470000Y-76527221D02*
X235470000Y-76852779D01*
X236490000Y-76527221D02*
X236490000Y-76852779D01*
D13*
%TO.C,Q5*%
X224600000Y-75400000D02*
G75*
G03*
X224600000Y-75400000I-100000J0D01*
G01*
D14*
X226000000Y-76050000D02*
X231000000Y-76050000D01*
X226000000Y-70950000D02*
X231000000Y-70950000D01*
D13*
%TO.C,Q3*%
X224600000Y-81900000D02*
G75*
G03*
X224600000Y-81900000I-100000J0D01*
G01*
D14*
X226000000Y-82550000D02*
X231000000Y-82550000D01*
X226000000Y-77450000D02*
X231000000Y-77450000D01*
D13*
%TO.C,Q1*%
X224600000Y-88400000D02*
G75*
G03*
X224600000Y-88400000I-100000J0D01*
G01*
D14*
X226000000Y-89050000D02*
X231000000Y-89050000D01*
X226000000Y-83950000D02*
X231000000Y-83950000D01*
D12*
%TO.C,C14*%
X235470000Y-79537221D02*
X235470000Y-79862779D01*
X236490000Y-79537221D02*
X236490000Y-79862779D01*
%TO.C,C13*%
X235470000Y-73517221D02*
X235470000Y-73842779D01*
X236490000Y-73517221D02*
X236490000Y-73842779D01*
%TO.C,U2*%
X250290000Y-78165000D02*
X250290000Y-77690000D01*
X250290000Y-77690000D02*
X249815000Y-77690000D01*
X245070000Y-82435000D02*
X245070000Y-82910000D01*
X245070000Y-82910000D02*
X245545000Y-82910000D01*
X245070000Y-78165000D02*
X245070000Y-77690000D01*
X245070000Y-77690000D02*
X245545000Y-77690000D01*
X250290000Y-82435000D02*
X250290000Y-82910000D01*
%TO.C,U1*%
X238745000Y-74830000D02*
X238270000Y-74830000D01*
X238270000Y-74830000D02*
X238270000Y-75305000D01*
X242015000Y-79050000D02*
X242490000Y-79050000D01*
X242490000Y-79050000D02*
X242490000Y-78575000D01*
X238745000Y-79050000D02*
X238270000Y-79050000D01*
X238270000Y-79050000D02*
X238270000Y-78575000D01*
X242015000Y-74830000D02*
X242490000Y-74830000D01*
%TD*%
M02*
