%TF.GenerationSoftware,KiCad,Pcbnew,(5.1.6-0-10_14)*%
%TF.CreationDate,2021-03-14T15:43:45-04:00*%
%TF.ProjectId,F051_ESC,46303531-5f45-4534-932e-6b696361645f,rev?*%
%TF.SameCoordinates,Original*%
%TF.FileFunction,Paste,Top*%
%TF.FilePolarity,Positive*%
%FSLAX46Y46*%
G04 Gerber Fmt 4.6, Leading zero omitted, Abs format (unit mm)*
G04 Created by KiCad (PCBNEW (5.1.6-0-10_14)) date 2021-03-14 15:43:45*
%MOMM*%
%LPD*%
G01*
G04 APERTURE LIST*
%ADD10C,0.010000*%
%ADD11C,0.100000*%
%ADD12R,1.300000X0.900000*%
%ADD13R,1.060000X0.650000*%
%ADD14R,1.050000X0.850000*%
%ADD15R,1.450000X0.850000*%
G04 APERTURE END LIST*
D10*
%TO.C,Q6*%
G36*
X229440000Y-74686000D02*
G01*
X226460000Y-74686000D01*
X226460000Y-72314000D01*
X229440000Y-72314000D01*
X229440000Y-74686000D01*
G37*
X229440000Y-74686000D02*
X226460000Y-74686000D01*
X226460000Y-72314000D01*
X229440000Y-72314000D01*
X229440000Y-74686000D01*
%TO.C,Q4*%
G36*
X229440000Y-81186000D02*
G01*
X226460000Y-81186000D01*
X226460000Y-78814000D01*
X229440000Y-78814000D01*
X229440000Y-81186000D01*
G37*
X229440000Y-81186000D02*
X226460000Y-81186000D01*
X226460000Y-78814000D01*
X229440000Y-78814000D01*
X229440000Y-81186000D01*
%TO.C,Q2*%
G36*
X229440000Y-87686000D02*
G01*
X226460000Y-87686000D01*
X226460000Y-85314000D01*
X229440000Y-85314000D01*
X229440000Y-87686000D01*
G37*
X229440000Y-87686000D02*
X226460000Y-87686000D01*
X226460000Y-85314000D01*
X229440000Y-85314000D01*
X229440000Y-87686000D01*
%TD*%
%TO.C,R1*%
G36*
G01*
X253980000Y-78750000D02*
X253980000Y-81250000D01*
G75*
G02*
X253530000Y-81700000I-450000J0D01*
G01*
X252630000Y-81700000D01*
G75*
G02*
X252180000Y-81250000I0J450000D01*
G01*
X252180000Y-78750000D01*
G75*
G02*
X252630000Y-78300000I450000J0D01*
G01*
X253530000Y-78300000D01*
G75*
G02*
X253980000Y-78750000I0J-450000D01*
G01*
G37*
G36*
G01*
X259180000Y-78750000D02*
X259180000Y-81250000D01*
G75*
G02*
X258730000Y-81700000I-450000J0D01*
G01*
X257830000Y-81700000D01*
G75*
G02*
X257380000Y-81250000I0J450000D01*
G01*
X257380000Y-78750000D01*
G75*
G02*
X257830000Y-78300000I450000J0D01*
G01*
X258730000Y-78300000D01*
G75*
G02*
X259180000Y-78750000I0J-450000D01*
G01*
G37*
%TD*%
%TO.C,J2*%
G36*
G01*
X234070000Y-70784600D02*
X234070000Y-72085400D01*
G75*
G02*
X233820400Y-72335000I-249600J0D01*
G01*
X233119600Y-72335000D01*
G75*
G02*
X232870000Y-72085400I0J249600D01*
G01*
X232870000Y-70784600D01*
G75*
G02*
X233119600Y-70535000I249600J0D01*
G01*
X233820400Y-70535000D01*
G75*
G02*
X234070000Y-70784600I0J-249600D01*
G01*
G37*
G36*
G01*
X239670000Y-70784600D02*
X239670000Y-72085400D01*
G75*
G02*
X239420400Y-72335000I-249600J0D01*
G01*
X238719600Y-72335000D01*
G75*
G02*
X238470000Y-72085400I0J249600D01*
G01*
X238470000Y-70784600D01*
G75*
G02*
X238719600Y-70535000I249600J0D01*
G01*
X239420400Y-70535000D01*
G75*
G02*
X239670000Y-70784600I0J-249600D01*
G01*
G37*
G36*
G01*
X235070000Y-74685000D02*
X235070000Y-75935000D01*
G75*
G02*
X234920000Y-76085000I-150000J0D01*
G01*
X234620000Y-76085000D01*
G75*
G02*
X234470000Y-75935000I0J150000D01*
G01*
X234470000Y-74685000D01*
G75*
G02*
X234620000Y-74535000I150000J0D01*
G01*
X234920000Y-74535000D01*
G75*
G02*
X235070000Y-74685000I0J-150000D01*
G01*
G37*
G36*
G01*
X236070000Y-74685000D02*
X236070000Y-75935000D01*
G75*
G02*
X235920000Y-76085000I-150000J0D01*
G01*
X235620000Y-76085000D01*
G75*
G02*
X235470000Y-75935000I0J150000D01*
G01*
X235470000Y-74685000D01*
G75*
G02*
X235620000Y-74535000I150000J0D01*
G01*
X235920000Y-74535000D01*
G75*
G02*
X236070000Y-74685000I0J-150000D01*
G01*
G37*
G36*
G01*
X237070000Y-74685000D02*
X237070000Y-75935000D01*
G75*
G02*
X236920000Y-76085000I-150000J0D01*
G01*
X236620000Y-76085000D01*
G75*
G02*
X236470000Y-75935000I0J150000D01*
G01*
X236470000Y-74685000D01*
G75*
G02*
X236620000Y-74535000I150000J0D01*
G01*
X236920000Y-74535000D01*
G75*
G02*
X237070000Y-74685000I0J-150000D01*
G01*
G37*
G36*
G01*
X238070000Y-74685000D02*
X238070000Y-75935000D01*
G75*
G02*
X237920000Y-76085000I-150000J0D01*
G01*
X237620000Y-76085000D01*
G75*
G02*
X237470000Y-75935000I0J150000D01*
G01*
X237470000Y-74685000D01*
G75*
G02*
X237620000Y-74535000I150000J0D01*
G01*
X237920000Y-74535000D01*
G75*
G02*
X238070000Y-74685000I0J-150000D01*
G01*
G37*
%TD*%
D11*
%TO.C,U3*%
G36*
X241350000Y-84913500D02*
G01*
X244475000Y-84913500D01*
X244475000Y-85330000D01*
X245950000Y-85330000D01*
X245950000Y-86230000D01*
X244475000Y-86230000D01*
X244475000Y-86646500D01*
X241350000Y-86646500D01*
X241350000Y-84913500D01*
G37*
D12*
X245300000Y-84280000D03*
X245300000Y-87280000D03*
%TD*%
%TO.C,C5*%
G36*
G01*
X247236250Y-87550000D02*
X246723750Y-87550000D01*
G75*
G02*
X246505000Y-87331250I0J218750D01*
G01*
X246505000Y-86893750D01*
G75*
G02*
X246723750Y-86675000I218750J0D01*
G01*
X247236250Y-86675000D01*
G75*
G02*
X247455000Y-86893750I0J-218750D01*
G01*
X247455000Y-87331250D01*
G75*
G02*
X247236250Y-87550000I-218750J0D01*
G01*
G37*
G36*
G01*
X247236250Y-89125000D02*
X246723750Y-89125000D01*
G75*
G02*
X246505000Y-88906250I0J218750D01*
G01*
X246505000Y-88468750D01*
G75*
G02*
X246723750Y-88250000I218750J0D01*
G01*
X247236250Y-88250000D01*
G75*
G02*
X247455000Y-88468750I0J-218750D01*
G01*
X247455000Y-88906250D01*
G75*
G02*
X247236250Y-89125000I-218750J0D01*
G01*
G37*
%TD*%
%TO.C,C4*%
G36*
G01*
X246723750Y-85240000D02*
X247236250Y-85240000D01*
G75*
G02*
X247455000Y-85458750I0J-218750D01*
G01*
X247455000Y-85896250D01*
G75*
G02*
X247236250Y-86115000I-218750J0D01*
G01*
X246723750Y-86115000D01*
G75*
G02*
X246505000Y-85896250I0J218750D01*
G01*
X246505000Y-85458750D01*
G75*
G02*
X246723750Y-85240000I218750J0D01*
G01*
G37*
G36*
G01*
X246723750Y-83665000D02*
X247236250Y-83665000D01*
G75*
G02*
X247455000Y-83883750I0J-218750D01*
G01*
X247455000Y-84321250D01*
G75*
G02*
X247236250Y-84540000I-218750J0D01*
G01*
X246723750Y-84540000D01*
G75*
G02*
X246505000Y-84321250I0J218750D01*
G01*
X246505000Y-83883750D01*
G75*
G02*
X246723750Y-83665000I218750J0D01*
G01*
G37*
%TD*%
D13*
%TO.C,U4*%
X236540000Y-86030000D03*
X236540000Y-84130000D03*
X238740000Y-84130000D03*
X238740000Y-85080000D03*
X238740000Y-86030000D03*
%TD*%
%TO.C,C24*%
G36*
G01*
X238553750Y-88760000D02*
X239066250Y-88760000D01*
G75*
G02*
X239285000Y-88978750I0J-218750D01*
G01*
X239285000Y-89416250D01*
G75*
G02*
X239066250Y-89635000I-218750J0D01*
G01*
X238553750Y-89635000D01*
G75*
G02*
X238335000Y-89416250I0J218750D01*
G01*
X238335000Y-88978750D01*
G75*
G02*
X238553750Y-88760000I218750J0D01*
G01*
G37*
G36*
G01*
X238553750Y-87185000D02*
X239066250Y-87185000D01*
G75*
G02*
X239285000Y-87403750I0J-218750D01*
G01*
X239285000Y-87841250D01*
G75*
G02*
X239066250Y-88060000I-218750J0D01*
G01*
X238553750Y-88060000D01*
G75*
G02*
X238335000Y-87841250I0J218750D01*
G01*
X238335000Y-87403750D01*
G75*
G02*
X238553750Y-87185000I218750J0D01*
G01*
G37*
%TD*%
%TO.C,C23*%
G36*
G01*
X240232500Y-87030000D02*
X239887500Y-87030000D01*
G75*
G02*
X239740000Y-86882500I0J147500D01*
G01*
X239740000Y-86587500D01*
G75*
G02*
X239887500Y-86440000I147500J0D01*
G01*
X240232500Y-86440000D01*
G75*
G02*
X240380000Y-86587500I0J-147500D01*
G01*
X240380000Y-86882500D01*
G75*
G02*
X240232500Y-87030000I-147500J0D01*
G01*
G37*
G36*
G01*
X240232500Y-88000000D02*
X239887500Y-88000000D01*
G75*
G02*
X239740000Y-87852500I0J147500D01*
G01*
X239740000Y-87557500D01*
G75*
G02*
X239887500Y-87410000I147500J0D01*
G01*
X240232500Y-87410000D01*
G75*
G02*
X240380000Y-87557500I0J-147500D01*
G01*
X240380000Y-87852500D01*
G75*
G02*
X240232500Y-88000000I-147500J0D01*
G01*
G37*
%TD*%
%TO.C,C22*%
G36*
G01*
X240063750Y-85110000D02*
X240576250Y-85110000D01*
G75*
G02*
X240795000Y-85328750I0J-218750D01*
G01*
X240795000Y-85766250D01*
G75*
G02*
X240576250Y-85985000I-218750J0D01*
G01*
X240063750Y-85985000D01*
G75*
G02*
X239845000Y-85766250I0J218750D01*
G01*
X239845000Y-85328750D01*
G75*
G02*
X240063750Y-85110000I218750J0D01*
G01*
G37*
G36*
G01*
X240063750Y-83535000D02*
X240576250Y-83535000D01*
G75*
G02*
X240795000Y-83753750I0J-218750D01*
G01*
X240795000Y-84191250D01*
G75*
G02*
X240576250Y-84410000I-218750J0D01*
G01*
X240063750Y-84410000D01*
G75*
G02*
X239845000Y-84191250I0J218750D01*
G01*
X239845000Y-83753750D01*
G75*
G02*
X240063750Y-83535000I218750J0D01*
G01*
G37*
%TD*%
%TO.C,C21*%
G36*
G01*
X249405000Y-79045000D02*
X248155000Y-79045000D01*
G75*
G02*
X247905000Y-78795000I0J250000D01*
G01*
X247905000Y-78045000D01*
G75*
G02*
X248155000Y-77795000I250000J0D01*
G01*
X249405000Y-77795000D01*
G75*
G02*
X249655000Y-78045000I0J-250000D01*
G01*
X249655000Y-78795000D01*
G75*
G02*
X249405000Y-79045000I-250000J0D01*
G01*
G37*
G36*
G01*
X249405000Y-81845000D02*
X248155000Y-81845000D01*
G75*
G02*
X247905000Y-81595000I0J250000D01*
G01*
X247905000Y-80845000D01*
G75*
G02*
X248155000Y-80595000I250000J0D01*
G01*
X249405000Y-80595000D01*
G75*
G02*
X249655000Y-80845000I0J-250000D01*
G01*
X249655000Y-81595000D01*
G75*
G02*
X249405000Y-81845000I-250000J0D01*
G01*
G37*
%TD*%
%TO.C,C20*%
G36*
G01*
X237955000Y-79045000D02*
X236705000Y-79045000D01*
G75*
G02*
X236455000Y-78795000I0J250000D01*
G01*
X236455000Y-78045000D01*
G75*
G02*
X236705000Y-77795000I250000J0D01*
G01*
X237955000Y-77795000D01*
G75*
G02*
X238205000Y-78045000I0J-250000D01*
G01*
X238205000Y-78795000D01*
G75*
G02*
X237955000Y-79045000I-250000J0D01*
G01*
G37*
G36*
G01*
X237955000Y-81845000D02*
X236705000Y-81845000D01*
G75*
G02*
X236455000Y-81595000I0J250000D01*
G01*
X236455000Y-80845000D01*
G75*
G02*
X236705000Y-80595000I250000J0D01*
G01*
X237955000Y-80595000D01*
G75*
G02*
X238205000Y-80845000I0J-250000D01*
G01*
X238205000Y-81595000D01*
G75*
G02*
X237955000Y-81845000I-250000J0D01*
G01*
G37*
%TD*%
%TO.C,C19*%
G36*
G01*
X247115000Y-79045000D02*
X245865000Y-79045000D01*
G75*
G02*
X245615000Y-78795000I0J250000D01*
G01*
X245615000Y-78045000D01*
G75*
G02*
X245865000Y-77795000I250000J0D01*
G01*
X247115000Y-77795000D01*
G75*
G02*
X247365000Y-78045000I0J-250000D01*
G01*
X247365000Y-78795000D01*
G75*
G02*
X247115000Y-79045000I-250000J0D01*
G01*
G37*
G36*
G01*
X247115000Y-81845000D02*
X245865000Y-81845000D01*
G75*
G02*
X245615000Y-81595000I0J250000D01*
G01*
X245615000Y-80845000D01*
G75*
G02*
X245865000Y-80595000I250000J0D01*
G01*
X247115000Y-80595000D01*
G75*
G02*
X247365000Y-80845000I0J-250000D01*
G01*
X247365000Y-81595000D01*
G75*
G02*
X247115000Y-81845000I-250000J0D01*
G01*
G37*
%TD*%
%TO.C,C18*%
G36*
G01*
X240245000Y-79045000D02*
X238995000Y-79045000D01*
G75*
G02*
X238745000Y-78795000I0J250000D01*
G01*
X238745000Y-78045000D01*
G75*
G02*
X238995000Y-77795000I250000J0D01*
G01*
X240245000Y-77795000D01*
G75*
G02*
X240495000Y-78045000I0J-250000D01*
G01*
X240495000Y-78795000D01*
G75*
G02*
X240245000Y-79045000I-250000J0D01*
G01*
G37*
G36*
G01*
X240245000Y-81845000D02*
X238995000Y-81845000D01*
G75*
G02*
X238745000Y-81595000I0J250000D01*
G01*
X238745000Y-80845000D01*
G75*
G02*
X238995000Y-80595000I250000J0D01*
G01*
X240245000Y-80595000D01*
G75*
G02*
X240495000Y-80845000I0J-250000D01*
G01*
X240495000Y-81595000D01*
G75*
G02*
X240245000Y-81845000I-250000J0D01*
G01*
G37*
%TD*%
%TO.C,C17*%
G36*
G01*
X244825000Y-79045000D02*
X243575000Y-79045000D01*
G75*
G02*
X243325000Y-78795000I0J250000D01*
G01*
X243325000Y-78045000D01*
G75*
G02*
X243575000Y-77795000I250000J0D01*
G01*
X244825000Y-77795000D01*
G75*
G02*
X245075000Y-78045000I0J-250000D01*
G01*
X245075000Y-78795000D01*
G75*
G02*
X244825000Y-79045000I-250000J0D01*
G01*
G37*
G36*
G01*
X244825000Y-81845000D02*
X243575000Y-81845000D01*
G75*
G02*
X243325000Y-81595000I0J250000D01*
G01*
X243325000Y-80845000D01*
G75*
G02*
X243575000Y-80595000I250000J0D01*
G01*
X244825000Y-80595000D01*
G75*
G02*
X245075000Y-80845000I0J-250000D01*
G01*
X245075000Y-81595000D01*
G75*
G02*
X244825000Y-81845000I-250000J0D01*
G01*
G37*
%TD*%
%TO.C,C16*%
G36*
G01*
X242535000Y-79045000D02*
X241285000Y-79045000D01*
G75*
G02*
X241035000Y-78795000I0J250000D01*
G01*
X241035000Y-78045000D01*
G75*
G02*
X241285000Y-77795000I250000J0D01*
G01*
X242535000Y-77795000D01*
G75*
G02*
X242785000Y-78045000I0J-250000D01*
G01*
X242785000Y-78795000D01*
G75*
G02*
X242535000Y-79045000I-250000J0D01*
G01*
G37*
G36*
G01*
X242535000Y-81845000D02*
X241285000Y-81845000D01*
G75*
G02*
X241035000Y-81595000I0J250000D01*
G01*
X241035000Y-80845000D01*
G75*
G02*
X241285000Y-80595000I250000J0D01*
G01*
X242535000Y-80595000D01*
G75*
G02*
X242785000Y-80845000I0J-250000D01*
G01*
X242785000Y-81595000D01*
G75*
G02*
X242535000Y-81845000I-250000J0D01*
G01*
G37*
%TD*%
D14*
%TO.C,Q6*%
X225550000Y-75405000D03*
X225550000Y-74135000D03*
X225550000Y-72865000D03*
X225550000Y-71595000D03*
D15*
X231250000Y-71595000D03*
X231250000Y-72865000D03*
X231250000Y-74135000D03*
X231250000Y-75405000D03*
%TD*%
D14*
%TO.C,Q4*%
X225550000Y-81905000D03*
X225550000Y-80635000D03*
X225550000Y-79365000D03*
X225550000Y-78095000D03*
D15*
X231250000Y-78095000D03*
X231250000Y-79365000D03*
X231250000Y-80635000D03*
X231250000Y-81905000D03*
%TD*%
D14*
%TO.C,Q2*%
X225550000Y-88405000D03*
X225550000Y-87135000D03*
X225550000Y-85865000D03*
X225550000Y-84595000D03*
D15*
X231250000Y-84595000D03*
X231250000Y-85865000D03*
X231250000Y-87135000D03*
X231250000Y-88405000D03*
%TD*%
M02*
