%TF.GenerationSoftware,KiCad,Pcbnew,(5.1.6-0-10_14)*%
%TF.CreationDate,2021-03-14T15:43:45-04:00*%
%TF.ProjectId,F051_ESC,46303531-5f45-4534-932e-6b696361645f,rev?*%
%TF.SameCoordinates,Original*%
%TF.FileFunction,Copper,L3,Inr*%
%TF.FilePolarity,Positive*%
%FSLAX46Y46*%
G04 Gerber Fmt 4.6, Leading zero omitted, Abs format (unit mm)*
G04 Created by KiCad (PCBNEW (5.1.6-0-10_14)) date 2021-03-14 15:43:45*
%MOMM*%
%LPD*%
G01*
G04 APERTURE LIST*
%TA.AperFunction,ViaPad*%
%ADD10O,1.700000X1.700000*%
%TD*%
%TA.AperFunction,ViaPad*%
%ADD11R,1.700000X1.700000*%
%TD*%
%TA.AperFunction,ViaPad*%
%ADD12C,0.457200*%
%TD*%
%TA.AperFunction,Conductor*%
%ADD13C,0.500000*%
%TD*%
%TA.AperFunction,Conductor*%
%ADD14C,0.300000*%
%TD*%
%TA.AperFunction,Conductor*%
%ADD15C,0.254000*%
%TD*%
G04 APERTURE END LIST*
D10*
%TO.N,/MCU/USART1_TX*%
%TO.C,J6*%
X234070000Y-85660000D03*
D11*
%TO.N,/MCU/USART1_RX*%
X234070000Y-88200000D03*
%TD*%
%TO.N,GND*%
%TO.C,J1*%
%TA.AperFunction,ViaPad*%
G36*
G01*
X257375000Y-77500000D02*
X253625000Y-77500000D01*
G75*
G02*
X252000000Y-75875000I0J1625000D01*
G01*
X252000000Y-72625000D01*
G75*
G02*
X253625000Y-71000000I1625000J0D01*
G01*
X257375000Y-71000000D01*
G75*
G02*
X259000000Y-72625000I0J-1625000D01*
G01*
X259000000Y-75875000D01*
G75*
G02*
X257375000Y-77500000I-1625000J0D01*
G01*
G37*
%TD.AperFunction*%
%TO.N,VCC*%
%TA.AperFunction,ViaPad*%
G36*
G01*
X257375000Y-89000000D02*
X253625000Y-89000000D01*
G75*
G02*
X252000000Y-87375000I0J1625000D01*
G01*
X252000000Y-84125000D01*
G75*
G02*
X253625000Y-82500000I1625000J0D01*
G01*
X257375000Y-82500000D01*
G75*
G02*
X259000000Y-84125000I0J-1625000D01*
G01*
X259000000Y-87375000D01*
G75*
G02*
X257375000Y-89000000I-1625000J0D01*
G01*
G37*
%TD.AperFunction*%
%TD*%
%TO.N,/MCU/NRST*%
%TO.C,J5*%
X249610000Y-75440000D03*
%TD*%
D10*
%TO.N,/MCU/SWDIO*%
%TO.C,J3*%
X241990000Y-71800000D03*
%TO.N,/MCU/SWCLK*%
X244530000Y-71800000D03*
%TO.N,GND*%
X247070000Y-71800000D03*
D11*
%TO.N,+3V3*%
X249610000Y-71800000D03*
%TD*%
%TO.N,/MCU/PhaseC*%
%TO.C,J4*%
%TA.AperFunction,ViaPad*%
G36*
G01*
X223400000Y-75000000D02*
X220600000Y-75000000D01*
G75*
G02*
X220000000Y-74400000I0J600000D01*
G01*
X220000000Y-71600000D01*
G75*
G02*
X220600000Y-71000000I600000J0D01*
G01*
X223400000Y-71000000D01*
G75*
G02*
X224000000Y-71600000I0J-600000D01*
G01*
X224000000Y-74400000D01*
G75*
G02*
X223400000Y-75000000I-600000J0D01*
G01*
G37*
%TD.AperFunction*%
%TO.N,/MCU/PhaseB*%
%TA.AperFunction,ViaPad*%
G36*
G01*
X223400000Y-82000000D02*
X220600000Y-82000000D01*
G75*
G02*
X220000000Y-81400000I0J600000D01*
G01*
X220000000Y-78600000D01*
G75*
G02*
X220600000Y-78000000I600000J0D01*
G01*
X223400000Y-78000000D01*
G75*
G02*
X224000000Y-78600000I0J-600000D01*
G01*
X224000000Y-81400000D01*
G75*
G02*
X223400000Y-82000000I-600000J0D01*
G01*
G37*
%TD.AperFunction*%
%TO.N,/MCU/PhaseA*%
%TA.AperFunction,ViaPad*%
G36*
G01*
X223400000Y-89000000D02*
X220600000Y-89000000D01*
G75*
G02*
X220000000Y-88400000I0J600000D01*
G01*
X220000000Y-85600000D01*
G75*
G02*
X220600000Y-85000000I600000J0D01*
G01*
X223400000Y-85000000D01*
G75*
G02*
X224000000Y-85600000I0J-600000D01*
G01*
X224000000Y-88400000D01*
G75*
G02*
X223400000Y-89000000I-600000J0D01*
G01*
G37*
%TD.AperFunction*%
%TD*%
D12*
%TO.N,VCC*%
X252500000Y-88000000D03*
X254750000Y-88000000D03*
X254000000Y-88000000D03*
X253250000Y-88000000D03*
X253250000Y-87250000D03*
X254750000Y-87250000D03*
X254000000Y-87250000D03*
X255500000Y-86500000D03*
X254000000Y-86500000D03*
X254750000Y-86500000D03*
X254750000Y-85750000D03*
X254000000Y-88750000D03*
X254750000Y-88750000D03*
X257000000Y-88750000D03*
X255500000Y-88750000D03*
X256250000Y-88750000D03*
X255500000Y-88000000D03*
X256250000Y-88000000D03*
X257000000Y-88000000D03*
X257750000Y-88000000D03*
X258500000Y-88000000D03*
X255500000Y-87250000D03*
X252500000Y-87250000D03*
X253250000Y-86500000D03*
X252500000Y-86500000D03*
X254000000Y-85750000D03*
X253250000Y-85750000D03*
X252500000Y-85750000D03*
X252500000Y-85000000D03*
X253250000Y-85000000D03*
X254000000Y-85000000D03*
X252500000Y-84250000D03*
X254000000Y-84250000D03*
X253250000Y-84250000D03*
X252500000Y-83500000D03*
X253250000Y-83500000D03*
X254000000Y-83500000D03*
X254000000Y-82750000D03*
X254750000Y-82750000D03*
X254750000Y-83500000D03*
X254750000Y-84250000D03*
X254750000Y-85000000D03*
X255500000Y-85000000D03*
X255500000Y-84250000D03*
X255500000Y-83500000D03*
X255500000Y-82750000D03*
X257000000Y-82750000D03*
X256250000Y-82750000D03*
X256250000Y-83500000D03*
X257000000Y-83500000D03*
X257750000Y-83500000D03*
X258500000Y-83500000D03*
X258500000Y-84250000D03*
X257750000Y-84250000D03*
X257000000Y-84250000D03*
X256250000Y-84250000D03*
X256250000Y-85000000D03*
X257000000Y-85000000D03*
X257750000Y-85000000D03*
X258500000Y-85000000D03*
X258500000Y-87250000D03*
X257750000Y-87250000D03*
X257000000Y-87250000D03*
X256250000Y-87250000D03*
X256250000Y-86500000D03*
X257000000Y-86500000D03*
X257750000Y-86500000D03*
X258500000Y-86500000D03*
X258500000Y-85750000D03*
X257750000Y-85750000D03*
X257000000Y-85750000D03*
X256250000Y-85750000D03*
%TO.N,GND*%
X258500000Y-76500000D03*
X258500000Y-75750000D03*
X258500000Y-75000000D03*
X257750000Y-75000000D03*
X257750000Y-75750000D03*
X257000000Y-75750000D03*
X257000000Y-75000000D03*
X256250000Y-75000000D03*
X256250000Y-75750000D03*
X255500000Y-75750000D03*
X255500000Y-75000000D03*
X254750000Y-75000000D03*
X254750000Y-75750000D03*
X254750000Y-76500000D03*
X255500000Y-76500000D03*
X256250000Y-76500000D03*
X257000000Y-76500000D03*
X257750000Y-76500000D03*
X257000000Y-77250000D03*
X256250000Y-77250000D03*
X255500000Y-77250000D03*
X254750000Y-77250000D03*
X254000000Y-77250000D03*
X252500000Y-76500000D03*
X253250000Y-76500000D03*
X254000000Y-76500000D03*
X254000000Y-75750000D03*
X253250000Y-75750000D03*
X252500000Y-75750000D03*
X252500000Y-75000000D03*
X253250000Y-75000000D03*
X254000000Y-75000000D03*
X252500000Y-74250000D03*
X253250000Y-74250000D03*
X254000000Y-74250000D03*
X254750000Y-74250000D03*
X253250000Y-73500000D03*
X252500000Y-73500000D03*
X254000000Y-73500000D03*
X254750000Y-73500000D03*
X254750000Y-72750000D03*
X254000000Y-72750000D03*
X253250000Y-72750000D03*
X252500000Y-72750000D03*
X252500000Y-72000000D03*
X253250000Y-72000000D03*
X254000000Y-71250000D03*
X254000000Y-72000000D03*
X254750000Y-72000000D03*
X254750000Y-71250000D03*
X255500000Y-71250000D03*
X256250000Y-71250000D03*
X257000000Y-71250000D03*
X258500000Y-72000000D03*
X257750000Y-72000000D03*
X257000000Y-72000000D03*
X256250000Y-72000000D03*
X255500000Y-72000000D03*
X255500000Y-72750000D03*
X256250000Y-72750000D03*
X257000000Y-72750000D03*
X257750000Y-72750000D03*
X258500000Y-72750000D03*
X258500000Y-73500000D03*
X257750000Y-73500000D03*
X257000000Y-73500000D03*
X256250000Y-73500000D03*
X255500000Y-73500000D03*
X258500000Y-74250000D03*
X257750000Y-74250000D03*
X257000000Y-74250000D03*
X256250000Y-74250000D03*
X227100000Y-76700000D03*
X232267641Y-79992025D03*
X232304400Y-74762338D03*
X232300000Y-76200000D03*
X231700000Y-76200000D03*
X231100000Y-76200000D03*
X231700000Y-76800000D03*
X231100000Y-76750000D03*
X230500000Y-76770000D03*
X231400000Y-77300000D03*
X230820000Y-77240000D03*
X230260000Y-77230000D03*
X226500000Y-76500000D03*
X225900000Y-76700000D03*
X225300000Y-76500000D03*
X224700000Y-76700000D03*
X224100000Y-76500000D03*
X223500000Y-76300000D03*
X222900000Y-76500000D03*
X222300000Y-76700000D03*
X221700000Y-76500000D03*
X221100000Y-76300000D03*
X220500000Y-76500000D03*
X219900000Y-76700000D03*
X232420000Y-79400000D03*
X232360000Y-81430000D03*
X232400000Y-82070000D03*
X247680000Y-80300000D03*
X248280000Y-80300000D03*
X248880000Y-80300000D03*
X247080000Y-80300000D03*
X246480000Y-80300000D03*
X247680000Y-79700000D03*
X248280000Y-79700000D03*
X247080000Y-79700000D03*
X246480000Y-79700000D03*
X246480000Y-80900000D03*
X247080000Y-80900000D03*
X247680000Y-80900000D03*
X248280000Y-80900000D03*
X248880000Y-80900000D03*
X238384390Y-79444400D03*
X245160000Y-77360000D03*
X250930000Y-87030000D03*
X245070000Y-83000000D03*
X232330616Y-72865000D03*
X236950000Y-72330008D03*
X237450000Y-72320000D03*
X237950000Y-72320000D03*
X241370000Y-76520000D03*
X240770000Y-76520000D03*
X240170000Y-76520000D03*
X241370000Y-75920000D03*
X240770000Y-75920000D03*
X240170000Y-75920000D03*
X240170000Y-77120000D03*
X240770000Y-77120000D03*
X241370000Y-77120000D03*
X239570000Y-77120000D03*
X239570000Y-76520000D03*
X239570000Y-75920000D03*
X248150000Y-87820000D03*
X245210000Y-88100000D03*
X246500000Y-89500000D03*
X247000000Y-89500000D03*
X247500000Y-89500000D03*
X248000000Y-89500000D03*
X246000000Y-89500000D03*
X245500000Y-89500000D03*
X242150000Y-79810000D03*
X248880000Y-79700000D03*
X252455610Y-82330000D03*
X239640000Y-86325610D03*
%TO.N,+3V3*%
X249940000Y-86930000D03*
X251540000Y-83180000D03*
X248590000Y-86270000D03*
X241090000Y-88140000D03*
X245380000Y-76050000D03*
%TO.N,+12V*%
X233120000Y-84496290D03*
X243280000Y-79719998D03*
X243000001Y-87251211D03*
%TO.N,/MCU/PhaseB*%
X220500000Y-78500000D03*
X221250000Y-78500000D03*
X222000000Y-78500000D03*
X222750000Y-78500000D03*
X223500000Y-78500000D03*
X223500000Y-79250000D03*
X223500000Y-80000000D03*
X223500000Y-80750000D03*
X223500000Y-81500000D03*
X222750000Y-81500000D03*
X222750000Y-80750000D03*
X222000000Y-80750000D03*
X222000000Y-81500000D03*
X220500000Y-81500000D03*
X221250000Y-81500000D03*
X221250000Y-80750000D03*
X220500000Y-80750000D03*
X220500000Y-80000000D03*
X220500000Y-79250000D03*
X221250000Y-79250000D03*
X221250000Y-80000000D03*
X222000000Y-79250000D03*
X222750000Y-79250000D03*
X222750000Y-80000000D03*
X240257390Y-82210000D03*
X235430000Y-78150000D03*
X231330000Y-82979998D03*
%TO.N,/MCU/PhaseA*%
X222750000Y-88500000D03*
X223500000Y-88500000D03*
X223500000Y-87750000D03*
X222750000Y-87750000D03*
X222000000Y-87750000D03*
X222000000Y-88500000D03*
X221250000Y-88500000D03*
X220500000Y-88500000D03*
X220500000Y-87750000D03*
X221250000Y-87750000D03*
X221250000Y-87000000D03*
X220500000Y-87000000D03*
X220500000Y-85500000D03*
X220500000Y-86250000D03*
X221250000Y-86250000D03*
X221250000Y-85500000D03*
X222000000Y-85500000D03*
X222750000Y-85500000D03*
X223500000Y-85500000D03*
X222750000Y-86250000D03*
X223500000Y-86250000D03*
X223500000Y-87000000D03*
X222750000Y-87000000D03*
X222000000Y-86250000D03*
X225550000Y-83814398D03*
X241250000Y-79750000D03*
X237200000Y-74220000D03*
%TO.N,/MCU/PhaseC*%
X220500000Y-71500000D03*
X221250000Y-71500000D03*
X222000000Y-71500000D03*
X222750000Y-71500000D03*
X223500000Y-71500000D03*
X223500000Y-72250000D03*
X222750000Y-72250000D03*
X222000000Y-72250000D03*
X220500000Y-72250000D03*
X221250000Y-72250000D03*
X221250000Y-73000000D03*
X220500000Y-73000000D03*
X220500000Y-73750000D03*
X220500000Y-74500000D03*
X221250000Y-74500000D03*
X221250000Y-73750000D03*
X222000000Y-73750000D03*
X222000000Y-74500000D03*
X223500000Y-74500000D03*
X222750000Y-74500000D03*
X222750000Y-73750000D03*
X223500000Y-73750000D03*
X223500000Y-73000000D03*
X222750000Y-73000000D03*
X236840000Y-80140000D03*
X229520000Y-70794386D03*
X245554390Y-83429999D03*
%TO.N,Net-(Q1-Pad4)*%
X226908232Y-83748230D03*
X233795610Y-75076770D03*
%TO.N,Net-(Q2-Pad4)*%
X232029528Y-83818593D03*
X236402094Y-83108556D03*
%TO.N,Net-(Q3-Pad4)*%
X226840000Y-77294398D03*
X233760284Y-78524674D03*
%TO.N,Net-(Q4-Pad4)*%
X238408835Y-83012373D03*
%TO.N,Net-(Q5-Pad4)*%
X234252521Y-82242521D03*
X225750000Y-70814388D03*
%TO.N,Net-(Q6-Pad4)*%
X239204390Y-83199996D03*
%TO.N,/MCU/SenseCOM*%
X240760000Y-80410000D03*
X246170000Y-83530000D03*
%TO.N,/MCU/NRST*%
X250630000Y-84540000D03*
%TO.N,Net-(R24-Pad1)*%
X244258707Y-83036335D03*
X240919999Y-86325610D03*
%TO.N,/MCU/PWM*%
X235730000Y-71820000D03*
X239750000Y-82940610D03*
%TO.N,VCC_Shunt*%
X248750000Y-89500000D03*
X249250000Y-89500000D03*
X249750000Y-89500000D03*
X250250000Y-89500000D03*
X253500000Y-79000000D03*
X253000000Y-79000000D03*
X253500000Y-81500000D03*
X253000000Y-81500000D03*
X253000000Y-81000000D03*
X253500000Y-81000000D03*
X253500000Y-80500000D03*
X253000000Y-80500000D03*
X253000000Y-80000000D03*
X253500000Y-80000000D03*
X253500000Y-79500000D03*
X253000000Y-79500000D03*
X240480000Y-71460000D03*
X227560000Y-83730000D03*
X227910000Y-83180000D03*
X228570000Y-82950000D03*
X228300000Y-83740000D03*
X228880000Y-83480000D03*
X229470000Y-83750000D03*
X227710000Y-76310000D03*
X228040000Y-76900000D03*
X228410000Y-76340000D03*
X228750000Y-76940000D03*
X229200000Y-76290000D03*
X229570000Y-76980000D03*
X229900000Y-76350000D03*
X252500000Y-81500000D03*
X252500000Y-81000000D03*
X252500000Y-80500000D03*
X252500000Y-80000000D03*
X252500000Y-79500000D03*
X252500000Y-79000000D03*
X252000000Y-78400000D03*
X252000000Y-78900000D03*
X252000000Y-79400000D03*
X252000000Y-79900000D03*
X251500000Y-78400000D03*
X251000000Y-78400000D03*
X251000000Y-77900000D03*
X250500000Y-77900000D03*
X251000000Y-78900000D03*
X251500000Y-78900000D03*
X251500000Y-79400000D03*
X254000000Y-79000000D03*
X254500000Y-79000000D03*
X255000000Y-79000000D03*
X255000000Y-79500000D03*
X254500000Y-79500000D03*
X254000000Y-79500000D03*
X254000000Y-80000000D03*
X254500000Y-80000000D03*
X255000000Y-80000000D03*
X255000000Y-80500000D03*
X254500000Y-80500000D03*
X254000000Y-80500000D03*
X254000000Y-81000000D03*
X254500000Y-81000000D03*
X255000000Y-81000000D03*
X255000000Y-81500000D03*
X254500000Y-81500000D03*
X254000000Y-81500000D03*
X237620000Y-84560000D03*
X237620000Y-85120000D03*
X248750000Y-87600000D03*
X249250000Y-87600000D03*
X249750000Y-87600000D03*
X250250000Y-87600000D03*
X250750000Y-89500000D03*
X251250000Y-89500000D03*
X251750000Y-89500000D03*
X237647528Y-85691066D03*
X253500000Y-78500000D03*
X253000000Y-78500000D03*
X252500000Y-78500000D03*
X254000000Y-78500000D03*
X254500000Y-78500000D03*
X255000000Y-78500000D03*
%TO.N,/Curent Sense/CURR*%
X235978586Y-81361388D03*
%TO.N,/MCU/USART1_TX*%
X250776168Y-80428415D03*
%TO.N,/MCU/USART1_RX*%
X251144390Y-80881975D03*
%TD*%
D13*
%TO.N,+3V3*%
X250080000Y-78860000D02*
X248190000Y-78860000D01*
X251750000Y-80530000D02*
X250080000Y-78860000D01*
X251750000Y-82970000D02*
X251750000Y-80530000D01*
X248190000Y-78860000D02*
X245380000Y-76050000D01*
X251540000Y-83180000D02*
X251750000Y-82970000D01*
%TO.N,/MCU/PhaseB*%
X232450002Y-82979998D02*
X231330000Y-82979998D01*
X235430000Y-78150000D02*
X235430000Y-80000000D01*
X235430000Y-80000000D02*
X232450002Y-82979998D01*
%TO.N,/MCU/PhaseA*%
X234290000Y-77130000D02*
X237200000Y-74220000D01*
X232557687Y-77130000D02*
X234290000Y-77130000D01*
X225873289Y-83814398D02*
X232557687Y-77130000D01*
X225550000Y-83814398D02*
X225873289Y-83814398D01*
%TO.N,/MCU/PhaseC*%
X231897926Y-73495601D02*
X229520000Y-71117675D01*
X229520000Y-71117675D02*
X229520000Y-70794386D01*
X236840000Y-79816711D02*
X237970000Y-78686711D01*
X237385601Y-73495601D02*
X231897926Y-73495601D01*
X237970000Y-74080000D02*
X237385601Y-73495601D01*
X237970000Y-78686711D02*
X237970000Y-74080000D01*
X236840000Y-80140000D02*
X236840000Y-79816711D01*
X245084389Y-83900000D02*
X245554390Y-83429999D01*
X238440000Y-83900000D02*
X245084389Y-83900000D01*
X236840000Y-82300000D02*
X238440000Y-83900000D01*
X236840000Y-80140000D02*
X236840000Y-82300000D01*
D14*
%TO.N,/MCU/PWM*%
X235730000Y-72143289D02*
X235730000Y-71820000D01*
X239750000Y-82940610D02*
X238890000Y-82080610D01*
X238890000Y-82080610D02*
X238890000Y-74120000D01*
X237625601Y-72855601D02*
X236442312Y-72855601D01*
X236442312Y-72855601D02*
X235730000Y-72143289D01*
X238890000Y-74120000D02*
X237625601Y-72855601D01*
%TO.N,/MCU/USART1_TX*%
X234606667Y-86196667D02*
X234070000Y-85660000D01*
X237890217Y-86196667D02*
X234606667Y-86196667D01*
X250776168Y-80513832D02*
X245470000Y-85820000D01*
X238266884Y-85820000D02*
X237890217Y-86196667D01*
X245470000Y-85820000D02*
X238266884Y-85820000D01*
X250776168Y-80428415D02*
X250776168Y-80513832D01*
%TO.N,/MCU/USART1_RX*%
X251144390Y-81295610D02*
X251144390Y-80881975D01*
X245694399Y-86745601D02*
X251144390Y-81295610D01*
X241228298Y-86745601D02*
X245694399Y-86745601D01*
X239773899Y-88200000D02*
X241228298Y-86745601D01*
X234070000Y-88200000D02*
X239773899Y-88200000D01*
%TD*%
D15*
%TO.N,VCC_Shunt*%
G36*
X229238639Y-70373298D02*
G01*
X229161895Y-70436280D01*
X229098913Y-70513024D01*
X229052113Y-70600581D01*
X229023293Y-70695585D01*
X229016000Y-70769632D01*
X229016000Y-71092921D01*
X229013562Y-71117675D01*
X229016000Y-71142428D01*
X229023293Y-71216475D01*
X229052112Y-71311479D01*
X229098912Y-71399037D01*
X229161894Y-71475781D01*
X229181127Y-71491565D01*
X231524040Y-73834479D01*
X231539820Y-73853707D01*
X231616564Y-73916689D01*
X231704121Y-73963489D01*
X231753926Y-73978597D01*
X231799124Y-73992308D01*
X231897925Y-74002039D01*
X231922679Y-73999601D01*
X236707635Y-73999601D01*
X234081237Y-76626000D01*
X232582437Y-76626000D01*
X232557686Y-76623562D01*
X232532935Y-76626000D01*
X232532933Y-76626000D01*
X232530786Y-76626211D01*
X232607640Y-76574860D01*
X232674860Y-76507640D01*
X232727674Y-76428597D01*
X232764054Y-76340769D01*
X232782600Y-76247532D01*
X232782600Y-76152468D01*
X232764054Y-76059231D01*
X232727674Y-75971403D01*
X232674860Y-75892360D01*
X232607640Y-75825140D01*
X232528597Y-75772326D01*
X232440769Y-75735946D01*
X232347532Y-75717400D01*
X232252468Y-75717400D01*
X232159231Y-75735946D01*
X232071403Y-75772326D01*
X232000000Y-75820035D01*
X231928597Y-75772326D01*
X231840769Y-75735946D01*
X231747532Y-75717400D01*
X231652468Y-75717400D01*
X231559231Y-75735946D01*
X231471403Y-75772326D01*
X231400000Y-75820035D01*
X231328597Y-75772326D01*
X231240769Y-75735946D01*
X231147532Y-75717400D01*
X231052468Y-75717400D01*
X230959231Y-75735946D01*
X230871403Y-75772326D01*
X230792360Y-75825140D01*
X230725140Y-75892360D01*
X230672326Y-75971403D01*
X230635946Y-76059231D01*
X230617400Y-76152468D01*
X230617400Y-76247532D01*
X230628535Y-76303513D01*
X230547532Y-76287400D01*
X230452468Y-76287400D01*
X230359231Y-76305946D01*
X230271403Y-76342326D01*
X230192360Y-76395140D01*
X230125140Y-76462360D01*
X230072326Y-76541403D01*
X230035946Y-76629231D01*
X230017400Y-76722468D01*
X230017400Y-76811682D01*
X229952360Y-76855140D01*
X229885140Y-76922360D01*
X229832326Y-77001403D01*
X229795946Y-77089231D01*
X229777400Y-77182468D01*
X229777400Y-77277532D01*
X229795946Y-77370769D01*
X229832326Y-77458597D01*
X229885140Y-77537640D01*
X229952360Y-77604860D01*
X230031403Y-77657674D01*
X230119231Y-77694054D01*
X230212468Y-77712600D01*
X230307532Y-77712600D01*
X230400769Y-77694054D01*
X230488597Y-77657674D01*
X230532517Y-77628328D01*
X230591403Y-77667674D01*
X230679231Y-77704054D01*
X230772468Y-77722600D01*
X230867532Y-77722600D01*
X230960769Y-77704054D01*
X231048597Y-77667674D01*
X231070523Y-77653023D01*
X231092360Y-77674860D01*
X231171403Y-77727674D01*
X231225034Y-77749889D01*
X225664526Y-83310398D01*
X225525246Y-83310398D01*
X225451199Y-83317691D01*
X225356195Y-83346510D01*
X225268638Y-83393310D01*
X225191894Y-83456292D01*
X225128912Y-83533036D01*
X225082112Y-83620593D01*
X225053293Y-83715597D01*
X225043562Y-83814398D01*
X225053293Y-83913199D01*
X225082112Y-84008203D01*
X225128912Y-84095760D01*
X225191894Y-84172504D01*
X225268638Y-84235486D01*
X225356195Y-84282286D01*
X225451199Y-84311105D01*
X225525246Y-84318398D01*
X225848535Y-84318398D01*
X225873289Y-84320836D01*
X225972090Y-84311105D01*
X226067094Y-84282286D01*
X226154651Y-84235486D01*
X226231395Y-84172504D01*
X226247179Y-84153271D01*
X226463882Y-83936568D01*
X226480558Y-83976827D01*
X226533372Y-84055870D01*
X226600592Y-84123090D01*
X226679635Y-84175904D01*
X226767463Y-84212284D01*
X226860700Y-84230830D01*
X226955764Y-84230830D01*
X227049001Y-84212284D01*
X227136829Y-84175904D01*
X227215872Y-84123090D01*
X227283092Y-84055870D01*
X227335906Y-83976827D01*
X227372286Y-83888999D01*
X227390832Y-83795762D01*
X227390832Y-83700698D01*
X227372286Y-83607461D01*
X227335906Y-83519633D01*
X227283092Y-83440590D01*
X227215872Y-83373370D01*
X227136829Y-83320556D01*
X227096570Y-83303880D01*
X227420452Y-82979998D01*
X230823562Y-82979998D01*
X230833293Y-83078799D01*
X230862112Y-83173803D01*
X230908912Y-83261360D01*
X230971894Y-83338104D01*
X231048638Y-83401086D01*
X231136195Y-83447886D01*
X231231199Y-83476705D01*
X231305246Y-83483998D01*
X231681623Y-83483998D01*
X231654668Y-83510953D01*
X231601854Y-83589996D01*
X231565474Y-83677824D01*
X231546928Y-83771061D01*
X231546928Y-83866125D01*
X231565474Y-83959362D01*
X231601854Y-84047190D01*
X231654668Y-84126233D01*
X231721888Y-84193453D01*
X231800931Y-84246267D01*
X231888759Y-84282647D01*
X231981996Y-84301193D01*
X232077060Y-84301193D01*
X232170297Y-84282647D01*
X232258125Y-84246267D01*
X232337168Y-84193453D01*
X232404388Y-84126233D01*
X232457202Y-84047190D01*
X232493582Y-83959362D01*
X232512128Y-83866125D01*
X232512128Y-83771061D01*
X232493582Y-83677824D01*
X232457202Y-83589996D01*
X232404388Y-83510953D01*
X232377433Y-83483998D01*
X232425248Y-83483998D01*
X232450002Y-83486436D01*
X232548803Y-83476705D01*
X232552709Y-83475520D01*
X232643807Y-83447886D01*
X232731364Y-83401086D01*
X232808108Y-83338104D01*
X232823892Y-83318871D01*
X233783657Y-82359106D01*
X233788467Y-82383290D01*
X233824847Y-82471118D01*
X233877661Y-82550161D01*
X233944881Y-82617381D01*
X234023924Y-82670195D01*
X234111752Y-82706575D01*
X234204989Y-82725121D01*
X234300053Y-82725121D01*
X234393290Y-82706575D01*
X234481118Y-82670195D01*
X234560161Y-82617381D01*
X234627381Y-82550161D01*
X234680195Y-82471118D01*
X234716575Y-82383290D01*
X234735121Y-82290053D01*
X234735121Y-82194989D01*
X234716575Y-82101752D01*
X234680195Y-82013924D01*
X234627381Y-81934881D01*
X234560161Y-81867661D01*
X234481118Y-81814847D01*
X234393290Y-81778467D01*
X234369106Y-81773657D01*
X235768873Y-80373890D01*
X235788106Y-80358106D01*
X235851088Y-80281362D01*
X235897888Y-80193805D01*
X235926707Y-80098801D01*
X235934000Y-80024754D01*
X235936438Y-80000000D01*
X235934000Y-79975246D01*
X235934000Y-78125246D01*
X235926707Y-78051199D01*
X235897888Y-77956195D01*
X235851088Y-77868638D01*
X235788106Y-77791894D01*
X235711362Y-77728912D01*
X235623804Y-77682112D01*
X235528800Y-77653293D01*
X235430000Y-77643562D01*
X235331199Y-77653293D01*
X235236195Y-77682112D01*
X235148638Y-77728912D01*
X235071894Y-77791894D01*
X235008912Y-77868638D01*
X234962112Y-77956196D01*
X234933293Y-78051200D01*
X234926000Y-78125247D01*
X234926001Y-79791236D01*
X232841780Y-81875457D01*
X232827674Y-81841403D01*
X232774860Y-81762360D01*
X232740980Y-81728480D01*
X232787674Y-81658597D01*
X232824054Y-81570769D01*
X232842600Y-81477532D01*
X232842600Y-81382468D01*
X232824054Y-81289231D01*
X232787674Y-81201403D01*
X232734860Y-81122360D01*
X232667640Y-81055140D01*
X232588597Y-81002326D01*
X232500769Y-80965946D01*
X232407532Y-80947400D01*
X232312468Y-80947400D01*
X232219231Y-80965946D01*
X232131403Y-81002326D01*
X232052360Y-81055140D01*
X231985140Y-81122360D01*
X231932326Y-81201403D01*
X231895946Y-81289231D01*
X231877400Y-81382468D01*
X231877400Y-81477532D01*
X231895946Y-81570769D01*
X231932326Y-81658597D01*
X231985140Y-81737640D01*
X232019020Y-81771520D01*
X231972326Y-81841403D01*
X231935946Y-81929231D01*
X231917400Y-82022468D01*
X231917400Y-82117532D01*
X231935946Y-82210769D01*
X231972326Y-82298597D01*
X232025140Y-82377640D01*
X232092360Y-82444860D01*
X232138962Y-82475998D01*
X231305246Y-82475998D01*
X231231199Y-82483291D01*
X231136195Y-82512110D01*
X231048638Y-82558910D01*
X230971894Y-82621892D01*
X230908912Y-82698636D01*
X230862112Y-82786193D01*
X230833293Y-82881197D01*
X230823562Y-82979998D01*
X227420452Y-82979998D01*
X230455957Y-79944493D01*
X231785041Y-79944493D01*
X231785041Y-80039557D01*
X231803587Y-80132794D01*
X231839967Y-80220622D01*
X231892781Y-80299665D01*
X231960001Y-80366885D01*
X232039044Y-80419699D01*
X232126872Y-80456079D01*
X232220109Y-80474625D01*
X232315173Y-80474625D01*
X232408410Y-80456079D01*
X232496238Y-80419699D01*
X232575281Y-80366885D01*
X232642501Y-80299665D01*
X232695315Y-80220622D01*
X232731695Y-80132794D01*
X232750241Y-80039557D01*
X232750241Y-79944493D01*
X232731695Y-79851256D01*
X232706031Y-79789298D01*
X232727640Y-79774860D01*
X232794860Y-79707640D01*
X232847674Y-79628597D01*
X232884054Y-79540769D01*
X232902600Y-79447532D01*
X232902600Y-79352468D01*
X232884054Y-79259231D01*
X232847674Y-79171403D01*
X232794860Y-79092360D01*
X232727640Y-79025140D01*
X232648597Y-78972326D01*
X232560769Y-78935946D01*
X232467532Y-78917400D01*
X232372468Y-78917400D01*
X232279231Y-78935946D01*
X232191403Y-78972326D01*
X232112360Y-79025140D01*
X232045140Y-79092360D01*
X231992326Y-79171403D01*
X231955946Y-79259231D01*
X231937400Y-79352468D01*
X231937400Y-79447532D01*
X231955946Y-79540769D01*
X231981610Y-79602727D01*
X231960001Y-79617165D01*
X231892781Y-79684385D01*
X231839967Y-79763428D01*
X231803587Y-79851256D01*
X231785041Y-79944493D01*
X230455957Y-79944493D01*
X231923308Y-78477142D01*
X233277684Y-78477142D01*
X233277684Y-78572206D01*
X233296230Y-78665443D01*
X233332610Y-78753271D01*
X233385424Y-78832314D01*
X233452644Y-78899534D01*
X233531687Y-78952348D01*
X233619515Y-78988728D01*
X233712752Y-79007274D01*
X233807816Y-79007274D01*
X233901053Y-78988728D01*
X233988881Y-78952348D01*
X234067924Y-78899534D01*
X234135144Y-78832314D01*
X234187958Y-78753271D01*
X234224338Y-78665443D01*
X234242884Y-78572206D01*
X234242884Y-78477142D01*
X234224338Y-78383905D01*
X234187958Y-78296077D01*
X234135144Y-78217034D01*
X234067924Y-78149814D01*
X233988881Y-78097000D01*
X233901053Y-78060620D01*
X233807816Y-78042074D01*
X233712752Y-78042074D01*
X233619515Y-78060620D01*
X233531687Y-78097000D01*
X233452644Y-78149814D01*
X233385424Y-78217034D01*
X233332610Y-78296077D01*
X233296230Y-78383905D01*
X233277684Y-78477142D01*
X231923308Y-78477142D01*
X232766451Y-77634000D01*
X234265246Y-77634000D01*
X234290000Y-77636438D01*
X234388801Y-77626707D01*
X234394890Y-77624860D01*
X234483805Y-77597888D01*
X234571362Y-77551088D01*
X234648106Y-77488106D01*
X234663890Y-77468873D01*
X237466001Y-74666763D01*
X237466000Y-78477947D01*
X236501123Y-79442825D01*
X236481895Y-79458605D01*
X236418913Y-79535349D01*
X236372113Y-79622906D01*
X236343293Y-79717910D01*
X236339932Y-79752040D01*
X236333562Y-79816711D01*
X236336000Y-79841465D01*
X236336000Y-81036302D01*
X236286226Y-80986528D01*
X236207183Y-80933714D01*
X236119355Y-80897334D01*
X236026118Y-80878788D01*
X235931054Y-80878788D01*
X235837817Y-80897334D01*
X235749989Y-80933714D01*
X235670946Y-80986528D01*
X235603726Y-81053748D01*
X235550912Y-81132791D01*
X235514532Y-81220619D01*
X235495986Y-81313856D01*
X235495986Y-81408920D01*
X235514532Y-81502157D01*
X235550912Y-81589985D01*
X235603726Y-81669028D01*
X235670946Y-81736248D01*
X235749989Y-81789062D01*
X235837817Y-81825442D01*
X235931054Y-81843988D01*
X236026118Y-81843988D01*
X236119355Y-81825442D01*
X236207183Y-81789062D01*
X236286226Y-81736248D01*
X236336001Y-81686473D01*
X236336001Y-82275237D01*
X236333562Y-82300000D01*
X236343293Y-82398801D01*
X236367550Y-82478764D01*
X236372113Y-82493805D01*
X236418913Y-82581362D01*
X236456658Y-82627355D01*
X236449626Y-82625956D01*
X236354562Y-82625956D01*
X236261325Y-82644502D01*
X236173497Y-82680882D01*
X236094454Y-82733696D01*
X236027234Y-82800916D01*
X235974420Y-82879959D01*
X235938040Y-82967787D01*
X235919494Y-83061024D01*
X235919494Y-83156088D01*
X235938040Y-83249325D01*
X235974420Y-83337153D01*
X236027234Y-83416196D01*
X236094454Y-83483416D01*
X236173497Y-83536230D01*
X236261325Y-83572610D01*
X236354562Y-83591156D01*
X236449626Y-83591156D01*
X236542863Y-83572610D01*
X236630691Y-83536230D01*
X236709734Y-83483416D01*
X236776954Y-83416196D01*
X236829768Y-83337153D01*
X236866148Y-83249325D01*
X236884694Y-83156088D01*
X236884694Y-83061024D01*
X236883808Y-83056571D01*
X238066110Y-84238873D01*
X238081894Y-84258106D01*
X238158638Y-84321088D01*
X238246195Y-84367888D01*
X238321624Y-84390769D01*
X238341199Y-84396707D01*
X238440000Y-84406438D01*
X238464754Y-84404000D01*
X245059635Y-84404000D01*
X245084389Y-84406438D01*
X245183190Y-84396707D01*
X245278194Y-84367888D01*
X245365751Y-84321088D01*
X245442495Y-84258106D01*
X245458279Y-84238873D01*
X245827326Y-83869826D01*
X245862360Y-83904860D01*
X245941403Y-83957674D01*
X246029231Y-83994054D01*
X246122468Y-84012600D01*
X246217532Y-84012600D01*
X246310769Y-83994054D01*
X246398597Y-83957674D01*
X246477640Y-83904860D01*
X246544860Y-83837640D01*
X246597674Y-83758597D01*
X246634054Y-83670769D01*
X246652600Y-83577532D01*
X246652600Y-83482468D01*
X246634054Y-83389231D01*
X246597674Y-83301403D01*
X246544860Y-83222360D01*
X246477640Y-83155140D01*
X246398597Y-83102326D01*
X246310769Y-83065946D01*
X246217532Y-83047400D01*
X246122468Y-83047400D01*
X246029231Y-83065946D01*
X245941403Y-83102326D01*
X245938863Y-83104023D01*
X245912495Y-83071894D01*
X245835752Y-83008912D01*
X245748196Y-82962112D01*
X245653191Y-82933292D01*
X245554390Y-82923561D01*
X245546995Y-82924289D01*
X245534054Y-82859231D01*
X245497674Y-82771403D01*
X245444860Y-82692360D01*
X245377640Y-82625140D01*
X245298597Y-82572326D01*
X245210769Y-82535946D01*
X245117532Y-82517400D01*
X245022468Y-82517400D01*
X244929231Y-82535946D01*
X244841403Y-82572326D01*
X244762360Y-82625140D01*
X244695140Y-82692360D01*
X244652215Y-82756603D01*
X244633567Y-82728695D01*
X244566347Y-82661475D01*
X244487304Y-82608661D01*
X244399476Y-82572281D01*
X244306239Y-82553735D01*
X244211175Y-82553735D01*
X244117938Y-82572281D01*
X244030110Y-82608661D01*
X243951067Y-82661475D01*
X243883847Y-82728695D01*
X243831033Y-82807738D01*
X243794653Y-82895566D01*
X243776107Y-82988803D01*
X243776107Y-83083867D01*
X243794653Y-83177104D01*
X243831033Y-83264932D01*
X243883847Y-83343975D01*
X243935872Y-83396000D01*
X239911685Y-83396000D01*
X239978597Y-83368284D01*
X240057640Y-83315470D01*
X240124860Y-83248250D01*
X240177674Y-83169207D01*
X240214054Y-83081379D01*
X240232600Y-82988142D01*
X240232600Y-82893078D01*
X240214054Y-82799841D01*
X240177674Y-82712013D01*
X240157782Y-82682241D01*
X240209858Y-82692600D01*
X240304922Y-82692600D01*
X240398159Y-82674054D01*
X240485987Y-82637674D01*
X240565030Y-82584860D01*
X240632250Y-82517640D01*
X240685064Y-82438597D01*
X240721444Y-82350769D01*
X240739990Y-82257532D01*
X240739990Y-82162468D01*
X240721444Y-82069231D01*
X240685064Y-81981403D01*
X240632250Y-81902360D01*
X240565030Y-81835140D01*
X240485987Y-81782326D01*
X240398159Y-81745946D01*
X240304922Y-81727400D01*
X240209858Y-81727400D01*
X240116621Y-81745946D01*
X240028793Y-81782326D01*
X239949750Y-81835140D01*
X239882530Y-81902360D01*
X239829716Y-81981403D01*
X239793336Y-82069231D01*
X239774790Y-82162468D01*
X239774790Y-82257532D01*
X239793336Y-82350769D01*
X239829716Y-82438597D01*
X239849608Y-82468369D01*
X239848975Y-82468243D01*
X239294000Y-81913268D01*
X239294000Y-80362468D01*
X240277400Y-80362468D01*
X240277400Y-80457532D01*
X240295946Y-80550769D01*
X240332326Y-80638597D01*
X240385140Y-80717640D01*
X240452360Y-80784860D01*
X240531403Y-80837674D01*
X240619231Y-80874054D01*
X240712468Y-80892600D01*
X240807532Y-80892600D01*
X240900769Y-80874054D01*
X240988597Y-80837674D01*
X241067640Y-80784860D01*
X241134860Y-80717640D01*
X241187674Y-80638597D01*
X241224054Y-80550769D01*
X241242600Y-80457532D01*
X241242600Y-80362468D01*
X241224054Y-80269231D01*
X241208881Y-80232600D01*
X241297532Y-80232600D01*
X241390769Y-80214054D01*
X241478597Y-80177674D01*
X241557640Y-80124860D01*
X241624860Y-80057640D01*
X241677674Y-79978597D01*
X241687573Y-79954698D01*
X241722326Y-80038597D01*
X241775140Y-80117640D01*
X241842360Y-80184860D01*
X241921403Y-80237674D01*
X242009231Y-80274054D01*
X242102468Y-80292600D01*
X242197532Y-80292600D01*
X242290769Y-80274054D01*
X242378597Y-80237674D01*
X242457640Y-80184860D01*
X242524860Y-80117640D01*
X242577674Y-80038597D01*
X242614054Y-79950769D01*
X242632600Y-79857532D01*
X242632600Y-79762468D01*
X242614698Y-79672466D01*
X242797400Y-79672466D01*
X242797400Y-79767530D01*
X242815946Y-79860767D01*
X242852326Y-79948595D01*
X242905140Y-80027638D01*
X242972360Y-80094858D01*
X243051403Y-80147672D01*
X243139231Y-80184052D01*
X243232468Y-80202598D01*
X243327532Y-80202598D01*
X243420769Y-80184052D01*
X243508597Y-80147672D01*
X243587640Y-80094858D01*
X243654860Y-80027638D01*
X243707674Y-79948595D01*
X243744054Y-79860767D01*
X243762600Y-79767530D01*
X243762600Y-79672466D01*
X243744054Y-79579229D01*
X243707674Y-79491401D01*
X243654860Y-79412358D01*
X243587640Y-79345138D01*
X243508597Y-79292324D01*
X243420769Y-79255944D01*
X243327532Y-79237398D01*
X243232468Y-79237398D01*
X243139231Y-79255944D01*
X243051403Y-79292324D01*
X242972360Y-79345138D01*
X242905140Y-79412358D01*
X242852326Y-79491401D01*
X242815946Y-79579229D01*
X242797400Y-79672466D01*
X242614698Y-79672466D01*
X242614054Y-79669231D01*
X242577674Y-79581403D01*
X242524860Y-79502360D01*
X242457640Y-79435140D01*
X242378597Y-79382326D01*
X242290769Y-79345946D01*
X242197532Y-79327400D01*
X242102468Y-79327400D01*
X242009231Y-79345946D01*
X241921403Y-79382326D01*
X241842360Y-79435140D01*
X241775140Y-79502360D01*
X241722326Y-79581403D01*
X241712427Y-79605302D01*
X241677674Y-79521403D01*
X241624860Y-79442360D01*
X241557640Y-79375140D01*
X241478597Y-79322326D01*
X241390769Y-79285946D01*
X241297532Y-79267400D01*
X241202468Y-79267400D01*
X241109231Y-79285946D01*
X241021403Y-79322326D01*
X240942360Y-79375140D01*
X240875140Y-79442360D01*
X240822326Y-79521403D01*
X240785946Y-79609231D01*
X240767400Y-79702468D01*
X240767400Y-79797532D01*
X240785946Y-79890769D01*
X240801119Y-79927400D01*
X240712468Y-79927400D01*
X240619231Y-79945946D01*
X240531403Y-79982326D01*
X240452360Y-80035140D01*
X240385140Y-80102360D01*
X240332326Y-80181403D01*
X240295946Y-80269231D01*
X240277400Y-80362468D01*
X239294000Y-80362468D01*
X239294000Y-77516001D01*
X239341403Y-77547674D01*
X239429231Y-77584054D01*
X239522468Y-77602600D01*
X239617532Y-77602600D01*
X239710769Y-77584054D01*
X239798597Y-77547674D01*
X239870000Y-77499965D01*
X239941403Y-77547674D01*
X240029231Y-77584054D01*
X240122468Y-77602600D01*
X240217532Y-77602600D01*
X240310769Y-77584054D01*
X240398597Y-77547674D01*
X240470000Y-77499965D01*
X240541403Y-77547674D01*
X240629231Y-77584054D01*
X240722468Y-77602600D01*
X240817532Y-77602600D01*
X240910769Y-77584054D01*
X240998597Y-77547674D01*
X241070000Y-77499965D01*
X241141403Y-77547674D01*
X241229231Y-77584054D01*
X241322468Y-77602600D01*
X241417532Y-77602600D01*
X241510769Y-77584054D01*
X241598597Y-77547674D01*
X241677640Y-77494860D01*
X241744860Y-77427640D01*
X241797674Y-77348597D01*
X241812639Y-77312468D01*
X244677400Y-77312468D01*
X244677400Y-77407532D01*
X244695946Y-77500769D01*
X244732326Y-77588597D01*
X244785140Y-77667640D01*
X244852360Y-77734860D01*
X244931403Y-77787674D01*
X245019231Y-77824054D01*
X245112468Y-77842600D01*
X245207532Y-77842600D01*
X245300769Y-77824054D01*
X245388597Y-77787674D01*
X245467640Y-77734860D01*
X245534860Y-77667640D01*
X245587674Y-77588597D01*
X245624054Y-77500769D01*
X245642600Y-77407532D01*
X245642600Y-77312468D01*
X245624054Y-77219231D01*
X245587674Y-77131403D01*
X245534860Y-77052360D01*
X245467640Y-76985140D01*
X245388597Y-76932326D01*
X245300769Y-76895946D01*
X245207532Y-76877400D01*
X245112468Y-76877400D01*
X245019231Y-76895946D01*
X244931403Y-76932326D01*
X244852360Y-76985140D01*
X244785140Y-77052360D01*
X244732326Y-77131403D01*
X244695946Y-77219231D01*
X244677400Y-77312468D01*
X241812639Y-77312468D01*
X241834054Y-77260769D01*
X241852600Y-77167532D01*
X241852600Y-77072468D01*
X241834054Y-76979231D01*
X241797674Y-76891403D01*
X241749965Y-76820000D01*
X241797674Y-76748597D01*
X241834054Y-76660769D01*
X241852600Y-76567532D01*
X241852600Y-76472468D01*
X241834054Y-76379231D01*
X241797674Y-76291403D01*
X241749965Y-76220000D01*
X241797674Y-76148597D01*
X241834054Y-76060769D01*
X241852600Y-75967532D01*
X241852600Y-75872468D01*
X241834054Y-75779231D01*
X241797674Y-75691403D01*
X241744860Y-75612360D01*
X241677640Y-75545140D01*
X241598597Y-75492326D01*
X241510769Y-75455946D01*
X241417532Y-75437400D01*
X241322468Y-75437400D01*
X241229231Y-75455946D01*
X241141403Y-75492326D01*
X241070000Y-75540035D01*
X240998597Y-75492326D01*
X240910769Y-75455946D01*
X240817532Y-75437400D01*
X240722468Y-75437400D01*
X240629231Y-75455946D01*
X240541403Y-75492326D01*
X240470000Y-75540035D01*
X240398597Y-75492326D01*
X240310769Y-75455946D01*
X240217532Y-75437400D01*
X240122468Y-75437400D01*
X240029231Y-75455946D01*
X239941403Y-75492326D01*
X239870000Y-75540035D01*
X239798597Y-75492326D01*
X239710769Y-75455946D01*
X239617532Y-75437400D01*
X239522468Y-75437400D01*
X239429231Y-75455946D01*
X239341403Y-75492326D01*
X239294000Y-75523999D01*
X239294000Y-74590000D01*
X248504772Y-74590000D01*
X248504772Y-76290000D01*
X248509676Y-76339793D01*
X248524200Y-76387672D01*
X248547786Y-76431797D01*
X248579527Y-76470473D01*
X248618203Y-76502214D01*
X248662328Y-76525800D01*
X248710207Y-76540324D01*
X248760000Y-76545228D01*
X250460000Y-76545228D01*
X250509793Y-76540324D01*
X250557672Y-76525800D01*
X250601797Y-76502214D01*
X250640473Y-76470473D01*
X250672214Y-76431797D01*
X250695800Y-76387672D01*
X250710324Y-76339793D01*
X250715228Y-76290000D01*
X250715228Y-74590000D01*
X250710324Y-74540207D01*
X250695800Y-74492328D01*
X250672214Y-74448203D01*
X250640473Y-74409527D01*
X250601797Y-74377786D01*
X250557672Y-74354200D01*
X250509793Y-74339676D01*
X250460000Y-74334772D01*
X248760000Y-74334772D01*
X248710207Y-74339676D01*
X248662328Y-74354200D01*
X248618203Y-74377786D01*
X248579527Y-74409527D01*
X248547786Y-74448203D01*
X248524200Y-74492328D01*
X248509676Y-74540207D01*
X248504772Y-74590000D01*
X239294000Y-74590000D01*
X239294000Y-74139837D01*
X239295954Y-74119999D01*
X239292014Y-74080000D01*
X239288154Y-74040802D01*
X239265053Y-73964648D01*
X239237104Y-73912360D01*
X239227538Y-73894463D01*
X239189699Y-73848357D01*
X239177053Y-73832947D01*
X239161640Y-73820298D01*
X238115254Y-72773912D01*
X238178597Y-72747674D01*
X238257640Y-72694860D01*
X238324860Y-72627640D01*
X238377674Y-72548597D01*
X238414054Y-72460769D01*
X238432600Y-72367532D01*
X238432600Y-72272468D01*
X238414054Y-72179231D01*
X238377674Y-72091403D01*
X238324860Y-72012360D01*
X238257640Y-71945140D01*
X238178597Y-71892326D01*
X238090769Y-71855946D01*
X237997532Y-71837400D01*
X237902468Y-71837400D01*
X237809231Y-71855946D01*
X237721403Y-71892326D01*
X237700000Y-71906627D01*
X237678597Y-71892326D01*
X237590769Y-71855946D01*
X237497532Y-71837400D01*
X237402468Y-71837400D01*
X237309231Y-71855946D01*
X237221403Y-71892326D01*
X237192511Y-71911631D01*
X237178597Y-71902334D01*
X237090769Y-71865954D01*
X236997532Y-71847408D01*
X236902468Y-71847408D01*
X236809231Y-71865954D01*
X236721403Y-71902334D01*
X236642360Y-71955148D01*
X236575140Y-72022368D01*
X236522326Y-72101411D01*
X236485946Y-72189239D01*
X236467400Y-72282476D01*
X236467400Y-72309347D01*
X236172019Y-72013966D01*
X236194054Y-71960769D01*
X236212600Y-71867532D01*
X236212600Y-71772468D01*
X236196448Y-71691265D01*
X240886000Y-71691265D01*
X240886000Y-71908735D01*
X240928426Y-72122025D01*
X241011648Y-72322940D01*
X241132467Y-72503759D01*
X241286241Y-72657533D01*
X241467060Y-72778352D01*
X241667975Y-72861574D01*
X241881265Y-72904000D01*
X242098735Y-72904000D01*
X242312025Y-72861574D01*
X242512940Y-72778352D01*
X242693759Y-72657533D01*
X242847533Y-72503759D01*
X242968352Y-72322940D01*
X243051574Y-72122025D01*
X243094000Y-71908735D01*
X243094000Y-71691265D01*
X243426000Y-71691265D01*
X243426000Y-71908735D01*
X243468426Y-72122025D01*
X243551648Y-72322940D01*
X243672467Y-72503759D01*
X243826241Y-72657533D01*
X244007060Y-72778352D01*
X244207975Y-72861574D01*
X244421265Y-72904000D01*
X244638735Y-72904000D01*
X244852025Y-72861574D01*
X245052940Y-72778352D01*
X245233759Y-72657533D01*
X245387533Y-72503759D01*
X245508352Y-72322940D01*
X245591574Y-72122025D01*
X245634000Y-71908735D01*
X245634000Y-71691265D01*
X245966000Y-71691265D01*
X245966000Y-71908735D01*
X246008426Y-72122025D01*
X246091648Y-72322940D01*
X246212467Y-72503759D01*
X246366241Y-72657533D01*
X246547060Y-72778352D01*
X246747975Y-72861574D01*
X246961265Y-72904000D01*
X247178735Y-72904000D01*
X247392025Y-72861574D01*
X247592940Y-72778352D01*
X247773759Y-72657533D01*
X247927533Y-72503759D01*
X248048352Y-72322940D01*
X248131574Y-72122025D01*
X248174000Y-71908735D01*
X248174000Y-71691265D01*
X248131574Y-71477975D01*
X248048352Y-71277060D01*
X247927533Y-71096241D01*
X247781292Y-70950000D01*
X248504772Y-70950000D01*
X248504772Y-72650000D01*
X248509676Y-72699793D01*
X248524200Y-72747672D01*
X248547786Y-72791797D01*
X248579527Y-72830473D01*
X248618203Y-72862214D01*
X248662328Y-72885800D01*
X248710207Y-72900324D01*
X248760000Y-72905228D01*
X250460000Y-72905228D01*
X250509793Y-72900324D01*
X250557672Y-72885800D01*
X250601797Y-72862214D01*
X250640473Y-72830473D01*
X250672214Y-72791797D01*
X250695800Y-72747672D01*
X250710324Y-72699793D01*
X250715228Y-72650000D01*
X250715228Y-72625000D01*
X251744772Y-72625000D01*
X251744772Y-75875000D01*
X251780900Y-76241814D01*
X251887896Y-76594532D01*
X252061648Y-76919599D01*
X252295478Y-77204522D01*
X252580401Y-77438352D01*
X252905468Y-77612104D01*
X253258186Y-77719100D01*
X253625000Y-77755228D01*
X257375000Y-77755228D01*
X257741814Y-77719100D01*
X258094532Y-77612104D01*
X258419599Y-77438352D01*
X258704522Y-77204522D01*
X258938352Y-76919599D01*
X259112104Y-76594532D01*
X259219100Y-76241814D01*
X259255228Y-75875000D01*
X259255228Y-72625000D01*
X259219100Y-72258186D01*
X259112104Y-71905468D01*
X258938352Y-71580401D01*
X258704522Y-71295478D01*
X258419599Y-71061648D01*
X258094532Y-70887896D01*
X257741814Y-70780900D01*
X257375000Y-70744772D01*
X253625000Y-70744772D01*
X253258186Y-70780900D01*
X252905468Y-70887896D01*
X252580401Y-71061648D01*
X252295478Y-71295478D01*
X252061648Y-71580401D01*
X251887896Y-71905468D01*
X251780900Y-72258186D01*
X251744772Y-72625000D01*
X250715228Y-72625000D01*
X250715228Y-70950000D01*
X250710324Y-70900207D01*
X250695800Y-70852328D01*
X250672214Y-70808203D01*
X250640473Y-70769527D01*
X250601797Y-70737786D01*
X250557672Y-70714200D01*
X250509793Y-70699676D01*
X250460000Y-70694772D01*
X248760000Y-70694772D01*
X248710207Y-70699676D01*
X248662328Y-70714200D01*
X248618203Y-70737786D01*
X248579527Y-70769527D01*
X248547786Y-70808203D01*
X248524200Y-70852328D01*
X248509676Y-70900207D01*
X248504772Y-70950000D01*
X247781292Y-70950000D01*
X247773759Y-70942467D01*
X247592940Y-70821648D01*
X247392025Y-70738426D01*
X247178735Y-70696000D01*
X246961265Y-70696000D01*
X246747975Y-70738426D01*
X246547060Y-70821648D01*
X246366241Y-70942467D01*
X246212467Y-71096241D01*
X246091648Y-71277060D01*
X246008426Y-71477975D01*
X245966000Y-71691265D01*
X245634000Y-71691265D01*
X245591574Y-71477975D01*
X245508352Y-71277060D01*
X245387533Y-71096241D01*
X245233759Y-70942467D01*
X245052940Y-70821648D01*
X244852025Y-70738426D01*
X244638735Y-70696000D01*
X244421265Y-70696000D01*
X244207975Y-70738426D01*
X244007060Y-70821648D01*
X243826241Y-70942467D01*
X243672467Y-71096241D01*
X243551648Y-71277060D01*
X243468426Y-71477975D01*
X243426000Y-71691265D01*
X243094000Y-71691265D01*
X243051574Y-71477975D01*
X242968352Y-71277060D01*
X242847533Y-71096241D01*
X242693759Y-70942467D01*
X242512940Y-70821648D01*
X242312025Y-70738426D01*
X242098735Y-70696000D01*
X241881265Y-70696000D01*
X241667975Y-70738426D01*
X241467060Y-70821648D01*
X241286241Y-70942467D01*
X241132467Y-71096241D01*
X241011648Y-71277060D01*
X240928426Y-71477975D01*
X240886000Y-71691265D01*
X236196448Y-71691265D01*
X236194054Y-71679231D01*
X236157674Y-71591403D01*
X236104860Y-71512360D01*
X236037640Y-71445140D01*
X235958597Y-71392326D01*
X235870769Y-71355946D01*
X235777532Y-71337400D01*
X235682468Y-71337400D01*
X235589231Y-71355946D01*
X235501403Y-71392326D01*
X235422360Y-71445140D01*
X235355140Y-71512360D01*
X235302326Y-71591403D01*
X235265946Y-71679231D01*
X235247400Y-71772468D01*
X235247400Y-71867532D01*
X235265946Y-71960769D01*
X235302326Y-72048597D01*
X235326000Y-72084028D01*
X235326000Y-72123452D01*
X235324046Y-72143289D01*
X235326000Y-72163126D01*
X235326000Y-72163128D01*
X235331846Y-72222486D01*
X235354947Y-72298640D01*
X235392462Y-72368824D01*
X235442947Y-72430342D01*
X235458360Y-72442991D01*
X236006970Y-72991601D01*
X232797488Y-72991601D01*
X232813216Y-72912532D01*
X232813216Y-72817468D01*
X232794670Y-72724231D01*
X232758290Y-72636403D01*
X232705476Y-72557360D01*
X232638256Y-72490140D01*
X232559213Y-72437326D01*
X232471385Y-72400946D01*
X232378148Y-72382400D01*
X232283084Y-72382400D01*
X232189847Y-72400946D01*
X232102019Y-72437326D01*
X232022976Y-72490140D01*
X231955756Y-72557360D01*
X231902942Y-72636403D01*
X231866562Y-72724231D01*
X231862042Y-72746953D01*
X230024000Y-70908912D01*
X230024000Y-70769633D01*
X230016707Y-70695586D01*
X229987888Y-70600581D01*
X229941088Y-70513024D01*
X229878106Y-70436280D01*
X229801362Y-70373298D01*
X229718486Y-70329000D01*
X257983907Y-70329000D01*
X258324262Y-70362372D01*
X258636165Y-70456542D01*
X258923841Y-70609501D01*
X259176329Y-70815425D01*
X259384014Y-71066472D01*
X259538977Y-71353069D01*
X259635324Y-71664317D01*
X259671000Y-72003748D01*
X259671001Y-87983897D01*
X259637628Y-88324262D01*
X259543459Y-88636165D01*
X259390496Y-88923844D01*
X259184570Y-89176334D01*
X258933529Y-89384013D01*
X258646927Y-89538978D01*
X258335683Y-89635324D01*
X257996252Y-89671000D01*
X248451532Y-89671000D01*
X248464054Y-89640769D01*
X248482600Y-89547532D01*
X248482600Y-89452468D01*
X248464054Y-89359231D01*
X248427674Y-89271403D01*
X248374860Y-89192360D01*
X248307640Y-89125140D01*
X248228597Y-89072326D01*
X248140769Y-89035946D01*
X248047532Y-89017400D01*
X247952468Y-89017400D01*
X247859231Y-89035946D01*
X247771403Y-89072326D01*
X247750000Y-89086627D01*
X247728597Y-89072326D01*
X247640769Y-89035946D01*
X247547532Y-89017400D01*
X247452468Y-89017400D01*
X247359231Y-89035946D01*
X247271403Y-89072326D01*
X247250000Y-89086627D01*
X247228597Y-89072326D01*
X247140769Y-89035946D01*
X247047532Y-89017400D01*
X246952468Y-89017400D01*
X246859231Y-89035946D01*
X246771403Y-89072326D01*
X246750000Y-89086627D01*
X246728597Y-89072326D01*
X246640769Y-89035946D01*
X246547532Y-89017400D01*
X246452468Y-89017400D01*
X246359231Y-89035946D01*
X246271403Y-89072326D01*
X246250000Y-89086627D01*
X246228597Y-89072326D01*
X246140769Y-89035946D01*
X246047532Y-89017400D01*
X245952468Y-89017400D01*
X245859231Y-89035946D01*
X245771403Y-89072326D01*
X245750000Y-89086627D01*
X245728597Y-89072326D01*
X245640769Y-89035946D01*
X245547532Y-89017400D01*
X245452468Y-89017400D01*
X245359231Y-89035946D01*
X245271403Y-89072326D01*
X245192360Y-89125140D01*
X245125140Y-89192360D01*
X245072326Y-89271403D01*
X245035946Y-89359231D01*
X245017400Y-89452468D01*
X245017400Y-89547532D01*
X245035946Y-89640769D01*
X245048468Y-89671000D01*
X221016093Y-89671000D01*
X220675738Y-89637628D01*
X220363835Y-89543459D01*
X220076156Y-89390496D01*
X219823666Y-89184570D01*
X219615987Y-88933529D01*
X219461022Y-88646927D01*
X219364676Y-88335683D01*
X219329000Y-87996252D01*
X219329000Y-85600000D01*
X219744772Y-85600000D01*
X219744772Y-88400000D01*
X219761205Y-88566847D01*
X219809872Y-88727282D01*
X219888904Y-88875139D01*
X219995262Y-89004738D01*
X220124861Y-89111096D01*
X220272718Y-89190128D01*
X220433153Y-89238795D01*
X220600000Y-89255228D01*
X223400000Y-89255228D01*
X223566847Y-89238795D01*
X223727282Y-89190128D01*
X223875139Y-89111096D01*
X224004738Y-89004738D01*
X224111096Y-88875139D01*
X224190128Y-88727282D01*
X224238795Y-88566847D01*
X224255228Y-88400000D01*
X224255228Y-85600000D01*
X224238795Y-85433153D01*
X224190128Y-85272718D01*
X224111096Y-85124861D01*
X224004738Y-84995262D01*
X223875139Y-84888904D01*
X223727282Y-84809872D01*
X223566847Y-84761205D01*
X223400000Y-84744772D01*
X220600000Y-84744772D01*
X220433153Y-84761205D01*
X220272718Y-84809872D01*
X220124861Y-84888904D01*
X219995262Y-84995262D01*
X219888904Y-85124861D01*
X219809872Y-85272718D01*
X219761205Y-85433153D01*
X219744772Y-85600000D01*
X219329000Y-85600000D01*
X219329000Y-84448758D01*
X232637400Y-84448758D01*
X232637400Y-84543822D01*
X232655946Y-84637059D01*
X232692326Y-84724887D01*
X232745140Y-84803930D01*
X232812360Y-84871150D01*
X232891403Y-84923964D01*
X232979231Y-84960344D01*
X233072468Y-84978890D01*
X233167532Y-84978890D01*
X233201901Y-84972053D01*
X233091648Y-85137060D01*
X233008426Y-85337975D01*
X232966000Y-85551265D01*
X232966000Y-85768735D01*
X233008426Y-85982025D01*
X233091648Y-86182940D01*
X233212467Y-86363759D01*
X233366241Y-86517533D01*
X233547060Y-86638352D01*
X233747975Y-86721574D01*
X233961265Y-86764000D01*
X234178735Y-86764000D01*
X234392025Y-86721574D01*
X234592940Y-86638352D01*
X234649340Y-86600667D01*
X237870380Y-86600667D01*
X237890217Y-86602621D01*
X237910054Y-86600667D01*
X237910057Y-86600667D01*
X237969415Y-86594821D01*
X238045569Y-86571720D01*
X238115753Y-86534205D01*
X238177270Y-86483720D01*
X238189919Y-86468307D01*
X238434226Y-86224000D01*
X239168157Y-86224000D01*
X239157400Y-86278078D01*
X239157400Y-86373142D01*
X239175946Y-86466379D01*
X239212326Y-86554207D01*
X239265140Y-86633250D01*
X239332360Y-86700470D01*
X239411403Y-86753284D01*
X239499231Y-86789664D01*
X239592468Y-86808210D01*
X239687532Y-86808210D01*
X239780769Y-86789664D01*
X239868597Y-86753284D01*
X239947640Y-86700470D01*
X240014860Y-86633250D01*
X240067674Y-86554207D01*
X240104054Y-86466379D01*
X240122600Y-86373142D01*
X240122600Y-86278078D01*
X240111843Y-86224000D01*
X240448156Y-86224000D01*
X240437399Y-86278078D01*
X240437399Y-86373142D01*
X240455945Y-86466379D01*
X240492325Y-86554207D01*
X240545139Y-86633250D01*
X240612359Y-86700470D01*
X240666147Y-86736410D01*
X239606557Y-87796000D01*
X235175228Y-87796000D01*
X235175228Y-87350000D01*
X235170324Y-87300207D01*
X235155800Y-87252328D01*
X235132214Y-87208203D01*
X235100473Y-87169527D01*
X235061797Y-87137786D01*
X235017672Y-87114200D01*
X234969793Y-87099676D01*
X234920000Y-87094772D01*
X233220000Y-87094772D01*
X233170207Y-87099676D01*
X233122328Y-87114200D01*
X233078203Y-87137786D01*
X233039527Y-87169527D01*
X233007786Y-87208203D01*
X232984200Y-87252328D01*
X232969676Y-87300207D01*
X232964772Y-87350000D01*
X232964772Y-89050000D01*
X232969676Y-89099793D01*
X232984200Y-89147672D01*
X233007786Y-89191797D01*
X233039527Y-89230473D01*
X233078203Y-89262214D01*
X233122328Y-89285800D01*
X233170207Y-89300324D01*
X233220000Y-89305228D01*
X234920000Y-89305228D01*
X234969793Y-89300324D01*
X235017672Y-89285800D01*
X235061797Y-89262214D01*
X235100473Y-89230473D01*
X235132214Y-89191797D01*
X235155800Y-89147672D01*
X235170324Y-89099793D01*
X235175228Y-89050000D01*
X235175228Y-88604000D01*
X239754062Y-88604000D01*
X239773899Y-88605954D01*
X239793736Y-88604000D01*
X239793739Y-88604000D01*
X239853097Y-88598154D01*
X239929251Y-88575053D01*
X239999435Y-88537538D01*
X240060952Y-88487053D01*
X240073601Y-88471640D01*
X240452773Y-88092468D01*
X240607400Y-88092468D01*
X240607400Y-88187532D01*
X240625946Y-88280769D01*
X240662326Y-88368597D01*
X240715140Y-88447640D01*
X240782360Y-88514860D01*
X240861403Y-88567674D01*
X240949231Y-88604054D01*
X241042468Y-88622600D01*
X241137532Y-88622600D01*
X241230769Y-88604054D01*
X241318597Y-88567674D01*
X241397640Y-88514860D01*
X241464860Y-88447640D01*
X241517674Y-88368597D01*
X241554054Y-88280769D01*
X241572600Y-88187532D01*
X241572600Y-88092468D01*
X241564644Y-88052468D01*
X244727400Y-88052468D01*
X244727400Y-88147532D01*
X244745946Y-88240769D01*
X244782326Y-88328597D01*
X244835140Y-88407640D01*
X244902360Y-88474860D01*
X244981403Y-88527674D01*
X245069231Y-88564054D01*
X245162468Y-88582600D01*
X245257532Y-88582600D01*
X245350769Y-88564054D01*
X245438597Y-88527674D01*
X245517640Y-88474860D01*
X245584860Y-88407640D01*
X245637674Y-88328597D01*
X245674054Y-88240769D01*
X245692600Y-88147532D01*
X245692600Y-88052468D01*
X245674054Y-87959231D01*
X245637674Y-87871403D01*
X245584860Y-87792360D01*
X245564968Y-87772468D01*
X247667400Y-87772468D01*
X247667400Y-87867532D01*
X247685946Y-87960769D01*
X247722326Y-88048597D01*
X247775140Y-88127640D01*
X247842360Y-88194860D01*
X247921403Y-88247674D01*
X248009231Y-88284054D01*
X248102468Y-88302600D01*
X248197532Y-88302600D01*
X248290769Y-88284054D01*
X248378597Y-88247674D01*
X248457640Y-88194860D01*
X248524860Y-88127640D01*
X248577674Y-88048597D01*
X248614054Y-87960769D01*
X248632600Y-87867532D01*
X248632600Y-87772468D01*
X248614054Y-87679231D01*
X248577674Y-87591403D01*
X248524860Y-87512360D01*
X248457640Y-87445140D01*
X248378597Y-87392326D01*
X248290769Y-87355946D01*
X248197532Y-87337400D01*
X248102468Y-87337400D01*
X248009231Y-87355946D01*
X247921403Y-87392326D01*
X247842360Y-87445140D01*
X247775140Y-87512360D01*
X247722326Y-87591403D01*
X247685946Y-87679231D01*
X247667400Y-87772468D01*
X245564968Y-87772468D01*
X245517640Y-87725140D01*
X245438597Y-87672326D01*
X245350769Y-87635946D01*
X245257532Y-87617400D01*
X245162468Y-87617400D01*
X245069231Y-87635946D01*
X244981403Y-87672326D01*
X244902360Y-87725140D01*
X244835140Y-87792360D01*
X244782326Y-87871403D01*
X244745946Y-87959231D01*
X244727400Y-88052468D01*
X241564644Y-88052468D01*
X241554054Y-87999231D01*
X241517674Y-87911403D01*
X241464860Y-87832360D01*
X241397640Y-87765140D01*
X241318597Y-87712326D01*
X241230769Y-87675946D01*
X241137532Y-87657400D01*
X241042468Y-87657400D01*
X240949231Y-87675946D01*
X240861403Y-87712326D01*
X240782360Y-87765140D01*
X240715140Y-87832360D01*
X240662326Y-87911403D01*
X240625946Y-87999231D01*
X240607400Y-88092468D01*
X240452773Y-88092468D01*
X241395640Y-87149601D01*
X242528158Y-87149601D01*
X242517401Y-87203679D01*
X242517401Y-87298743D01*
X242535947Y-87391980D01*
X242572327Y-87479808D01*
X242625141Y-87558851D01*
X242692361Y-87626071D01*
X242771404Y-87678885D01*
X242859232Y-87715265D01*
X242952469Y-87733811D01*
X243047533Y-87733811D01*
X243140770Y-87715265D01*
X243228598Y-87678885D01*
X243307641Y-87626071D01*
X243374861Y-87558851D01*
X243427675Y-87479808D01*
X243464055Y-87391980D01*
X243482601Y-87298743D01*
X243482601Y-87203679D01*
X243471844Y-87149601D01*
X245674562Y-87149601D01*
X245694399Y-87151555D01*
X245714236Y-87149601D01*
X245714239Y-87149601D01*
X245773597Y-87143755D01*
X245849751Y-87120654D01*
X245919935Y-87083139D01*
X245981452Y-87032654D01*
X245994101Y-87017241D01*
X246128874Y-86882468D01*
X249457400Y-86882468D01*
X249457400Y-86977532D01*
X249475946Y-87070769D01*
X249512326Y-87158597D01*
X249565140Y-87237640D01*
X249632360Y-87304860D01*
X249711403Y-87357674D01*
X249799231Y-87394054D01*
X249892468Y-87412600D01*
X249987532Y-87412600D01*
X250080769Y-87394054D01*
X250168597Y-87357674D01*
X250247640Y-87304860D01*
X250314860Y-87237640D01*
X250367674Y-87158597D01*
X250404054Y-87070769D01*
X250421618Y-86982468D01*
X250447400Y-86982468D01*
X250447400Y-87077532D01*
X250465946Y-87170769D01*
X250502326Y-87258597D01*
X250555140Y-87337640D01*
X250622360Y-87404860D01*
X250701403Y-87457674D01*
X250789231Y-87494054D01*
X250882468Y-87512600D01*
X250977532Y-87512600D01*
X251070769Y-87494054D01*
X251158597Y-87457674D01*
X251237640Y-87404860D01*
X251304860Y-87337640D01*
X251357674Y-87258597D01*
X251394054Y-87170769D01*
X251412600Y-87077532D01*
X251412600Y-86982468D01*
X251394054Y-86889231D01*
X251357674Y-86801403D01*
X251304860Y-86722360D01*
X251237640Y-86655140D01*
X251158597Y-86602326D01*
X251070769Y-86565946D01*
X250977532Y-86547400D01*
X250882468Y-86547400D01*
X250789231Y-86565946D01*
X250701403Y-86602326D01*
X250622360Y-86655140D01*
X250555140Y-86722360D01*
X250502326Y-86801403D01*
X250465946Y-86889231D01*
X250447400Y-86982468D01*
X250421618Y-86982468D01*
X250422600Y-86977532D01*
X250422600Y-86882468D01*
X250404054Y-86789231D01*
X250367674Y-86701403D01*
X250314860Y-86622360D01*
X250247640Y-86555140D01*
X250168597Y-86502326D01*
X250080769Y-86465946D01*
X249987532Y-86447400D01*
X249892468Y-86447400D01*
X249799231Y-86465946D01*
X249711403Y-86502326D01*
X249632360Y-86555140D01*
X249565140Y-86622360D01*
X249512326Y-86701403D01*
X249475946Y-86789231D01*
X249457400Y-86882468D01*
X246128874Y-86882468D01*
X246788874Y-86222468D01*
X248107400Y-86222468D01*
X248107400Y-86317532D01*
X248125946Y-86410769D01*
X248162326Y-86498597D01*
X248215140Y-86577640D01*
X248282360Y-86644860D01*
X248361403Y-86697674D01*
X248449231Y-86734054D01*
X248542468Y-86752600D01*
X248637532Y-86752600D01*
X248730769Y-86734054D01*
X248818597Y-86697674D01*
X248897640Y-86644860D01*
X248964860Y-86577640D01*
X249017674Y-86498597D01*
X249054054Y-86410769D01*
X249072600Y-86317532D01*
X249072600Y-86222468D01*
X249054054Y-86129231D01*
X249017674Y-86041403D01*
X248964860Y-85962360D01*
X248897640Y-85895140D01*
X248818597Y-85842326D01*
X248730769Y-85805946D01*
X248637532Y-85787400D01*
X248542468Y-85787400D01*
X248449231Y-85805946D01*
X248361403Y-85842326D01*
X248282360Y-85895140D01*
X248215140Y-85962360D01*
X248162326Y-86041403D01*
X248125946Y-86129231D01*
X248107400Y-86222468D01*
X246788874Y-86222468D01*
X248518874Y-84492468D01*
X250147400Y-84492468D01*
X250147400Y-84587532D01*
X250165946Y-84680769D01*
X250202326Y-84768597D01*
X250255140Y-84847640D01*
X250322360Y-84914860D01*
X250401403Y-84967674D01*
X250489231Y-85004054D01*
X250582468Y-85022600D01*
X250677532Y-85022600D01*
X250770769Y-85004054D01*
X250858597Y-84967674D01*
X250937640Y-84914860D01*
X251004860Y-84847640D01*
X251057674Y-84768597D01*
X251094054Y-84680769D01*
X251112600Y-84587532D01*
X251112600Y-84492468D01*
X251094054Y-84399231D01*
X251057674Y-84311403D01*
X251004860Y-84232360D01*
X250937640Y-84165140D01*
X250858597Y-84112326D01*
X250770769Y-84075946D01*
X250677532Y-84057400D01*
X250582468Y-84057400D01*
X250489231Y-84075946D01*
X250401403Y-84112326D01*
X250322360Y-84165140D01*
X250255140Y-84232360D01*
X250202326Y-84311403D01*
X250165946Y-84399231D01*
X250147400Y-84492468D01*
X248518874Y-84492468D01*
X251246000Y-81765342D01*
X251246000Y-82761237D01*
X251166115Y-82841122D01*
X251118913Y-82898638D01*
X251072113Y-82986195D01*
X251043293Y-83081199D01*
X251033562Y-83180000D01*
X251043293Y-83278801D01*
X251072113Y-83373805D01*
X251118913Y-83461362D01*
X251181895Y-83538105D01*
X251258638Y-83601087D01*
X251346195Y-83647887D01*
X251441199Y-83676707D01*
X251540000Y-83686438D01*
X251638801Y-83676707D01*
X251733805Y-83647887D01*
X251821362Y-83601087D01*
X251830940Y-83593227D01*
X251780900Y-83758186D01*
X251744772Y-84125000D01*
X251744772Y-87375000D01*
X251780900Y-87741814D01*
X251887896Y-88094532D01*
X252061648Y-88419599D01*
X252295478Y-88704522D01*
X252580401Y-88938352D01*
X252905468Y-89112104D01*
X253258186Y-89219100D01*
X253625000Y-89255228D01*
X257375000Y-89255228D01*
X257741814Y-89219100D01*
X258094532Y-89112104D01*
X258419599Y-88938352D01*
X258704522Y-88704522D01*
X258938352Y-88419599D01*
X259112104Y-88094532D01*
X259219100Y-87741814D01*
X259255228Y-87375000D01*
X259255228Y-84125000D01*
X259219100Y-83758186D01*
X259112104Y-83405468D01*
X258938352Y-83080401D01*
X258704522Y-82795478D01*
X258419599Y-82561648D01*
X258094532Y-82387896D01*
X257741814Y-82280900D01*
X257375000Y-82244772D01*
X253625000Y-82244772D01*
X253258186Y-82280900D01*
X252938119Y-82377992D01*
X252938210Y-82377532D01*
X252938210Y-82282468D01*
X252919664Y-82189231D01*
X252883284Y-82101403D01*
X252830470Y-82022360D01*
X252763250Y-81955140D01*
X252684207Y-81902326D01*
X252596379Y-81865946D01*
X252503142Y-81847400D01*
X252408078Y-81847400D01*
X252314841Y-81865946D01*
X252254000Y-81891147D01*
X252254000Y-80554754D01*
X252256438Y-80530000D01*
X252246707Y-80431199D01*
X252243640Y-80421088D01*
X252217888Y-80336195D01*
X252171088Y-80248638D01*
X252108106Y-80171894D01*
X252088873Y-80156110D01*
X250453890Y-78521127D01*
X250438106Y-78501894D01*
X250361362Y-78438912D01*
X250273805Y-78392112D01*
X250178801Y-78363293D01*
X250104754Y-78356000D01*
X250080000Y-78353562D01*
X250055246Y-78356000D01*
X248398764Y-78356000D01*
X245718878Y-75676115D01*
X245661362Y-75628913D01*
X245573805Y-75582113D01*
X245478801Y-75553293D01*
X245380000Y-75543562D01*
X245281199Y-75553293D01*
X245186195Y-75582113D01*
X245098638Y-75628913D01*
X245021895Y-75691895D01*
X244958913Y-75768638D01*
X244912113Y-75856195D01*
X244883293Y-75951199D01*
X244873562Y-76050000D01*
X244883293Y-76148801D01*
X244912113Y-76243805D01*
X244958913Y-76331362D01*
X245006115Y-76388878D01*
X247816114Y-79198878D01*
X247831894Y-79218106D01*
X247887123Y-79263431D01*
X247820769Y-79235946D01*
X247727532Y-79217400D01*
X247632468Y-79217400D01*
X247539231Y-79235946D01*
X247451403Y-79272326D01*
X247380000Y-79320035D01*
X247308597Y-79272326D01*
X247220769Y-79235946D01*
X247127532Y-79217400D01*
X247032468Y-79217400D01*
X246939231Y-79235946D01*
X246851403Y-79272326D01*
X246780000Y-79320035D01*
X246708597Y-79272326D01*
X246620769Y-79235946D01*
X246527532Y-79217400D01*
X246432468Y-79217400D01*
X246339231Y-79235946D01*
X246251403Y-79272326D01*
X246172360Y-79325140D01*
X246105140Y-79392360D01*
X246052326Y-79471403D01*
X246015946Y-79559231D01*
X245997400Y-79652468D01*
X245997400Y-79747532D01*
X246015946Y-79840769D01*
X246052326Y-79928597D01*
X246100035Y-80000000D01*
X246052326Y-80071403D01*
X246015946Y-80159231D01*
X245997400Y-80252468D01*
X245997400Y-80347532D01*
X246015946Y-80440769D01*
X246052326Y-80528597D01*
X246100035Y-80600000D01*
X246052326Y-80671403D01*
X246015946Y-80759231D01*
X245997400Y-80852468D01*
X245997400Y-80947532D01*
X246015946Y-81040769D01*
X246052326Y-81128597D01*
X246105140Y-81207640D01*
X246172360Y-81274860D01*
X246251403Y-81327674D01*
X246339231Y-81364054D01*
X246432468Y-81382600D01*
X246527532Y-81382600D01*
X246620769Y-81364054D01*
X246708597Y-81327674D01*
X246780000Y-81279965D01*
X246851403Y-81327674D01*
X246939231Y-81364054D01*
X247032468Y-81382600D01*
X247127532Y-81382600D01*
X247220769Y-81364054D01*
X247308597Y-81327674D01*
X247380000Y-81279965D01*
X247451403Y-81327674D01*
X247539231Y-81364054D01*
X247632468Y-81382600D01*
X247727532Y-81382600D01*
X247820769Y-81364054D01*
X247908597Y-81327674D01*
X247980000Y-81279965D01*
X248051403Y-81327674D01*
X248139231Y-81364054D01*
X248232468Y-81382600D01*
X248327532Y-81382600D01*
X248420769Y-81364054D01*
X248508597Y-81327674D01*
X248580000Y-81279965D01*
X248651403Y-81327674D01*
X248739231Y-81364054D01*
X248832468Y-81382600D01*
X248927532Y-81382600D01*
X249020769Y-81364054D01*
X249108597Y-81327674D01*
X249187640Y-81274860D01*
X249254860Y-81207640D01*
X249307674Y-81128597D01*
X249344054Y-81040769D01*
X249362600Y-80947532D01*
X249362600Y-80852468D01*
X249344054Y-80759231D01*
X249307674Y-80671403D01*
X249259965Y-80600000D01*
X249307674Y-80528597D01*
X249344054Y-80440769D01*
X249362600Y-80347532D01*
X249362600Y-80252468D01*
X249344054Y-80159231D01*
X249307674Y-80071403D01*
X249259965Y-80000000D01*
X249307674Y-79928597D01*
X249344054Y-79840769D01*
X249362600Y-79747532D01*
X249362600Y-79652468D01*
X249344054Y-79559231D01*
X249307674Y-79471403D01*
X249254860Y-79392360D01*
X249226500Y-79364000D01*
X249871237Y-79364000D01*
X250523837Y-80016600D01*
X250468528Y-80053555D01*
X250401308Y-80120775D01*
X250348494Y-80199818D01*
X250312114Y-80287646D01*
X250293568Y-80380883D01*
X250293568Y-80425090D01*
X245302658Y-85416000D01*
X238286721Y-85416000D01*
X238266884Y-85414046D01*
X238247046Y-85416000D01*
X238247044Y-85416000D01*
X238187686Y-85421846D01*
X238111532Y-85444947D01*
X238041348Y-85482461D01*
X238014314Y-85504648D01*
X237979831Y-85532947D01*
X237967184Y-85548358D01*
X237722875Y-85792667D01*
X235169240Y-85792667D01*
X235174000Y-85768735D01*
X235174000Y-85551265D01*
X235131574Y-85337975D01*
X235048352Y-85137060D01*
X234927533Y-84956241D01*
X234773759Y-84802467D01*
X234592940Y-84681648D01*
X234392025Y-84598426D01*
X234178735Y-84556000D01*
X233961265Y-84556000D01*
X233747975Y-84598426D01*
X233569421Y-84672386D01*
X233584054Y-84637059D01*
X233602600Y-84543822D01*
X233602600Y-84448758D01*
X233584054Y-84355521D01*
X233547674Y-84267693D01*
X233494860Y-84188650D01*
X233427640Y-84121430D01*
X233348597Y-84068616D01*
X233260769Y-84032236D01*
X233167532Y-84013690D01*
X233072468Y-84013690D01*
X232979231Y-84032236D01*
X232891403Y-84068616D01*
X232812360Y-84121430D01*
X232745140Y-84188650D01*
X232692326Y-84267693D01*
X232655946Y-84355521D01*
X232637400Y-84448758D01*
X219329000Y-84448758D01*
X219329000Y-78600000D01*
X219744772Y-78600000D01*
X219744772Y-81400000D01*
X219761205Y-81566847D01*
X219809872Y-81727282D01*
X219888904Y-81875139D01*
X219995262Y-82004738D01*
X220124861Y-82111096D01*
X220272718Y-82190128D01*
X220433153Y-82238795D01*
X220600000Y-82255228D01*
X223400000Y-82255228D01*
X223566847Y-82238795D01*
X223727282Y-82190128D01*
X223875139Y-82111096D01*
X224004738Y-82004738D01*
X224111096Y-81875139D01*
X224190128Y-81727282D01*
X224238795Y-81566847D01*
X224255228Y-81400000D01*
X224255228Y-78600000D01*
X224238795Y-78433153D01*
X224190128Y-78272718D01*
X224111096Y-78124861D01*
X224004738Y-77995262D01*
X223875139Y-77888904D01*
X223727282Y-77809872D01*
X223566847Y-77761205D01*
X223400000Y-77744772D01*
X220600000Y-77744772D01*
X220433153Y-77761205D01*
X220272718Y-77809872D01*
X220124861Y-77888904D01*
X219995262Y-77995262D01*
X219888904Y-78124861D01*
X219809872Y-78272718D01*
X219761205Y-78433153D01*
X219744772Y-78600000D01*
X219329000Y-78600000D01*
X219329000Y-76652468D01*
X219417400Y-76652468D01*
X219417400Y-76747532D01*
X219435946Y-76840769D01*
X219472326Y-76928597D01*
X219525140Y-77007640D01*
X219592360Y-77074860D01*
X219671403Y-77127674D01*
X219759231Y-77164054D01*
X219852468Y-77182600D01*
X219947532Y-77182600D01*
X220040769Y-77164054D01*
X220128597Y-77127674D01*
X220207640Y-77074860D01*
X220274860Y-77007640D01*
X220315959Y-76946130D01*
X220359231Y-76964054D01*
X220452468Y-76982600D01*
X220547532Y-76982600D01*
X220640769Y-76964054D01*
X220728597Y-76927674D01*
X220807640Y-76874860D01*
X220874860Y-76807640D01*
X220915959Y-76746130D01*
X220959231Y-76764054D01*
X221052468Y-76782600D01*
X221147532Y-76782600D01*
X221240769Y-76764054D01*
X221284041Y-76746130D01*
X221325140Y-76807640D01*
X221392360Y-76874860D01*
X221471403Y-76927674D01*
X221559231Y-76964054D01*
X221652468Y-76982600D01*
X221747532Y-76982600D01*
X221840769Y-76964054D01*
X221884041Y-76946130D01*
X221925140Y-77007640D01*
X221992360Y-77074860D01*
X222071403Y-77127674D01*
X222159231Y-77164054D01*
X222252468Y-77182600D01*
X222347532Y-77182600D01*
X222440769Y-77164054D01*
X222528597Y-77127674D01*
X222607640Y-77074860D01*
X222674860Y-77007640D01*
X222715959Y-76946130D01*
X222759231Y-76964054D01*
X222852468Y-76982600D01*
X222947532Y-76982600D01*
X223040769Y-76964054D01*
X223128597Y-76927674D01*
X223207640Y-76874860D01*
X223274860Y-76807640D01*
X223315959Y-76746130D01*
X223359231Y-76764054D01*
X223452468Y-76782600D01*
X223547532Y-76782600D01*
X223640769Y-76764054D01*
X223684041Y-76746130D01*
X223725140Y-76807640D01*
X223792360Y-76874860D01*
X223871403Y-76927674D01*
X223959231Y-76964054D01*
X224052468Y-76982600D01*
X224147532Y-76982600D01*
X224240769Y-76964054D01*
X224284041Y-76946130D01*
X224325140Y-77007640D01*
X224392360Y-77074860D01*
X224471403Y-77127674D01*
X224559231Y-77164054D01*
X224652468Y-77182600D01*
X224747532Y-77182600D01*
X224840769Y-77164054D01*
X224928597Y-77127674D01*
X225007640Y-77074860D01*
X225074860Y-77007640D01*
X225115959Y-76946130D01*
X225159231Y-76964054D01*
X225252468Y-76982600D01*
X225347532Y-76982600D01*
X225440769Y-76964054D01*
X225484041Y-76946130D01*
X225525140Y-77007640D01*
X225592360Y-77074860D01*
X225671403Y-77127674D01*
X225759231Y-77164054D01*
X225852468Y-77182600D01*
X225947532Y-77182600D01*
X226040769Y-77164054D01*
X226128597Y-77127674D01*
X226207640Y-77074860D01*
X226274860Y-77007640D01*
X226315959Y-76946130D01*
X226359231Y-76964054D01*
X226452468Y-76982600D01*
X226469298Y-76982600D01*
X226465140Y-76986758D01*
X226412326Y-77065801D01*
X226375946Y-77153629D01*
X226357400Y-77246866D01*
X226357400Y-77341930D01*
X226375946Y-77435167D01*
X226412326Y-77522995D01*
X226465140Y-77602038D01*
X226532360Y-77669258D01*
X226611403Y-77722072D01*
X226699231Y-77758452D01*
X226792468Y-77776998D01*
X226887532Y-77776998D01*
X226980769Y-77758452D01*
X227068597Y-77722072D01*
X227147640Y-77669258D01*
X227214860Y-77602038D01*
X227267674Y-77522995D01*
X227304054Y-77435167D01*
X227322600Y-77341930D01*
X227322600Y-77246866D01*
X227304054Y-77153629D01*
X227298472Y-77140152D01*
X227328597Y-77127674D01*
X227407640Y-77074860D01*
X227474860Y-77007640D01*
X227527674Y-76928597D01*
X227564054Y-76840769D01*
X227582600Y-76747532D01*
X227582600Y-76652468D01*
X227564054Y-76559231D01*
X227527674Y-76471403D01*
X227474860Y-76392360D01*
X227407640Y-76325140D01*
X227328597Y-76272326D01*
X227240769Y-76235946D01*
X227147532Y-76217400D01*
X227052468Y-76217400D01*
X226959231Y-76235946D01*
X226915959Y-76253870D01*
X226874860Y-76192360D01*
X226807640Y-76125140D01*
X226728597Y-76072326D01*
X226640769Y-76035946D01*
X226547532Y-76017400D01*
X226452468Y-76017400D01*
X226359231Y-76035946D01*
X226271403Y-76072326D01*
X226192360Y-76125140D01*
X226125140Y-76192360D01*
X226084041Y-76253870D01*
X226040769Y-76235946D01*
X225947532Y-76217400D01*
X225852468Y-76217400D01*
X225759231Y-76235946D01*
X225715959Y-76253870D01*
X225674860Y-76192360D01*
X225607640Y-76125140D01*
X225528597Y-76072326D01*
X225440769Y-76035946D01*
X225347532Y-76017400D01*
X225252468Y-76017400D01*
X225159231Y-76035946D01*
X225071403Y-76072326D01*
X224992360Y-76125140D01*
X224925140Y-76192360D01*
X224884041Y-76253870D01*
X224840769Y-76235946D01*
X224747532Y-76217400D01*
X224652468Y-76217400D01*
X224559231Y-76235946D01*
X224515959Y-76253870D01*
X224474860Y-76192360D01*
X224407640Y-76125140D01*
X224328597Y-76072326D01*
X224240769Y-76035946D01*
X224147532Y-76017400D01*
X224052468Y-76017400D01*
X223959231Y-76035946D01*
X223915959Y-76053870D01*
X223874860Y-75992360D01*
X223807640Y-75925140D01*
X223728597Y-75872326D01*
X223640769Y-75835946D01*
X223547532Y-75817400D01*
X223452468Y-75817400D01*
X223359231Y-75835946D01*
X223271403Y-75872326D01*
X223192360Y-75925140D01*
X223125140Y-75992360D01*
X223084041Y-76053870D01*
X223040769Y-76035946D01*
X222947532Y-76017400D01*
X222852468Y-76017400D01*
X222759231Y-76035946D01*
X222671403Y-76072326D01*
X222592360Y-76125140D01*
X222525140Y-76192360D01*
X222484041Y-76253870D01*
X222440769Y-76235946D01*
X222347532Y-76217400D01*
X222252468Y-76217400D01*
X222159231Y-76235946D01*
X222115959Y-76253870D01*
X222074860Y-76192360D01*
X222007640Y-76125140D01*
X221928597Y-76072326D01*
X221840769Y-76035946D01*
X221747532Y-76017400D01*
X221652468Y-76017400D01*
X221559231Y-76035946D01*
X221515959Y-76053870D01*
X221474860Y-75992360D01*
X221407640Y-75925140D01*
X221328597Y-75872326D01*
X221240769Y-75835946D01*
X221147532Y-75817400D01*
X221052468Y-75817400D01*
X220959231Y-75835946D01*
X220871403Y-75872326D01*
X220792360Y-75925140D01*
X220725140Y-75992360D01*
X220684041Y-76053870D01*
X220640769Y-76035946D01*
X220547532Y-76017400D01*
X220452468Y-76017400D01*
X220359231Y-76035946D01*
X220271403Y-76072326D01*
X220192360Y-76125140D01*
X220125140Y-76192360D01*
X220084041Y-76253870D01*
X220040769Y-76235946D01*
X219947532Y-76217400D01*
X219852468Y-76217400D01*
X219759231Y-76235946D01*
X219671403Y-76272326D01*
X219592360Y-76325140D01*
X219525140Y-76392360D01*
X219472326Y-76471403D01*
X219435946Y-76559231D01*
X219417400Y-76652468D01*
X219329000Y-76652468D01*
X219329000Y-72016093D01*
X219362372Y-71675738D01*
X219385238Y-71600000D01*
X219744772Y-71600000D01*
X219744772Y-74400000D01*
X219761205Y-74566847D01*
X219809872Y-74727282D01*
X219888904Y-74875139D01*
X219995262Y-75004738D01*
X220124861Y-75111096D01*
X220272718Y-75190128D01*
X220433153Y-75238795D01*
X220600000Y-75255228D01*
X223400000Y-75255228D01*
X223566847Y-75238795D01*
X223727282Y-75190128D01*
X223875139Y-75111096D01*
X224004738Y-75004738D01*
X224111096Y-74875139D01*
X224190128Y-74727282D01*
X224193912Y-74714806D01*
X231821800Y-74714806D01*
X231821800Y-74809870D01*
X231840346Y-74903107D01*
X231876726Y-74990935D01*
X231929540Y-75069978D01*
X231996760Y-75137198D01*
X232075803Y-75190012D01*
X232163631Y-75226392D01*
X232256868Y-75244938D01*
X232351932Y-75244938D01*
X232445169Y-75226392D01*
X232532997Y-75190012D01*
X232612040Y-75137198D01*
X232679260Y-75069978D01*
X232706481Y-75029238D01*
X233313010Y-75029238D01*
X233313010Y-75124302D01*
X233331556Y-75217539D01*
X233367936Y-75305367D01*
X233420750Y-75384410D01*
X233487970Y-75451630D01*
X233567013Y-75504444D01*
X233654841Y-75540824D01*
X233748078Y-75559370D01*
X233843142Y-75559370D01*
X233936379Y-75540824D01*
X234024207Y-75504444D01*
X234103250Y-75451630D01*
X234170470Y-75384410D01*
X234223284Y-75305367D01*
X234259664Y-75217539D01*
X234278210Y-75124302D01*
X234278210Y-75029238D01*
X234259664Y-74936001D01*
X234223284Y-74848173D01*
X234170470Y-74769130D01*
X234103250Y-74701910D01*
X234024207Y-74649096D01*
X233936379Y-74612716D01*
X233843142Y-74594170D01*
X233748078Y-74594170D01*
X233654841Y-74612716D01*
X233567013Y-74649096D01*
X233487970Y-74701910D01*
X233420750Y-74769130D01*
X233367936Y-74848173D01*
X233331556Y-74936001D01*
X233313010Y-75029238D01*
X232706481Y-75029238D01*
X232732074Y-74990935D01*
X232768454Y-74903107D01*
X232787000Y-74809870D01*
X232787000Y-74714806D01*
X232768454Y-74621569D01*
X232732074Y-74533741D01*
X232679260Y-74454698D01*
X232612040Y-74387478D01*
X232532997Y-74334664D01*
X232445169Y-74298284D01*
X232351932Y-74279738D01*
X232256868Y-74279738D01*
X232163631Y-74298284D01*
X232075803Y-74334664D01*
X231996760Y-74387478D01*
X231929540Y-74454698D01*
X231876726Y-74533741D01*
X231840346Y-74621569D01*
X231821800Y-74714806D01*
X224193912Y-74714806D01*
X224238795Y-74566847D01*
X224255228Y-74400000D01*
X224255228Y-71600000D01*
X224238795Y-71433153D01*
X224190128Y-71272718D01*
X224111096Y-71124861D01*
X224004738Y-70995262D01*
X223875139Y-70888904D01*
X223727282Y-70809872D01*
X223585477Y-70766856D01*
X225267400Y-70766856D01*
X225267400Y-70861920D01*
X225285946Y-70955157D01*
X225322326Y-71042985D01*
X225375140Y-71122028D01*
X225442360Y-71189248D01*
X225521403Y-71242062D01*
X225609231Y-71278442D01*
X225702468Y-71296988D01*
X225797532Y-71296988D01*
X225890769Y-71278442D01*
X225978597Y-71242062D01*
X226057640Y-71189248D01*
X226124860Y-71122028D01*
X226177674Y-71042985D01*
X226214054Y-70955157D01*
X226232600Y-70861920D01*
X226232600Y-70766856D01*
X226214054Y-70673619D01*
X226177674Y-70585791D01*
X226124860Y-70506748D01*
X226057640Y-70439528D01*
X225978597Y-70386714D01*
X225890769Y-70350334D01*
X225797532Y-70331788D01*
X225702468Y-70331788D01*
X225609231Y-70350334D01*
X225521403Y-70386714D01*
X225442360Y-70439528D01*
X225375140Y-70506748D01*
X225322326Y-70585791D01*
X225285946Y-70673619D01*
X225267400Y-70766856D01*
X223585477Y-70766856D01*
X223566847Y-70761205D01*
X223400000Y-70744772D01*
X220600000Y-70744772D01*
X220433153Y-70761205D01*
X220272718Y-70809872D01*
X220124861Y-70888904D01*
X219995262Y-70995262D01*
X219888904Y-71124861D01*
X219809872Y-71272718D01*
X219761205Y-71433153D01*
X219744772Y-71600000D01*
X219385238Y-71600000D01*
X219456542Y-71363835D01*
X219609501Y-71076159D01*
X219815425Y-70823671D01*
X220066472Y-70615986D01*
X220353069Y-70461023D01*
X220664317Y-70364676D01*
X221003748Y-70329000D01*
X229321515Y-70329000D01*
X229238639Y-70373298D01*
G37*
X229238639Y-70373298D02*
X229161895Y-70436280D01*
X229098913Y-70513024D01*
X229052113Y-70600581D01*
X229023293Y-70695585D01*
X229016000Y-70769632D01*
X229016000Y-71092921D01*
X229013562Y-71117675D01*
X229016000Y-71142428D01*
X229023293Y-71216475D01*
X229052112Y-71311479D01*
X229098912Y-71399037D01*
X229161894Y-71475781D01*
X229181127Y-71491565D01*
X231524040Y-73834479D01*
X231539820Y-73853707D01*
X231616564Y-73916689D01*
X231704121Y-73963489D01*
X231753926Y-73978597D01*
X231799124Y-73992308D01*
X231897925Y-74002039D01*
X231922679Y-73999601D01*
X236707635Y-73999601D01*
X234081237Y-76626000D01*
X232582437Y-76626000D01*
X232557686Y-76623562D01*
X232532935Y-76626000D01*
X232532933Y-76626000D01*
X232530786Y-76626211D01*
X232607640Y-76574860D01*
X232674860Y-76507640D01*
X232727674Y-76428597D01*
X232764054Y-76340769D01*
X232782600Y-76247532D01*
X232782600Y-76152468D01*
X232764054Y-76059231D01*
X232727674Y-75971403D01*
X232674860Y-75892360D01*
X232607640Y-75825140D01*
X232528597Y-75772326D01*
X232440769Y-75735946D01*
X232347532Y-75717400D01*
X232252468Y-75717400D01*
X232159231Y-75735946D01*
X232071403Y-75772326D01*
X232000000Y-75820035D01*
X231928597Y-75772326D01*
X231840769Y-75735946D01*
X231747532Y-75717400D01*
X231652468Y-75717400D01*
X231559231Y-75735946D01*
X231471403Y-75772326D01*
X231400000Y-75820035D01*
X231328597Y-75772326D01*
X231240769Y-75735946D01*
X231147532Y-75717400D01*
X231052468Y-75717400D01*
X230959231Y-75735946D01*
X230871403Y-75772326D01*
X230792360Y-75825140D01*
X230725140Y-75892360D01*
X230672326Y-75971403D01*
X230635946Y-76059231D01*
X230617400Y-76152468D01*
X230617400Y-76247532D01*
X230628535Y-76303513D01*
X230547532Y-76287400D01*
X230452468Y-76287400D01*
X230359231Y-76305946D01*
X230271403Y-76342326D01*
X230192360Y-76395140D01*
X230125140Y-76462360D01*
X230072326Y-76541403D01*
X230035946Y-76629231D01*
X230017400Y-76722468D01*
X230017400Y-76811682D01*
X229952360Y-76855140D01*
X229885140Y-76922360D01*
X229832326Y-77001403D01*
X229795946Y-77089231D01*
X229777400Y-77182468D01*
X229777400Y-77277532D01*
X229795946Y-77370769D01*
X229832326Y-77458597D01*
X229885140Y-77537640D01*
X229952360Y-77604860D01*
X230031403Y-77657674D01*
X230119231Y-77694054D01*
X230212468Y-77712600D01*
X230307532Y-77712600D01*
X230400769Y-77694054D01*
X230488597Y-77657674D01*
X230532517Y-77628328D01*
X230591403Y-77667674D01*
X230679231Y-77704054D01*
X230772468Y-77722600D01*
X230867532Y-77722600D01*
X230960769Y-77704054D01*
X231048597Y-77667674D01*
X231070523Y-77653023D01*
X231092360Y-77674860D01*
X231171403Y-77727674D01*
X231225034Y-77749889D01*
X225664526Y-83310398D01*
X225525246Y-83310398D01*
X225451199Y-83317691D01*
X225356195Y-83346510D01*
X225268638Y-83393310D01*
X225191894Y-83456292D01*
X225128912Y-83533036D01*
X225082112Y-83620593D01*
X225053293Y-83715597D01*
X225043562Y-83814398D01*
X225053293Y-83913199D01*
X225082112Y-84008203D01*
X225128912Y-84095760D01*
X225191894Y-84172504D01*
X225268638Y-84235486D01*
X225356195Y-84282286D01*
X225451199Y-84311105D01*
X225525246Y-84318398D01*
X225848535Y-84318398D01*
X225873289Y-84320836D01*
X225972090Y-84311105D01*
X226067094Y-84282286D01*
X226154651Y-84235486D01*
X226231395Y-84172504D01*
X226247179Y-84153271D01*
X226463882Y-83936568D01*
X226480558Y-83976827D01*
X226533372Y-84055870D01*
X226600592Y-84123090D01*
X226679635Y-84175904D01*
X226767463Y-84212284D01*
X226860700Y-84230830D01*
X226955764Y-84230830D01*
X227049001Y-84212284D01*
X227136829Y-84175904D01*
X227215872Y-84123090D01*
X227283092Y-84055870D01*
X227335906Y-83976827D01*
X227372286Y-83888999D01*
X227390832Y-83795762D01*
X227390832Y-83700698D01*
X227372286Y-83607461D01*
X227335906Y-83519633D01*
X227283092Y-83440590D01*
X227215872Y-83373370D01*
X227136829Y-83320556D01*
X227096570Y-83303880D01*
X227420452Y-82979998D01*
X230823562Y-82979998D01*
X230833293Y-83078799D01*
X230862112Y-83173803D01*
X230908912Y-83261360D01*
X230971894Y-83338104D01*
X231048638Y-83401086D01*
X231136195Y-83447886D01*
X231231199Y-83476705D01*
X231305246Y-83483998D01*
X231681623Y-83483998D01*
X231654668Y-83510953D01*
X231601854Y-83589996D01*
X231565474Y-83677824D01*
X231546928Y-83771061D01*
X231546928Y-83866125D01*
X231565474Y-83959362D01*
X231601854Y-84047190D01*
X231654668Y-84126233D01*
X231721888Y-84193453D01*
X231800931Y-84246267D01*
X231888759Y-84282647D01*
X231981996Y-84301193D01*
X232077060Y-84301193D01*
X232170297Y-84282647D01*
X232258125Y-84246267D01*
X232337168Y-84193453D01*
X232404388Y-84126233D01*
X232457202Y-84047190D01*
X232493582Y-83959362D01*
X232512128Y-83866125D01*
X232512128Y-83771061D01*
X232493582Y-83677824D01*
X232457202Y-83589996D01*
X232404388Y-83510953D01*
X232377433Y-83483998D01*
X232425248Y-83483998D01*
X232450002Y-83486436D01*
X232548803Y-83476705D01*
X232552709Y-83475520D01*
X232643807Y-83447886D01*
X232731364Y-83401086D01*
X232808108Y-83338104D01*
X232823892Y-83318871D01*
X233783657Y-82359106D01*
X233788467Y-82383290D01*
X233824847Y-82471118D01*
X233877661Y-82550161D01*
X233944881Y-82617381D01*
X234023924Y-82670195D01*
X234111752Y-82706575D01*
X234204989Y-82725121D01*
X234300053Y-82725121D01*
X234393290Y-82706575D01*
X234481118Y-82670195D01*
X234560161Y-82617381D01*
X234627381Y-82550161D01*
X234680195Y-82471118D01*
X234716575Y-82383290D01*
X234735121Y-82290053D01*
X234735121Y-82194989D01*
X234716575Y-82101752D01*
X234680195Y-82013924D01*
X234627381Y-81934881D01*
X234560161Y-81867661D01*
X234481118Y-81814847D01*
X234393290Y-81778467D01*
X234369106Y-81773657D01*
X235768873Y-80373890D01*
X235788106Y-80358106D01*
X235851088Y-80281362D01*
X235897888Y-80193805D01*
X235926707Y-80098801D01*
X235934000Y-80024754D01*
X235936438Y-80000000D01*
X235934000Y-79975246D01*
X235934000Y-78125246D01*
X235926707Y-78051199D01*
X235897888Y-77956195D01*
X235851088Y-77868638D01*
X235788106Y-77791894D01*
X235711362Y-77728912D01*
X235623804Y-77682112D01*
X235528800Y-77653293D01*
X235430000Y-77643562D01*
X235331199Y-77653293D01*
X235236195Y-77682112D01*
X235148638Y-77728912D01*
X235071894Y-77791894D01*
X235008912Y-77868638D01*
X234962112Y-77956196D01*
X234933293Y-78051200D01*
X234926000Y-78125247D01*
X234926001Y-79791236D01*
X232841780Y-81875457D01*
X232827674Y-81841403D01*
X232774860Y-81762360D01*
X232740980Y-81728480D01*
X232787674Y-81658597D01*
X232824054Y-81570769D01*
X232842600Y-81477532D01*
X232842600Y-81382468D01*
X232824054Y-81289231D01*
X232787674Y-81201403D01*
X232734860Y-81122360D01*
X232667640Y-81055140D01*
X232588597Y-81002326D01*
X232500769Y-80965946D01*
X232407532Y-80947400D01*
X232312468Y-80947400D01*
X232219231Y-80965946D01*
X232131403Y-81002326D01*
X232052360Y-81055140D01*
X231985140Y-81122360D01*
X231932326Y-81201403D01*
X231895946Y-81289231D01*
X231877400Y-81382468D01*
X231877400Y-81477532D01*
X231895946Y-81570769D01*
X231932326Y-81658597D01*
X231985140Y-81737640D01*
X232019020Y-81771520D01*
X231972326Y-81841403D01*
X231935946Y-81929231D01*
X231917400Y-82022468D01*
X231917400Y-82117532D01*
X231935946Y-82210769D01*
X231972326Y-82298597D01*
X232025140Y-82377640D01*
X232092360Y-82444860D01*
X232138962Y-82475998D01*
X231305246Y-82475998D01*
X231231199Y-82483291D01*
X231136195Y-82512110D01*
X231048638Y-82558910D01*
X230971894Y-82621892D01*
X230908912Y-82698636D01*
X230862112Y-82786193D01*
X230833293Y-82881197D01*
X230823562Y-82979998D01*
X227420452Y-82979998D01*
X230455957Y-79944493D01*
X231785041Y-79944493D01*
X231785041Y-80039557D01*
X231803587Y-80132794D01*
X231839967Y-80220622D01*
X231892781Y-80299665D01*
X231960001Y-80366885D01*
X232039044Y-80419699D01*
X232126872Y-80456079D01*
X232220109Y-80474625D01*
X232315173Y-80474625D01*
X232408410Y-80456079D01*
X232496238Y-80419699D01*
X232575281Y-80366885D01*
X232642501Y-80299665D01*
X232695315Y-80220622D01*
X232731695Y-80132794D01*
X232750241Y-80039557D01*
X232750241Y-79944493D01*
X232731695Y-79851256D01*
X232706031Y-79789298D01*
X232727640Y-79774860D01*
X232794860Y-79707640D01*
X232847674Y-79628597D01*
X232884054Y-79540769D01*
X232902600Y-79447532D01*
X232902600Y-79352468D01*
X232884054Y-79259231D01*
X232847674Y-79171403D01*
X232794860Y-79092360D01*
X232727640Y-79025140D01*
X232648597Y-78972326D01*
X232560769Y-78935946D01*
X232467532Y-78917400D01*
X232372468Y-78917400D01*
X232279231Y-78935946D01*
X232191403Y-78972326D01*
X232112360Y-79025140D01*
X232045140Y-79092360D01*
X231992326Y-79171403D01*
X231955946Y-79259231D01*
X231937400Y-79352468D01*
X231937400Y-79447532D01*
X231955946Y-79540769D01*
X231981610Y-79602727D01*
X231960001Y-79617165D01*
X231892781Y-79684385D01*
X231839967Y-79763428D01*
X231803587Y-79851256D01*
X231785041Y-79944493D01*
X230455957Y-79944493D01*
X231923308Y-78477142D01*
X233277684Y-78477142D01*
X233277684Y-78572206D01*
X233296230Y-78665443D01*
X233332610Y-78753271D01*
X233385424Y-78832314D01*
X233452644Y-78899534D01*
X233531687Y-78952348D01*
X233619515Y-78988728D01*
X233712752Y-79007274D01*
X233807816Y-79007274D01*
X233901053Y-78988728D01*
X233988881Y-78952348D01*
X234067924Y-78899534D01*
X234135144Y-78832314D01*
X234187958Y-78753271D01*
X234224338Y-78665443D01*
X234242884Y-78572206D01*
X234242884Y-78477142D01*
X234224338Y-78383905D01*
X234187958Y-78296077D01*
X234135144Y-78217034D01*
X234067924Y-78149814D01*
X233988881Y-78097000D01*
X233901053Y-78060620D01*
X233807816Y-78042074D01*
X233712752Y-78042074D01*
X233619515Y-78060620D01*
X233531687Y-78097000D01*
X233452644Y-78149814D01*
X233385424Y-78217034D01*
X233332610Y-78296077D01*
X233296230Y-78383905D01*
X233277684Y-78477142D01*
X231923308Y-78477142D01*
X232766451Y-77634000D01*
X234265246Y-77634000D01*
X234290000Y-77636438D01*
X234388801Y-77626707D01*
X234394890Y-77624860D01*
X234483805Y-77597888D01*
X234571362Y-77551088D01*
X234648106Y-77488106D01*
X234663890Y-77468873D01*
X237466001Y-74666763D01*
X237466000Y-78477947D01*
X236501123Y-79442825D01*
X236481895Y-79458605D01*
X236418913Y-79535349D01*
X236372113Y-79622906D01*
X236343293Y-79717910D01*
X236339932Y-79752040D01*
X236333562Y-79816711D01*
X236336000Y-79841465D01*
X236336000Y-81036302D01*
X236286226Y-80986528D01*
X236207183Y-80933714D01*
X236119355Y-80897334D01*
X236026118Y-80878788D01*
X235931054Y-80878788D01*
X235837817Y-80897334D01*
X235749989Y-80933714D01*
X235670946Y-80986528D01*
X235603726Y-81053748D01*
X235550912Y-81132791D01*
X235514532Y-81220619D01*
X235495986Y-81313856D01*
X235495986Y-81408920D01*
X235514532Y-81502157D01*
X235550912Y-81589985D01*
X235603726Y-81669028D01*
X235670946Y-81736248D01*
X235749989Y-81789062D01*
X235837817Y-81825442D01*
X235931054Y-81843988D01*
X236026118Y-81843988D01*
X236119355Y-81825442D01*
X236207183Y-81789062D01*
X236286226Y-81736248D01*
X236336001Y-81686473D01*
X236336001Y-82275237D01*
X236333562Y-82300000D01*
X236343293Y-82398801D01*
X236367550Y-82478764D01*
X236372113Y-82493805D01*
X236418913Y-82581362D01*
X236456658Y-82627355D01*
X236449626Y-82625956D01*
X236354562Y-82625956D01*
X236261325Y-82644502D01*
X236173497Y-82680882D01*
X236094454Y-82733696D01*
X236027234Y-82800916D01*
X235974420Y-82879959D01*
X235938040Y-82967787D01*
X235919494Y-83061024D01*
X235919494Y-83156088D01*
X235938040Y-83249325D01*
X235974420Y-83337153D01*
X236027234Y-83416196D01*
X236094454Y-83483416D01*
X236173497Y-83536230D01*
X236261325Y-83572610D01*
X236354562Y-83591156D01*
X236449626Y-83591156D01*
X236542863Y-83572610D01*
X236630691Y-83536230D01*
X236709734Y-83483416D01*
X236776954Y-83416196D01*
X236829768Y-83337153D01*
X236866148Y-83249325D01*
X236884694Y-83156088D01*
X236884694Y-83061024D01*
X236883808Y-83056571D01*
X238066110Y-84238873D01*
X238081894Y-84258106D01*
X238158638Y-84321088D01*
X238246195Y-84367888D01*
X238321624Y-84390769D01*
X238341199Y-84396707D01*
X238440000Y-84406438D01*
X238464754Y-84404000D01*
X245059635Y-84404000D01*
X245084389Y-84406438D01*
X245183190Y-84396707D01*
X245278194Y-84367888D01*
X245365751Y-84321088D01*
X245442495Y-84258106D01*
X245458279Y-84238873D01*
X245827326Y-83869826D01*
X245862360Y-83904860D01*
X245941403Y-83957674D01*
X246029231Y-83994054D01*
X246122468Y-84012600D01*
X246217532Y-84012600D01*
X246310769Y-83994054D01*
X246398597Y-83957674D01*
X246477640Y-83904860D01*
X246544860Y-83837640D01*
X246597674Y-83758597D01*
X246634054Y-83670769D01*
X246652600Y-83577532D01*
X246652600Y-83482468D01*
X246634054Y-83389231D01*
X246597674Y-83301403D01*
X246544860Y-83222360D01*
X246477640Y-83155140D01*
X246398597Y-83102326D01*
X246310769Y-83065946D01*
X246217532Y-83047400D01*
X246122468Y-83047400D01*
X246029231Y-83065946D01*
X245941403Y-83102326D01*
X245938863Y-83104023D01*
X245912495Y-83071894D01*
X245835752Y-83008912D01*
X245748196Y-82962112D01*
X245653191Y-82933292D01*
X245554390Y-82923561D01*
X245546995Y-82924289D01*
X245534054Y-82859231D01*
X245497674Y-82771403D01*
X245444860Y-82692360D01*
X245377640Y-82625140D01*
X245298597Y-82572326D01*
X245210769Y-82535946D01*
X245117532Y-82517400D01*
X245022468Y-82517400D01*
X244929231Y-82535946D01*
X244841403Y-82572326D01*
X244762360Y-82625140D01*
X244695140Y-82692360D01*
X244652215Y-82756603D01*
X244633567Y-82728695D01*
X244566347Y-82661475D01*
X244487304Y-82608661D01*
X244399476Y-82572281D01*
X244306239Y-82553735D01*
X244211175Y-82553735D01*
X244117938Y-82572281D01*
X244030110Y-82608661D01*
X243951067Y-82661475D01*
X243883847Y-82728695D01*
X243831033Y-82807738D01*
X243794653Y-82895566D01*
X243776107Y-82988803D01*
X243776107Y-83083867D01*
X243794653Y-83177104D01*
X243831033Y-83264932D01*
X243883847Y-83343975D01*
X243935872Y-83396000D01*
X239911685Y-83396000D01*
X239978597Y-83368284D01*
X240057640Y-83315470D01*
X240124860Y-83248250D01*
X240177674Y-83169207D01*
X240214054Y-83081379D01*
X240232600Y-82988142D01*
X240232600Y-82893078D01*
X240214054Y-82799841D01*
X240177674Y-82712013D01*
X240157782Y-82682241D01*
X240209858Y-82692600D01*
X240304922Y-82692600D01*
X240398159Y-82674054D01*
X240485987Y-82637674D01*
X240565030Y-82584860D01*
X240632250Y-82517640D01*
X240685064Y-82438597D01*
X240721444Y-82350769D01*
X240739990Y-82257532D01*
X240739990Y-82162468D01*
X240721444Y-82069231D01*
X240685064Y-81981403D01*
X240632250Y-81902360D01*
X240565030Y-81835140D01*
X240485987Y-81782326D01*
X240398159Y-81745946D01*
X240304922Y-81727400D01*
X240209858Y-81727400D01*
X240116621Y-81745946D01*
X240028793Y-81782326D01*
X239949750Y-81835140D01*
X239882530Y-81902360D01*
X239829716Y-81981403D01*
X239793336Y-82069231D01*
X239774790Y-82162468D01*
X239774790Y-82257532D01*
X239793336Y-82350769D01*
X239829716Y-82438597D01*
X239849608Y-82468369D01*
X239848975Y-82468243D01*
X239294000Y-81913268D01*
X239294000Y-80362468D01*
X240277400Y-80362468D01*
X240277400Y-80457532D01*
X240295946Y-80550769D01*
X240332326Y-80638597D01*
X240385140Y-80717640D01*
X240452360Y-80784860D01*
X240531403Y-80837674D01*
X240619231Y-80874054D01*
X240712468Y-80892600D01*
X240807532Y-80892600D01*
X240900769Y-80874054D01*
X240988597Y-80837674D01*
X241067640Y-80784860D01*
X241134860Y-80717640D01*
X241187674Y-80638597D01*
X241224054Y-80550769D01*
X241242600Y-80457532D01*
X241242600Y-80362468D01*
X241224054Y-80269231D01*
X241208881Y-80232600D01*
X241297532Y-80232600D01*
X241390769Y-80214054D01*
X241478597Y-80177674D01*
X241557640Y-80124860D01*
X241624860Y-80057640D01*
X241677674Y-79978597D01*
X241687573Y-79954698D01*
X241722326Y-80038597D01*
X241775140Y-80117640D01*
X241842360Y-80184860D01*
X241921403Y-80237674D01*
X242009231Y-80274054D01*
X242102468Y-80292600D01*
X242197532Y-80292600D01*
X242290769Y-80274054D01*
X242378597Y-80237674D01*
X242457640Y-80184860D01*
X242524860Y-80117640D01*
X242577674Y-80038597D01*
X242614054Y-79950769D01*
X242632600Y-79857532D01*
X242632600Y-79762468D01*
X242614698Y-79672466D01*
X242797400Y-79672466D01*
X242797400Y-79767530D01*
X242815946Y-79860767D01*
X242852326Y-79948595D01*
X242905140Y-80027638D01*
X242972360Y-80094858D01*
X243051403Y-80147672D01*
X243139231Y-80184052D01*
X243232468Y-80202598D01*
X243327532Y-80202598D01*
X243420769Y-80184052D01*
X243508597Y-80147672D01*
X243587640Y-80094858D01*
X243654860Y-80027638D01*
X243707674Y-79948595D01*
X243744054Y-79860767D01*
X243762600Y-79767530D01*
X243762600Y-79672466D01*
X243744054Y-79579229D01*
X243707674Y-79491401D01*
X243654860Y-79412358D01*
X243587640Y-79345138D01*
X243508597Y-79292324D01*
X243420769Y-79255944D01*
X243327532Y-79237398D01*
X243232468Y-79237398D01*
X243139231Y-79255944D01*
X243051403Y-79292324D01*
X242972360Y-79345138D01*
X242905140Y-79412358D01*
X242852326Y-79491401D01*
X242815946Y-79579229D01*
X242797400Y-79672466D01*
X242614698Y-79672466D01*
X242614054Y-79669231D01*
X242577674Y-79581403D01*
X242524860Y-79502360D01*
X242457640Y-79435140D01*
X242378597Y-79382326D01*
X242290769Y-79345946D01*
X242197532Y-79327400D01*
X242102468Y-79327400D01*
X242009231Y-79345946D01*
X241921403Y-79382326D01*
X241842360Y-79435140D01*
X241775140Y-79502360D01*
X241722326Y-79581403D01*
X241712427Y-79605302D01*
X241677674Y-79521403D01*
X241624860Y-79442360D01*
X241557640Y-79375140D01*
X241478597Y-79322326D01*
X241390769Y-79285946D01*
X241297532Y-79267400D01*
X241202468Y-79267400D01*
X241109231Y-79285946D01*
X241021403Y-79322326D01*
X240942360Y-79375140D01*
X240875140Y-79442360D01*
X240822326Y-79521403D01*
X240785946Y-79609231D01*
X240767400Y-79702468D01*
X240767400Y-79797532D01*
X240785946Y-79890769D01*
X240801119Y-79927400D01*
X240712468Y-79927400D01*
X240619231Y-79945946D01*
X240531403Y-79982326D01*
X240452360Y-80035140D01*
X240385140Y-80102360D01*
X240332326Y-80181403D01*
X240295946Y-80269231D01*
X240277400Y-80362468D01*
X239294000Y-80362468D01*
X239294000Y-77516001D01*
X239341403Y-77547674D01*
X239429231Y-77584054D01*
X239522468Y-77602600D01*
X239617532Y-77602600D01*
X239710769Y-77584054D01*
X239798597Y-77547674D01*
X239870000Y-77499965D01*
X239941403Y-77547674D01*
X240029231Y-77584054D01*
X240122468Y-77602600D01*
X240217532Y-77602600D01*
X240310769Y-77584054D01*
X240398597Y-77547674D01*
X240470000Y-77499965D01*
X240541403Y-77547674D01*
X240629231Y-77584054D01*
X240722468Y-77602600D01*
X240817532Y-77602600D01*
X240910769Y-77584054D01*
X240998597Y-77547674D01*
X241070000Y-77499965D01*
X241141403Y-77547674D01*
X241229231Y-77584054D01*
X241322468Y-77602600D01*
X241417532Y-77602600D01*
X241510769Y-77584054D01*
X241598597Y-77547674D01*
X241677640Y-77494860D01*
X241744860Y-77427640D01*
X241797674Y-77348597D01*
X241812639Y-77312468D01*
X244677400Y-77312468D01*
X244677400Y-77407532D01*
X244695946Y-77500769D01*
X244732326Y-77588597D01*
X244785140Y-77667640D01*
X244852360Y-77734860D01*
X244931403Y-77787674D01*
X245019231Y-77824054D01*
X245112468Y-77842600D01*
X245207532Y-77842600D01*
X245300769Y-77824054D01*
X245388597Y-77787674D01*
X245467640Y-77734860D01*
X245534860Y-77667640D01*
X245587674Y-77588597D01*
X245624054Y-77500769D01*
X245642600Y-77407532D01*
X245642600Y-77312468D01*
X245624054Y-77219231D01*
X245587674Y-77131403D01*
X245534860Y-77052360D01*
X245467640Y-76985140D01*
X245388597Y-76932326D01*
X245300769Y-76895946D01*
X245207532Y-76877400D01*
X245112468Y-76877400D01*
X245019231Y-76895946D01*
X244931403Y-76932326D01*
X244852360Y-76985140D01*
X244785140Y-77052360D01*
X244732326Y-77131403D01*
X244695946Y-77219231D01*
X244677400Y-77312468D01*
X241812639Y-77312468D01*
X241834054Y-77260769D01*
X241852600Y-77167532D01*
X241852600Y-77072468D01*
X241834054Y-76979231D01*
X241797674Y-76891403D01*
X241749965Y-76820000D01*
X241797674Y-76748597D01*
X241834054Y-76660769D01*
X241852600Y-76567532D01*
X241852600Y-76472468D01*
X241834054Y-76379231D01*
X241797674Y-76291403D01*
X241749965Y-76220000D01*
X241797674Y-76148597D01*
X241834054Y-76060769D01*
X241852600Y-75967532D01*
X241852600Y-75872468D01*
X241834054Y-75779231D01*
X241797674Y-75691403D01*
X241744860Y-75612360D01*
X241677640Y-75545140D01*
X241598597Y-75492326D01*
X241510769Y-75455946D01*
X241417532Y-75437400D01*
X241322468Y-75437400D01*
X241229231Y-75455946D01*
X241141403Y-75492326D01*
X241070000Y-75540035D01*
X240998597Y-75492326D01*
X240910769Y-75455946D01*
X240817532Y-75437400D01*
X240722468Y-75437400D01*
X240629231Y-75455946D01*
X240541403Y-75492326D01*
X240470000Y-75540035D01*
X240398597Y-75492326D01*
X240310769Y-75455946D01*
X240217532Y-75437400D01*
X240122468Y-75437400D01*
X240029231Y-75455946D01*
X239941403Y-75492326D01*
X239870000Y-75540035D01*
X239798597Y-75492326D01*
X239710769Y-75455946D01*
X239617532Y-75437400D01*
X239522468Y-75437400D01*
X239429231Y-75455946D01*
X239341403Y-75492326D01*
X239294000Y-75523999D01*
X239294000Y-74590000D01*
X248504772Y-74590000D01*
X248504772Y-76290000D01*
X248509676Y-76339793D01*
X248524200Y-76387672D01*
X248547786Y-76431797D01*
X248579527Y-76470473D01*
X248618203Y-76502214D01*
X248662328Y-76525800D01*
X248710207Y-76540324D01*
X248760000Y-76545228D01*
X250460000Y-76545228D01*
X250509793Y-76540324D01*
X250557672Y-76525800D01*
X250601797Y-76502214D01*
X250640473Y-76470473D01*
X250672214Y-76431797D01*
X250695800Y-76387672D01*
X250710324Y-76339793D01*
X250715228Y-76290000D01*
X250715228Y-74590000D01*
X250710324Y-74540207D01*
X250695800Y-74492328D01*
X250672214Y-74448203D01*
X250640473Y-74409527D01*
X250601797Y-74377786D01*
X250557672Y-74354200D01*
X250509793Y-74339676D01*
X250460000Y-74334772D01*
X248760000Y-74334772D01*
X248710207Y-74339676D01*
X248662328Y-74354200D01*
X248618203Y-74377786D01*
X248579527Y-74409527D01*
X248547786Y-74448203D01*
X248524200Y-74492328D01*
X248509676Y-74540207D01*
X248504772Y-74590000D01*
X239294000Y-74590000D01*
X239294000Y-74139837D01*
X239295954Y-74119999D01*
X239292014Y-74080000D01*
X239288154Y-74040802D01*
X239265053Y-73964648D01*
X239237104Y-73912360D01*
X239227538Y-73894463D01*
X239189699Y-73848357D01*
X239177053Y-73832947D01*
X239161640Y-73820298D01*
X238115254Y-72773912D01*
X238178597Y-72747674D01*
X238257640Y-72694860D01*
X238324860Y-72627640D01*
X238377674Y-72548597D01*
X238414054Y-72460769D01*
X238432600Y-72367532D01*
X238432600Y-72272468D01*
X238414054Y-72179231D01*
X238377674Y-72091403D01*
X238324860Y-72012360D01*
X238257640Y-71945140D01*
X238178597Y-71892326D01*
X238090769Y-71855946D01*
X237997532Y-71837400D01*
X237902468Y-71837400D01*
X237809231Y-71855946D01*
X237721403Y-71892326D01*
X237700000Y-71906627D01*
X237678597Y-71892326D01*
X237590769Y-71855946D01*
X237497532Y-71837400D01*
X237402468Y-71837400D01*
X237309231Y-71855946D01*
X237221403Y-71892326D01*
X237192511Y-71911631D01*
X237178597Y-71902334D01*
X237090769Y-71865954D01*
X236997532Y-71847408D01*
X236902468Y-71847408D01*
X236809231Y-71865954D01*
X236721403Y-71902334D01*
X236642360Y-71955148D01*
X236575140Y-72022368D01*
X236522326Y-72101411D01*
X236485946Y-72189239D01*
X236467400Y-72282476D01*
X236467400Y-72309347D01*
X236172019Y-72013966D01*
X236194054Y-71960769D01*
X236212600Y-71867532D01*
X236212600Y-71772468D01*
X236196448Y-71691265D01*
X240886000Y-71691265D01*
X240886000Y-71908735D01*
X240928426Y-72122025D01*
X241011648Y-72322940D01*
X241132467Y-72503759D01*
X241286241Y-72657533D01*
X241467060Y-72778352D01*
X241667975Y-72861574D01*
X241881265Y-72904000D01*
X242098735Y-72904000D01*
X242312025Y-72861574D01*
X242512940Y-72778352D01*
X242693759Y-72657533D01*
X242847533Y-72503759D01*
X242968352Y-72322940D01*
X243051574Y-72122025D01*
X243094000Y-71908735D01*
X243094000Y-71691265D01*
X243426000Y-71691265D01*
X243426000Y-71908735D01*
X243468426Y-72122025D01*
X243551648Y-72322940D01*
X243672467Y-72503759D01*
X243826241Y-72657533D01*
X244007060Y-72778352D01*
X244207975Y-72861574D01*
X244421265Y-72904000D01*
X244638735Y-72904000D01*
X244852025Y-72861574D01*
X245052940Y-72778352D01*
X245233759Y-72657533D01*
X245387533Y-72503759D01*
X245508352Y-72322940D01*
X245591574Y-72122025D01*
X245634000Y-71908735D01*
X245634000Y-71691265D01*
X245966000Y-71691265D01*
X245966000Y-71908735D01*
X246008426Y-72122025D01*
X246091648Y-72322940D01*
X246212467Y-72503759D01*
X246366241Y-72657533D01*
X246547060Y-72778352D01*
X246747975Y-72861574D01*
X246961265Y-72904000D01*
X247178735Y-72904000D01*
X247392025Y-72861574D01*
X247592940Y-72778352D01*
X247773759Y-72657533D01*
X247927533Y-72503759D01*
X248048352Y-72322940D01*
X248131574Y-72122025D01*
X248174000Y-71908735D01*
X248174000Y-71691265D01*
X248131574Y-71477975D01*
X248048352Y-71277060D01*
X247927533Y-71096241D01*
X247781292Y-70950000D01*
X248504772Y-70950000D01*
X248504772Y-72650000D01*
X248509676Y-72699793D01*
X248524200Y-72747672D01*
X248547786Y-72791797D01*
X248579527Y-72830473D01*
X248618203Y-72862214D01*
X248662328Y-72885800D01*
X248710207Y-72900324D01*
X248760000Y-72905228D01*
X250460000Y-72905228D01*
X250509793Y-72900324D01*
X250557672Y-72885800D01*
X250601797Y-72862214D01*
X250640473Y-72830473D01*
X250672214Y-72791797D01*
X250695800Y-72747672D01*
X250710324Y-72699793D01*
X250715228Y-72650000D01*
X250715228Y-72625000D01*
X251744772Y-72625000D01*
X251744772Y-75875000D01*
X251780900Y-76241814D01*
X251887896Y-76594532D01*
X252061648Y-76919599D01*
X252295478Y-77204522D01*
X252580401Y-77438352D01*
X252905468Y-77612104D01*
X253258186Y-77719100D01*
X253625000Y-77755228D01*
X257375000Y-77755228D01*
X257741814Y-77719100D01*
X258094532Y-77612104D01*
X258419599Y-77438352D01*
X258704522Y-77204522D01*
X258938352Y-76919599D01*
X259112104Y-76594532D01*
X259219100Y-76241814D01*
X259255228Y-75875000D01*
X259255228Y-72625000D01*
X259219100Y-72258186D01*
X259112104Y-71905468D01*
X258938352Y-71580401D01*
X258704522Y-71295478D01*
X258419599Y-71061648D01*
X258094532Y-70887896D01*
X257741814Y-70780900D01*
X257375000Y-70744772D01*
X253625000Y-70744772D01*
X253258186Y-70780900D01*
X252905468Y-70887896D01*
X252580401Y-71061648D01*
X252295478Y-71295478D01*
X252061648Y-71580401D01*
X251887896Y-71905468D01*
X251780900Y-72258186D01*
X251744772Y-72625000D01*
X250715228Y-72625000D01*
X250715228Y-70950000D01*
X250710324Y-70900207D01*
X250695800Y-70852328D01*
X250672214Y-70808203D01*
X250640473Y-70769527D01*
X250601797Y-70737786D01*
X250557672Y-70714200D01*
X250509793Y-70699676D01*
X250460000Y-70694772D01*
X248760000Y-70694772D01*
X248710207Y-70699676D01*
X248662328Y-70714200D01*
X248618203Y-70737786D01*
X248579527Y-70769527D01*
X248547786Y-70808203D01*
X248524200Y-70852328D01*
X248509676Y-70900207D01*
X248504772Y-70950000D01*
X247781292Y-70950000D01*
X247773759Y-70942467D01*
X247592940Y-70821648D01*
X247392025Y-70738426D01*
X247178735Y-70696000D01*
X246961265Y-70696000D01*
X246747975Y-70738426D01*
X246547060Y-70821648D01*
X246366241Y-70942467D01*
X246212467Y-71096241D01*
X246091648Y-71277060D01*
X246008426Y-71477975D01*
X245966000Y-71691265D01*
X245634000Y-71691265D01*
X245591574Y-71477975D01*
X245508352Y-71277060D01*
X245387533Y-71096241D01*
X245233759Y-70942467D01*
X245052940Y-70821648D01*
X244852025Y-70738426D01*
X244638735Y-70696000D01*
X244421265Y-70696000D01*
X244207975Y-70738426D01*
X244007060Y-70821648D01*
X243826241Y-70942467D01*
X243672467Y-71096241D01*
X243551648Y-71277060D01*
X243468426Y-71477975D01*
X243426000Y-71691265D01*
X243094000Y-71691265D01*
X243051574Y-71477975D01*
X242968352Y-71277060D01*
X242847533Y-71096241D01*
X242693759Y-70942467D01*
X242512940Y-70821648D01*
X242312025Y-70738426D01*
X242098735Y-70696000D01*
X241881265Y-70696000D01*
X241667975Y-70738426D01*
X241467060Y-70821648D01*
X241286241Y-70942467D01*
X241132467Y-71096241D01*
X241011648Y-71277060D01*
X240928426Y-71477975D01*
X240886000Y-71691265D01*
X236196448Y-71691265D01*
X236194054Y-71679231D01*
X236157674Y-71591403D01*
X236104860Y-71512360D01*
X236037640Y-71445140D01*
X235958597Y-71392326D01*
X235870769Y-71355946D01*
X235777532Y-71337400D01*
X235682468Y-71337400D01*
X235589231Y-71355946D01*
X235501403Y-71392326D01*
X235422360Y-71445140D01*
X235355140Y-71512360D01*
X235302326Y-71591403D01*
X235265946Y-71679231D01*
X235247400Y-71772468D01*
X235247400Y-71867532D01*
X235265946Y-71960769D01*
X235302326Y-72048597D01*
X235326000Y-72084028D01*
X235326000Y-72123452D01*
X235324046Y-72143289D01*
X235326000Y-72163126D01*
X235326000Y-72163128D01*
X235331846Y-72222486D01*
X235354947Y-72298640D01*
X235392462Y-72368824D01*
X235442947Y-72430342D01*
X235458360Y-72442991D01*
X236006970Y-72991601D01*
X232797488Y-72991601D01*
X232813216Y-72912532D01*
X232813216Y-72817468D01*
X232794670Y-72724231D01*
X232758290Y-72636403D01*
X232705476Y-72557360D01*
X232638256Y-72490140D01*
X232559213Y-72437326D01*
X232471385Y-72400946D01*
X232378148Y-72382400D01*
X232283084Y-72382400D01*
X232189847Y-72400946D01*
X232102019Y-72437326D01*
X232022976Y-72490140D01*
X231955756Y-72557360D01*
X231902942Y-72636403D01*
X231866562Y-72724231D01*
X231862042Y-72746953D01*
X230024000Y-70908912D01*
X230024000Y-70769633D01*
X230016707Y-70695586D01*
X229987888Y-70600581D01*
X229941088Y-70513024D01*
X229878106Y-70436280D01*
X229801362Y-70373298D01*
X229718486Y-70329000D01*
X257983907Y-70329000D01*
X258324262Y-70362372D01*
X258636165Y-70456542D01*
X258923841Y-70609501D01*
X259176329Y-70815425D01*
X259384014Y-71066472D01*
X259538977Y-71353069D01*
X259635324Y-71664317D01*
X259671000Y-72003748D01*
X259671001Y-87983897D01*
X259637628Y-88324262D01*
X259543459Y-88636165D01*
X259390496Y-88923844D01*
X259184570Y-89176334D01*
X258933529Y-89384013D01*
X258646927Y-89538978D01*
X258335683Y-89635324D01*
X257996252Y-89671000D01*
X248451532Y-89671000D01*
X248464054Y-89640769D01*
X248482600Y-89547532D01*
X248482600Y-89452468D01*
X248464054Y-89359231D01*
X248427674Y-89271403D01*
X248374860Y-89192360D01*
X248307640Y-89125140D01*
X248228597Y-89072326D01*
X248140769Y-89035946D01*
X248047532Y-89017400D01*
X247952468Y-89017400D01*
X247859231Y-89035946D01*
X247771403Y-89072326D01*
X247750000Y-89086627D01*
X247728597Y-89072326D01*
X247640769Y-89035946D01*
X247547532Y-89017400D01*
X247452468Y-89017400D01*
X247359231Y-89035946D01*
X247271403Y-89072326D01*
X247250000Y-89086627D01*
X247228597Y-89072326D01*
X247140769Y-89035946D01*
X247047532Y-89017400D01*
X246952468Y-89017400D01*
X246859231Y-89035946D01*
X246771403Y-89072326D01*
X246750000Y-89086627D01*
X246728597Y-89072326D01*
X246640769Y-89035946D01*
X246547532Y-89017400D01*
X246452468Y-89017400D01*
X246359231Y-89035946D01*
X246271403Y-89072326D01*
X246250000Y-89086627D01*
X246228597Y-89072326D01*
X246140769Y-89035946D01*
X246047532Y-89017400D01*
X245952468Y-89017400D01*
X245859231Y-89035946D01*
X245771403Y-89072326D01*
X245750000Y-89086627D01*
X245728597Y-89072326D01*
X245640769Y-89035946D01*
X245547532Y-89017400D01*
X245452468Y-89017400D01*
X245359231Y-89035946D01*
X245271403Y-89072326D01*
X245192360Y-89125140D01*
X245125140Y-89192360D01*
X245072326Y-89271403D01*
X245035946Y-89359231D01*
X245017400Y-89452468D01*
X245017400Y-89547532D01*
X245035946Y-89640769D01*
X245048468Y-89671000D01*
X221016093Y-89671000D01*
X220675738Y-89637628D01*
X220363835Y-89543459D01*
X220076156Y-89390496D01*
X219823666Y-89184570D01*
X219615987Y-88933529D01*
X219461022Y-88646927D01*
X219364676Y-88335683D01*
X219329000Y-87996252D01*
X219329000Y-85600000D01*
X219744772Y-85600000D01*
X219744772Y-88400000D01*
X219761205Y-88566847D01*
X219809872Y-88727282D01*
X219888904Y-88875139D01*
X219995262Y-89004738D01*
X220124861Y-89111096D01*
X220272718Y-89190128D01*
X220433153Y-89238795D01*
X220600000Y-89255228D01*
X223400000Y-89255228D01*
X223566847Y-89238795D01*
X223727282Y-89190128D01*
X223875139Y-89111096D01*
X224004738Y-89004738D01*
X224111096Y-88875139D01*
X224190128Y-88727282D01*
X224238795Y-88566847D01*
X224255228Y-88400000D01*
X224255228Y-85600000D01*
X224238795Y-85433153D01*
X224190128Y-85272718D01*
X224111096Y-85124861D01*
X224004738Y-84995262D01*
X223875139Y-84888904D01*
X223727282Y-84809872D01*
X223566847Y-84761205D01*
X223400000Y-84744772D01*
X220600000Y-84744772D01*
X220433153Y-84761205D01*
X220272718Y-84809872D01*
X220124861Y-84888904D01*
X219995262Y-84995262D01*
X219888904Y-85124861D01*
X219809872Y-85272718D01*
X219761205Y-85433153D01*
X219744772Y-85600000D01*
X219329000Y-85600000D01*
X219329000Y-84448758D01*
X232637400Y-84448758D01*
X232637400Y-84543822D01*
X232655946Y-84637059D01*
X232692326Y-84724887D01*
X232745140Y-84803930D01*
X232812360Y-84871150D01*
X232891403Y-84923964D01*
X232979231Y-84960344D01*
X233072468Y-84978890D01*
X233167532Y-84978890D01*
X233201901Y-84972053D01*
X233091648Y-85137060D01*
X233008426Y-85337975D01*
X232966000Y-85551265D01*
X232966000Y-85768735D01*
X233008426Y-85982025D01*
X233091648Y-86182940D01*
X233212467Y-86363759D01*
X233366241Y-86517533D01*
X233547060Y-86638352D01*
X233747975Y-86721574D01*
X233961265Y-86764000D01*
X234178735Y-86764000D01*
X234392025Y-86721574D01*
X234592940Y-86638352D01*
X234649340Y-86600667D01*
X237870380Y-86600667D01*
X237890217Y-86602621D01*
X237910054Y-86600667D01*
X237910057Y-86600667D01*
X237969415Y-86594821D01*
X238045569Y-86571720D01*
X238115753Y-86534205D01*
X238177270Y-86483720D01*
X238189919Y-86468307D01*
X238434226Y-86224000D01*
X239168157Y-86224000D01*
X239157400Y-86278078D01*
X239157400Y-86373142D01*
X239175946Y-86466379D01*
X239212326Y-86554207D01*
X239265140Y-86633250D01*
X239332360Y-86700470D01*
X239411403Y-86753284D01*
X239499231Y-86789664D01*
X239592468Y-86808210D01*
X239687532Y-86808210D01*
X239780769Y-86789664D01*
X239868597Y-86753284D01*
X239947640Y-86700470D01*
X240014860Y-86633250D01*
X240067674Y-86554207D01*
X240104054Y-86466379D01*
X240122600Y-86373142D01*
X240122600Y-86278078D01*
X240111843Y-86224000D01*
X240448156Y-86224000D01*
X240437399Y-86278078D01*
X240437399Y-86373142D01*
X240455945Y-86466379D01*
X240492325Y-86554207D01*
X240545139Y-86633250D01*
X240612359Y-86700470D01*
X240666147Y-86736410D01*
X239606557Y-87796000D01*
X235175228Y-87796000D01*
X235175228Y-87350000D01*
X235170324Y-87300207D01*
X235155800Y-87252328D01*
X235132214Y-87208203D01*
X235100473Y-87169527D01*
X235061797Y-87137786D01*
X235017672Y-87114200D01*
X234969793Y-87099676D01*
X234920000Y-87094772D01*
X233220000Y-87094772D01*
X233170207Y-87099676D01*
X233122328Y-87114200D01*
X233078203Y-87137786D01*
X233039527Y-87169527D01*
X233007786Y-87208203D01*
X232984200Y-87252328D01*
X232969676Y-87300207D01*
X232964772Y-87350000D01*
X232964772Y-89050000D01*
X232969676Y-89099793D01*
X232984200Y-89147672D01*
X233007786Y-89191797D01*
X233039527Y-89230473D01*
X233078203Y-89262214D01*
X233122328Y-89285800D01*
X233170207Y-89300324D01*
X233220000Y-89305228D01*
X234920000Y-89305228D01*
X234969793Y-89300324D01*
X235017672Y-89285800D01*
X235061797Y-89262214D01*
X235100473Y-89230473D01*
X235132214Y-89191797D01*
X235155800Y-89147672D01*
X235170324Y-89099793D01*
X235175228Y-89050000D01*
X235175228Y-88604000D01*
X239754062Y-88604000D01*
X239773899Y-88605954D01*
X239793736Y-88604000D01*
X239793739Y-88604000D01*
X239853097Y-88598154D01*
X239929251Y-88575053D01*
X239999435Y-88537538D01*
X240060952Y-88487053D01*
X240073601Y-88471640D01*
X240452773Y-88092468D01*
X240607400Y-88092468D01*
X240607400Y-88187532D01*
X240625946Y-88280769D01*
X240662326Y-88368597D01*
X240715140Y-88447640D01*
X240782360Y-88514860D01*
X240861403Y-88567674D01*
X240949231Y-88604054D01*
X241042468Y-88622600D01*
X241137532Y-88622600D01*
X241230769Y-88604054D01*
X241318597Y-88567674D01*
X241397640Y-88514860D01*
X241464860Y-88447640D01*
X241517674Y-88368597D01*
X241554054Y-88280769D01*
X241572600Y-88187532D01*
X241572600Y-88092468D01*
X241564644Y-88052468D01*
X244727400Y-88052468D01*
X244727400Y-88147532D01*
X244745946Y-88240769D01*
X244782326Y-88328597D01*
X244835140Y-88407640D01*
X244902360Y-88474860D01*
X244981403Y-88527674D01*
X245069231Y-88564054D01*
X245162468Y-88582600D01*
X245257532Y-88582600D01*
X245350769Y-88564054D01*
X245438597Y-88527674D01*
X245517640Y-88474860D01*
X245584860Y-88407640D01*
X245637674Y-88328597D01*
X245674054Y-88240769D01*
X245692600Y-88147532D01*
X245692600Y-88052468D01*
X245674054Y-87959231D01*
X245637674Y-87871403D01*
X245584860Y-87792360D01*
X245564968Y-87772468D01*
X247667400Y-87772468D01*
X247667400Y-87867532D01*
X247685946Y-87960769D01*
X247722326Y-88048597D01*
X247775140Y-88127640D01*
X247842360Y-88194860D01*
X247921403Y-88247674D01*
X248009231Y-88284054D01*
X248102468Y-88302600D01*
X248197532Y-88302600D01*
X248290769Y-88284054D01*
X248378597Y-88247674D01*
X248457640Y-88194860D01*
X248524860Y-88127640D01*
X248577674Y-88048597D01*
X248614054Y-87960769D01*
X248632600Y-87867532D01*
X248632600Y-87772468D01*
X248614054Y-87679231D01*
X248577674Y-87591403D01*
X248524860Y-87512360D01*
X248457640Y-87445140D01*
X248378597Y-87392326D01*
X248290769Y-87355946D01*
X248197532Y-87337400D01*
X248102468Y-87337400D01*
X248009231Y-87355946D01*
X247921403Y-87392326D01*
X247842360Y-87445140D01*
X247775140Y-87512360D01*
X247722326Y-87591403D01*
X247685946Y-87679231D01*
X247667400Y-87772468D01*
X245564968Y-87772468D01*
X245517640Y-87725140D01*
X245438597Y-87672326D01*
X245350769Y-87635946D01*
X245257532Y-87617400D01*
X245162468Y-87617400D01*
X245069231Y-87635946D01*
X244981403Y-87672326D01*
X244902360Y-87725140D01*
X244835140Y-87792360D01*
X244782326Y-87871403D01*
X244745946Y-87959231D01*
X244727400Y-88052468D01*
X241564644Y-88052468D01*
X241554054Y-87999231D01*
X241517674Y-87911403D01*
X241464860Y-87832360D01*
X241397640Y-87765140D01*
X241318597Y-87712326D01*
X241230769Y-87675946D01*
X241137532Y-87657400D01*
X241042468Y-87657400D01*
X240949231Y-87675946D01*
X240861403Y-87712326D01*
X240782360Y-87765140D01*
X240715140Y-87832360D01*
X240662326Y-87911403D01*
X240625946Y-87999231D01*
X240607400Y-88092468D01*
X240452773Y-88092468D01*
X241395640Y-87149601D01*
X242528158Y-87149601D01*
X242517401Y-87203679D01*
X242517401Y-87298743D01*
X242535947Y-87391980D01*
X242572327Y-87479808D01*
X242625141Y-87558851D01*
X242692361Y-87626071D01*
X242771404Y-87678885D01*
X242859232Y-87715265D01*
X242952469Y-87733811D01*
X243047533Y-87733811D01*
X243140770Y-87715265D01*
X243228598Y-87678885D01*
X243307641Y-87626071D01*
X243374861Y-87558851D01*
X243427675Y-87479808D01*
X243464055Y-87391980D01*
X243482601Y-87298743D01*
X243482601Y-87203679D01*
X243471844Y-87149601D01*
X245674562Y-87149601D01*
X245694399Y-87151555D01*
X245714236Y-87149601D01*
X245714239Y-87149601D01*
X245773597Y-87143755D01*
X245849751Y-87120654D01*
X245919935Y-87083139D01*
X245981452Y-87032654D01*
X245994101Y-87017241D01*
X246128874Y-86882468D01*
X249457400Y-86882468D01*
X249457400Y-86977532D01*
X249475946Y-87070769D01*
X249512326Y-87158597D01*
X249565140Y-87237640D01*
X249632360Y-87304860D01*
X249711403Y-87357674D01*
X249799231Y-87394054D01*
X249892468Y-87412600D01*
X249987532Y-87412600D01*
X250080769Y-87394054D01*
X250168597Y-87357674D01*
X250247640Y-87304860D01*
X250314860Y-87237640D01*
X250367674Y-87158597D01*
X250404054Y-87070769D01*
X250421618Y-86982468D01*
X250447400Y-86982468D01*
X250447400Y-87077532D01*
X250465946Y-87170769D01*
X250502326Y-87258597D01*
X250555140Y-87337640D01*
X250622360Y-87404860D01*
X250701403Y-87457674D01*
X250789231Y-87494054D01*
X250882468Y-87512600D01*
X250977532Y-87512600D01*
X251070769Y-87494054D01*
X251158597Y-87457674D01*
X251237640Y-87404860D01*
X251304860Y-87337640D01*
X251357674Y-87258597D01*
X251394054Y-87170769D01*
X251412600Y-87077532D01*
X251412600Y-86982468D01*
X251394054Y-86889231D01*
X251357674Y-86801403D01*
X251304860Y-86722360D01*
X251237640Y-86655140D01*
X251158597Y-86602326D01*
X251070769Y-86565946D01*
X250977532Y-86547400D01*
X250882468Y-86547400D01*
X250789231Y-86565946D01*
X250701403Y-86602326D01*
X250622360Y-86655140D01*
X250555140Y-86722360D01*
X250502326Y-86801403D01*
X250465946Y-86889231D01*
X250447400Y-86982468D01*
X250421618Y-86982468D01*
X250422600Y-86977532D01*
X250422600Y-86882468D01*
X250404054Y-86789231D01*
X250367674Y-86701403D01*
X250314860Y-86622360D01*
X250247640Y-86555140D01*
X250168597Y-86502326D01*
X250080769Y-86465946D01*
X249987532Y-86447400D01*
X249892468Y-86447400D01*
X249799231Y-86465946D01*
X249711403Y-86502326D01*
X249632360Y-86555140D01*
X249565140Y-86622360D01*
X249512326Y-86701403D01*
X249475946Y-86789231D01*
X249457400Y-86882468D01*
X246128874Y-86882468D01*
X246788874Y-86222468D01*
X248107400Y-86222468D01*
X248107400Y-86317532D01*
X248125946Y-86410769D01*
X248162326Y-86498597D01*
X248215140Y-86577640D01*
X248282360Y-86644860D01*
X248361403Y-86697674D01*
X248449231Y-86734054D01*
X248542468Y-86752600D01*
X248637532Y-86752600D01*
X248730769Y-86734054D01*
X248818597Y-86697674D01*
X248897640Y-86644860D01*
X248964860Y-86577640D01*
X249017674Y-86498597D01*
X249054054Y-86410769D01*
X249072600Y-86317532D01*
X249072600Y-86222468D01*
X249054054Y-86129231D01*
X249017674Y-86041403D01*
X248964860Y-85962360D01*
X248897640Y-85895140D01*
X248818597Y-85842326D01*
X248730769Y-85805946D01*
X248637532Y-85787400D01*
X248542468Y-85787400D01*
X248449231Y-85805946D01*
X248361403Y-85842326D01*
X248282360Y-85895140D01*
X248215140Y-85962360D01*
X248162326Y-86041403D01*
X248125946Y-86129231D01*
X248107400Y-86222468D01*
X246788874Y-86222468D01*
X248518874Y-84492468D01*
X250147400Y-84492468D01*
X250147400Y-84587532D01*
X250165946Y-84680769D01*
X250202326Y-84768597D01*
X250255140Y-84847640D01*
X250322360Y-84914860D01*
X250401403Y-84967674D01*
X250489231Y-85004054D01*
X250582468Y-85022600D01*
X250677532Y-85022600D01*
X250770769Y-85004054D01*
X250858597Y-84967674D01*
X250937640Y-84914860D01*
X251004860Y-84847640D01*
X251057674Y-84768597D01*
X251094054Y-84680769D01*
X251112600Y-84587532D01*
X251112600Y-84492468D01*
X251094054Y-84399231D01*
X251057674Y-84311403D01*
X251004860Y-84232360D01*
X250937640Y-84165140D01*
X250858597Y-84112326D01*
X250770769Y-84075946D01*
X250677532Y-84057400D01*
X250582468Y-84057400D01*
X250489231Y-84075946D01*
X250401403Y-84112326D01*
X250322360Y-84165140D01*
X250255140Y-84232360D01*
X250202326Y-84311403D01*
X250165946Y-84399231D01*
X250147400Y-84492468D01*
X248518874Y-84492468D01*
X251246000Y-81765342D01*
X251246000Y-82761237D01*
X251166115Y-82841122D01*
X251118913Y-82898638D01*
X251072113Y-82986195D01*
X251043293Y-83081199D01*
X251033562Y-83180000D01*
X251043293Y-83278801D01*
X251072113Y-83373805D01*
X251118913Y-83461362D01*
X251181895Y-83538105D01*
X251258638Y-83601087D01*
X251346195Y-83647887D01*
X251441199Y-83676707D01*
X251540000Y-83686438D01*
X251638801Y-83676707D01*
X251733805Y-83647887D01*
X251821362Y-83601087D01*
X251830940Y-83593227D01*
X251780900Y-83758186D01*
X251744772Y-84125000D01*
X251744772Y-87375000D01*
X251780900Y-87741814D01*
X251887896Y-88094532D01*
X252061648Y-88419599D01*
X252295478Y-88704522D01*
X252580401Y-88938352D01*
X252905468Y-89112104D01*
X253258186Y-89219100D01*
X253625000Y-89255228D01*
X257375000Y-89255228D01*
X257741814Y-89219100D01*
X258094532Y-89112104D01*
X258419599Y-88938352D01*
X258704522Y-88704522D01*
X258938352Y-88419599D01*
X259112104Y-88094532D01*
X259219100Y-87741814D01*
X259255228Y-87375000D01*
X259255228Y-84125000D01*
X259219100Y-83758186D01*
X259112104Y-83405468D01*
X258938352Y-83080401D01*
X258704522Y-82795478D01*
X258419599Y-82561648D01*
X258094532Y-82387896D01*
X257741814Y-82280900D01*
X257375000Y-82244772D01*
X253625000Y-82244772D01*
X253258186Y-82280900D01*
X252938119Y-82377992D01*
X252938210Y-82377532D01*
X252938210Y-82282468D01*
X252919664Y-82189231D01*
X252883284Y-82101403D01*
X252830470Y-82022360D01*
X252763250Y-81955140D01*
X252684207Y-81902326D01*
X252596379Y-81865946D01*
X252503142Y-81847400D01*
X252408078Y-81847400D01*
X252314841Y-81865946D01*
X252254000Y-81891147D01*
X252254000Y-80554754D01*
X252256438Y-80530000D01*
X252246707Y-80431199D01*
X252243640Y-80421088D01*
X252217888Y-80336195D01*
X252171088Y-80248638D01*
X252108106Y-80171894D01*
X252088873Y-80156110D01*
X250453890Y-78521127D01*
X250438106Y-78501894D01*
X250361362Y-78438912D01*
X250273805Y-78392112D01*
X250178801Y-78363293D01*
X250104754Y-78356000D01*
X250080000Y-78353562D01*
X250055246Y-78356000D01*
X248398764Y-78356000D01*
X245718878Y-75676115D01*
X245661362Y-75628913D01*
X245573805Y-75582113D01*
X245478801Y-75553293D01*
X245380000Y-75543562D01*
X245281199Y-75553293D01*
X245186195Y-75582113D01*
X245098638Y-75628913D01*
X245021895Y-75691895D01*
X244958913Y-75768638D01*
X244912113Y-75856195D01*
X244883293Y-75951199D01*
X244873562Y-76050000D01*
X244883293Y-76148801D01*
X244912113Y-76243805D01*
X244958913Y-76331362D01*
X245006115Y-76388878D01*
X247816114Y-79198878D01*
X247831894Y-79218106D01*
X247887123Y-79263431D01*
X247820769Y-79235946D01*
X247727532Y-79217400D01*
X247632468Y-79217400D01*
X247539231Y-79235946D01*
X247451403Y-79272326D01*
X247380000Y-79320035D01*
X247308597Y-79272326D01*
X247220769Y-79235946D01*
X247127532Y-79217400D01*
X247032468Y-79217400D01*
X246939231Y-79235946D01*
X246851403Y-79272326D01*
X246780000Y-79320035D01*
X246708597Y-79272326D01*
X246620769Y-79235946D01*
X246527532Y-79217400D01*
X246432468Y-79217400D01*
X246339231Y-79235946D01*
X246251403Y-79272326D01*
X246172360Y-79325140D01*
X246105140Y-79392360D01*
X246052326Y-79471403D01*
X246015946Y-79559231D01*
X245997400Y-79652468D01*
X245997400Y-79747532D01*
X246015946Y-79840769D01*
X246052326Y-79928597D01*
X246100035Y-80000000D01*
X246052326Y-80071403D01*
X246015946Y-80159231D01*
X245997400Y-80252468D01*
X245997400Y-80347532D01*
X246015946Y-80440769D01*
X246052326Y-80528597D01*
X246100035Y-80600000D01*
X246052326Y-80671403D01*
X246015946Y-80759231D01*
X245997400Y-80852468D01*
X245997400Y-80947532D01*
X246015946Y-81040769D01*
X246052326Y-81128597D01*
X246105140Y-81207640D01*
X246172360Y-81274860D01*
X246251403Y-81327674D01*
X246339231Y-81364054D01*
X246432468Y-81382600D01*
X246527532Y-81382600D01*
X246620769Y-81364054D01*
X246708597Y-81327674D01*
X246780000Y-81279965D01*
X246851403Y-81327674D01*
X246939231Y-81364054D01*
X247032468Y-81382600D01*
X247127532Y-81382600D01*
X247220769Y-81364054D01*
X247308597Y-81327674D01*
X247380000Y-81279965D01*
X247451403Y-81327674D01*
X247539231Y-81364054D01*
X247632468Y-81382600D01*
X247727532Y-81382600D01*
X247820769Y-81364054D01*
X247908597Y-81327674D01*
X247980000Y-81279965D01*
X248051403Y-81327674D01*
X248139231Y-81364054D01*
X248232468Y-81382600D01*
X248327532Y-81382600D01*
X248420769Y-81364054D01*
X248508597Y-81327674D01*
X248580000Y-81279965D01*
X248651403Y-81327674D01*
X248739231Y-81364054D01*
X248832468Y-81382600D01*
X248927532Y-81382600D01*
X249020769Y-81364054D01*
X249108597Y-81327674D01*
X249187640Y-81274860D01*
X249254860Y-81207640D01*
X249307674Y-81128597D01*
X249344054Y-81040769D01*
X249362600Y-80947532D01*
X249362600Y-80852468D01*
X249344054Y-80759231D01*
X249307674Y-80671403D01*
X249259965Y-80600000D01*
X249307674Y-80528597D01*
X249344054Y-80440769D01*
X249362600Y-80347532D01*
X249362600Y-80252468D01*
X249344054Y-80159231D01*
X249307674Y-80071403D01*
X249259965Y-80000000D01*
X249307674Y-79928597D01*
X249344054Y-79840769D01*
X249362600Y-79747532D01*
X249362600Y-79652468D01*
X249344054Y-79559231D01*
X249307674Y-79471403D01*
X249254860Y-79392360D01*
X249226500Y-79364000D01*
X249871237Y-79364000D01*
X250523837Y-80016600D01*
X250468528Y-80053555D01*
X250401308Y-80120775D01*
X250348494Y-80199818D01*
X250312114Y-80287646D01*
X250293568Y-80380883D01*
X250293568Y-80425090D01*
X245302658Y-85416000D01*
X238286721Y-85416000D01*
X238266884Y-85414046D01*
X238247046Y-85416000D01*
X238247044Y-85416000D01*
X238187686Y-85421846D01*
X238111532Y-85444947D01*
X238041348Y-85482461D01*
X238014314Y-85504648D01*
X237979831Y-85532947D01*
X237967184Y-85548358D01*
X237722875Y-85792667D01*
X235169240Y-85792667D01*
X235174000Y-85768735D01*
X235174000Y-85551265D01*
X235131574Y-85337975D01*
X235048352Y-85137060D01*
X234927533Y-84956241D01*
X234773759Y-84802467D01*
X234592940Y-84681648D01*
X234392025Y-84598426D01*
X234178735Y-84556000D01*
X233961265Y-84556000D01*
X233747975Y-84598426D01*
X233569421Y-84672386D01*
X233584054Y-84637059D01*
X233602600Y-84543822D01*
X233602600Y-84448758D01*
X233584054Y-84355521D01*
X233547674Y-84267693D01*
X233494860Y-84188650D01*
X233427640Y-84121430D01*
X233348597Y-84068616D01*
X233260769Y-84032236D01*
X233167532Y-84013690D01*
X233072468Y-84013690D01*
X232979231Y-84032236D01*
X232891403Y-84068616D01*
X232812360Y-84121430D01*
X232745140Y-84188650D01*
X232692326Y-84267693D01*
X232655946Y-84355521D01*
X232637400Y-84448758D01*
X219329000Y-84448758D01*
X219329000Y-78600000D01*
X219744772Y-78600000D01*
X219744772Y-81400000D01*
X219761205Y-81566847D01*
X219809872Y-81727282D01*
X219888904Y-81875139D01*
X219995262Y-82004738D01*
X220124861Y-82111096D01*
X220272718Y-82190128D01*
X220433153Y-82238795D01*
X220600000Y-82255228D01*
X223400000Y-82255228D01*
X223566847Y-82238795D01*
X223727282Y-82190128D01*
X223875139Y-82111096D01*
X224004738Y-82004738D01*
X224111096Y-81875139D01*
X224190128Y-81727282D01*
X224238795Y-81566847D01*
X224255228Y-81400000D01*
X224255228Y-78600000D01*
X224238795Y-78433153D01*
X224190128Y-78272718D01*
X224111096Y-78124861D01*
X224004738Y-77995262D01*
X223875139Y-77888904D01*
X223727282Y-77809872D01*
X223566847Y-77761205D01*
X223400000Y-77744772D01*
X220600000Y-77744772D01*
X220433153Y-77761205D01*
X220272718Y-77809872D01*
X220124861Y-77888904D01*
X219995262Y-77995262D01*
X219888904Y-78124861D01*
X219809872Y-78272718D01*
X219761205Y-78433153D01*
X219744772Y-78600000D01*
X219329000Y-78600000D01*
X219329000Y-76652468D01*
X219417400Y-76652468D01*
X219417400Y-76747532D01*
X219435946Y-76840769D01*
X219472326Y-76928597D01*
X219525140Y-77007640D01*
X219592360Y-77074860D01*
X219671403Y-77127674D01*
X219759231Y-77164054D01*
X219852468Y-77182600D01*
X219947532Y-77182600D01*
X220040769Y-77164054D01*
X220128597Y-77127674D01*
X220207640Y-77074860D01*
X220274860Y-77007640D01*
X220315959Y-76946130D01*
X220359231Y-76964054D01*
X220452468Y-76982600D01*
X220547532Y-76982600D01*
X220640769Y-76964054D01*
X220728597Y-76927674D01*
X220807640Y-76874860D01*
X220874860Y-76807640D01*
X220915959Y-76746130D01*
X220959231Y-76764054D01*
X221052468Y-76782600D01*
X221147532Y-76782600D01*
X221240769Y-76764054D01*
X221284041Y-76746130D01*
X221325140Y-76807640D01*
X221392360Y-76874860D01*
X221471403Y-76927674D01*
X221559231Y-76964054D01*
X221652468Y-76982600D01*
X221747532Y-76982600D01*
X221840769Y-76964054D01*
X221884041Y-76946130D01*
X221925140Y-77007640D01*
X221992360Y-77074860D01*
X222071403Y-77127674D01*
X222159231Y-77164054D01*
X222252468Y-77182600D01*
X222347532Y-77182600D01*
X222440769Y-77164054D01*
X222528597Y-77127674D01*
X222607640Y-77074860D01*
X222674860Y-77007640D01*
X222715959Y-76946130D01*
X222759231Y-76964054D01*
X222852468Y-76982600D01*
X222947532Y-76982600D01*
X223040769Y-76964054D01*
X223128597Y-76927674D01*
X223207640Y-76874860D01*
X223274860Y-76807640D01*
X223315959Y-76746130D01*
X223359231Y-76764054D01*
X223452468Y-76782600D01*
X223547532Y-76782600D01*
X223640769Y-76764054D01*
X223684041Y-76746130D01*
X223725140Y-76807640D01*
X223792360Y-76874860D01*
X223871403Y-76927674D01*
X223959231Y-76964054D01*
X224052468Y-76982600D01*
X224147532Y-76982600D01*
X224240769Y-76964054D01*
X224284041Y-76946130D01*
X224325140Y-77007640D01*
X224392360Y-77074860D01*
X224471403Y-77127674D01*
X224559231Y-77164054D01*
X224652468Y-77182600D01*
X224747532Y-77182600D01*
X224840769Y-77164054D01*
X224928597Y-77127674D01*
X225007640Y-77074860D01*
X225074860Y-77007640D01*
X225115959Y-76946130D01*
X225159231Y-76964054D01*
X225252468Y-76982600D01*
X225347532Y-76982600D01*
X225440769Y-76964054D01*
X225484041Y-76946130D01*
X225525140Y-77007640D01*
X225592360Y-77074860D01*
X225671403Y-77127674D01*
X225759231Y-77164054D01*
X225852468Y-77182600D01*
X225947532Y-77182600D01*
X226040769Y-77164054D01*
X226128597Y-77127674D01*
X226207640Y-77074860D01*
X226274860Y-77007640D01*
X226315959Y-76946130D01*
X226359231Y-76964054D01*
X226452468Y-76982600D01*
X226469298Y-76982600D01*
X226465140Y-76986758D01*
X226412326Y-77065801D01*
X226375946Y-77153629D01*
X226357400Y-77246866D01*
X226357400Y-77341930D01*
X226375946Y-77435167D01*
X226412326Y-77522995D01*
X226465140Y-77602038D01*
X226532360Y-77669258D01*
X226611403Y-77722072D01*
X226699231Y-77758452D01*
X226792468Y-77776998D01*
X226887532Y-77776998D01*
X226980769Y-77758452D01*
X227068597Y-77722072D01*
X227147640Y-77669258D01*
X227214860Y-77602038D01*
X227267674Y-77522995D01*
X227304054Y-77435167D01*
X227322600Y-77341930D01*
X227322600Y-77246866D01*
X227304054Y-77153629D01*
X227298472Y-77140152D01*
X227328597Y-77127674D01*
X227407640Y-77074860D01*
X227474860Y-77007640D01*
X227527674Y-76928597D01*
X227564054Y-76840769D01*
X227582600Y-76747532D01*
X227582600Y-76652468D01*
X227564054Y-76559231D01*
X227527674Y-76471403D01*
X227474860Y-76392360D01*
X227407640Y-76325140D01*
X227328597Y-76272326D01*
X227240769Y-76235946D01*
X227147532Y-76217400D01*
X227052468Y-76217400D01*
X226959231Y-76235946D01*
X226915959Y-76253870D01*
X226874860Y-76192360D01*
X226807640Y-76125140D01*
X226728597Y-76072326D01*
X226640769Y-76035946D01*
X226547532Y-76017400D01*
X226452468Y-76017400D01*
X226359231Y-76035946D01*
X226271403Y-76072326D01*
X226192360Y-76125140D01*
X226125140Y-76192360D01*
X226084041Y-76253870D01*
X226040769Y-76235946D01*
X225947532Y-76217400D01*
X225852468Y-76217400D01*
X225759231Y-76235946D01*
X225715959Y-76253870D01*
X225674860Y-76192360D01*
X225607640Y-76125140D01*
X225528597Y-76072326D01*
X225440769Y-76035946D01*
X225347532Y-76017400D01*
X225252468Y-76017400D01*
X225159231Y-76035946D01*
X225071403Y-76072326D01*
X224992360Y-76125140D01*
X224925140Y-76192360D01*
X224884041Y-76253870D01*
X224840769Y-76235946D01*
X224747532Y-76217400D01*
X224652468Y-76217400D01*
X224559231Y-76235946D01*
X224515959Y-76253870D01*
X224474860Y-76192360D01*
X224407640Y-76125140D01*
X224328597Y-76072326D01*
X224240769Y-76035946D01*
X224147532Y-76017400D01*
X224052468Y-76017400D01*
X223959231Y-76035946D01*
X223915959Y-76053870D01*
X223874860Y-75992360D01*
X223807640Y-75925140D01*
X223728597Y-75872326D01*
X223640769Y-75835946D01*
X223547532Y-75817400D01*
X223452468Y-75817400D01*
X223359231Y-75835946D01*
X223271403Y-75872326D01*
X223192360Y-75925140D01*
X223125140Y-75992360D01*
X223084041Y-76053870D01*
X223040769Y-76035946D01*
X222947532Y-76017400D01*
X222852468Y-76017400D01*
X222759231Y-76035946D01*
X222671403Y-76072326D01*
X222592360Y-76125140D01*
X222525140Y-76192360D01*
X222484041Y-76253870D01*
X222440769Y-76235946D01*
X222347532Y-76217400D01*
X222252468Y-76217400D01*
X222159231Y-76235946D01*
X222115959Y-76253870D01*
X222074860Y-76192360D01*
X222007640Y-76125140D01*
X221928597Y-76072326D01*
X221840769Y-76035946D01*
X221747532Y-76017400D01*
X221652468Y-76017400D01*
X221559231Y-76035946D01*
X221515959Y-76053870D01*
X221474860Y-75992360D01*
X221407640Y-75925140D01*
X221328597Y-75872326D01*
X221240769Y-75835946D01*
X221147532Y-75817400D01*
X221052468Y-75817400D01*
X220959231Y-75835946D01*
X220871403Y-75872326D01*
X220792360Y-75925140D01*
X220725140Y-75992360D01*
X220684041Y-76053870D01*
X220640769Y-76035946D01*
X220547532Y-76017400D01*
X220452468Y-76017400D01*
X220359231Y-76035946D01*
X220271403Y-76072326D01*
X220192360Y-76125140D01*
X220125140Y-76192360D01*
X220084041Y-76253870D01*
X220040769Y-76235946D01*
X219947532Y-76217400D01*
X219852468Y-76217400D01*
X219759231Y-76235946D01*
X219671403Y-76272326D01*
X219592360Y-76325140D01*
X219525140Y-76392360D01*
X219472326Y-76471403D01*
X219435946Y-76559231D01*
X219417400Y-76652468D01*
X219329000Y-76652468D01*
X219329000Y-72016093D01*
X219362372Y-71675738D01*
X219385238Y-71600000D01*
X219744772Y-71600000D01*
X219744772Y-74400000D01*
X219761205Y-74566847D01*
X219809872Y-74727282D01*
X219888904Y-74875139D01*
X219995262Y-75004738D01*
X220124861Y-75111096D01*
X220272718Y-75190128D01*
X220433153Y-75238795D01*
X220600000Y-75255228D01*
X223400000Y-75255228D01*
X223566847Y-75238795D01*
X223727282Y-75190128D01*
X223875139Y-75111096D01*
X224004738Y-75004738D01*
X224111096Y-74875139D01*
X224190128Y-74727282D01*
X224193912Y-74714806D01*
X231821800Y-74714806D01*
X231821800Y-74809870D01*
X231840346Y-74903107D01*
X231876726Y-74990935D01*
X231929540Y-75069978D01*
X231996760Y-75137198D01*
X232075803Y-75190012D01*
X232163631Y-75226392D01*
X232256868Y-75244938D01*
X232351932Y-75244938D01*
X232445169Y-75226392D01*
X232532997Y-75190012D01*
X232612040Y-75137198D01*
X232679260Y-75069978D01*
X232706481Y-75029238D01*
X233313010Y-75029238D01*
X233313010Y-75124302D01*
X233331556Y-75217539D01*
X233367936Y-75305367D01*
X233420750Y-75384410D01*
X233487970Y-75451630D01*
X233567013Y-75504444D01*
X233654841Y-75540824D01*
X233748078Y-75559370D01*
X233843142Y-75559370D01*
X233936379Y-75540824D01*
X234024207Y-75504444D01*
X234103250Y-75451630D01*
X234170470Y-75384410D01*
X234223284Y-75305367D01*
X234259664Y-75217539D01*
X234278210Y-75124302D01*
X234278210Y-75029238D01*
X234259664Y-74936001D01*
X234223284Y-74848173D01*
X234170470Y-74769130D01*
X234103250Y-74701910D01*
X234024207Y-74649096D01*
X233936379Y-74612716D01*
X233843142Y-74594170D01*
X233748078Y-74594170D01*
X233654841Y-74612716D01*
X233567013Y-74649096D01*
X233487970Y-74701910D01*
X233420750Y-74769130D01*
X233367936Y-74848173D01*
X233331556Y-74936001D01*
X233313010Y-75029238D01*
X232706481Y-75029238D01*
X232732074Y-74990935D01*
X232768454Y-74903107D01*
X232787000Y-74809870D01*
X232787000Y-74714806D01*
X232768454Y-74621569D01*
X232732074Y-74533741D01*
X232679260Y-74454698D01*
X232612040Y-74387478D01*
X232532997Y-74334664D01*
X232445169Y-74298284D01*
X232351932Y-74279738D01*
X232256868Y-74279738D01*
X232163631Y-74298284D01*
X232075803Y-74334664D01*
X231996760Y-74387478D01*
X231929540Y-74454698D01*
X231876726Y-74533741D01*
X231840346Y-74621569D01*
X231821800Y-74714806D01*
X224193912Y-74714806D01*
X224238795Y-74566847D01*
X224255228Y-74400000D01*
X224255228Y-71600000D01*
X224238795Y-71433153D01*
X224190128Y-71272718D01*
X224111096Y-71124861D01*
X224004738Y-70995262D01*
X223875139Y-70888904D01*
X223727282Y-70809872D01*
X223585477Y-70766856D01*
X225267400Y-70766856D01*
X225267400Y-70861920D01*
X225285946Y-70955157D01*
X225322326Y-71042985D01*
X225375140Y-71122028D01*
X225442360Y-71189248D01*
X225521403Y-71242062D01*
X225609231Y-71278442D01*
X225702468Y-71296988D01*
X225797532Y-71296988D01*
X225890769Y-71278442D01*
X225978597Y-71242062D01*
X226057640Y-71189248D01*
X226124860Y-71122028D01*
X226177674Y-71042985D01*
X226214054Y-70955157D01*
X226232600Y-70861920D01*
X226232600Y-70766856D01*
X226214054Y-70673619D01*
X226177674Y-70585791D01*
X226124860Y-70506748D01*
X226057640Y-70439528D01*
X225978597Y-70386714D01*
X225890769Y-70350334D01*
X225797532Y-70331788D01*
X225702468Y-70331788D01*
X225609231Y-70350334D01*
X225521403Y-70386714D01*
X225442360Y-70439528D01*
X225375140Y-70506748D01*
X225322326Y-70585791D01*
X225285946Y-70673619D01*
X225267400Y-70766856D01*
X223585477Y-70766856D01*
X223566847Y-70761205D01*
X223400000Y-70744772D01*
X220600000Y-70744772D01*
X220433153Y-70761205D01*
X220272718Y-70809872D01*
X220124861Y-70888904D01*
X219995262Y-70995262D01*
X219888904Y-71124861D01*
X219809872Y-71272718D01*
X219761205Y-71433153D01*
X219744772Y-71600000D01*
X219385238Y-71600000D01*
X219456542Y-71363835D01*
X219609501Y-71076159D01*
X219815425Y-70823671D01*
X220066472Y-70615986D01*
X220353069Y-70461023D01*
X220664317Y-70364676D01*
X221003748Y-70329000D01*
X229321515Y-70329000D01*
X229238639Y-70373298D01*
%TD*%
M02*
